Fira Sans-SemiLight Italic.ufo
<glyph name="exclam" format="1">
  <advance width="240"/>
  <unicode hex="0021"/>
  <outline>
    <contour>
      <point x="127" y="208" type="line"/>
      <point x="193" y="682" type="line"/>
      <point x="164" y="682" type="line"/>
      <point x="98" y="208" type="line"/>
    </contour>
    <component base="period" xOffset="34"/>
  </outline>
</glyph>
<glyph name="numbersign" format="1">
  <advance width="491"/>
  <unicode hex="0023"/>
  <outline>
    <contour>
      <point x="445" y="662" type="line"/>
      <point x="264" y="0" type="line"/>
      <point x="298" y="0" type="line"/>
      <point x="479" y="662" type="line"/>
    </contour>
    <contour>
      <point x="10" y="222" type="line"/>
      <point x="6" y="194" type="line"/>
      <point x="430" y="194" type="line"/>
      <point x="434" y="222" type="line"/>
    </contour>
    <contour>
      <point x="212" y="662" type="line"/>
      <point x="31" y="0" type="line"/>
      <point x="64" y="0" type="line"/>
      <point x="245" y="662" type="line"/>
    </contour>
    <contour>
      <point x="83" y="484" type="line"/>
      <point x="80" y="456" type="line"/>
      <point x="504" y="456" type="line"/>
      <point x="507" y="484" type="line"/>
    </contour>
  </outline>
</glyph>
<glyph name="dollar" format="1">
  <advance width="520"/>
  <unicode hex="0024"/>
  <outline>
    <contour>
      <point x="208" y="0" type="line"/>
      <point x="188" y="-147" type="line"/>
      <point x="215" y="-147" type="line"/>
      <point x="236" y="1" type="line"/>
    </contour>
    <contour>
      <point x="323" y="814" type="line"/>
      <point x="302" y="664" type="line"/>
      <point x="329" y="664" type="line"/>
      <point x="350" y="814" type="line"/>
    </contour>
    <contour>
      <point x="165" y="671"/>
      <point x="110" y="582"/>
      <point x="110" y="504" type="curve" smooth="yes"/>
      <point x="110" y="425"/>
      <point x="156" y="381"/>
      <point x="272" y="343" type="curve" smooth="yes"/>
      <point x="373" y="309"/>
      <point x="417" y="271"/>
      <point x="417" y="200" type="curve" smooth="yes"/>
      <point x="417" y="119"/>
      <point x="370" y="18"/>
      <point x="213" y="18" type="curve" smooth="yes"/>
      <point x="141" y="18"/>
      <point x="84" y="47"/>
      <point x="44" y="88" type="curve"/>
      <point x="23" y="70" type="line"/>
      <point x="70" y="23"/>
      <point x="135" y="-10"/>
      <point x="214" y="-10" type="curve" smooth="yes"/>
      <point x="385" y="-10"/>
      <point x="447" y="103"/>
      <point x="447" y="202" type="curve" smooth="yes"/>
      <point x="447" y="287"/>
      <point x="393" y="334"/>
      <point x="281" y="370" type="curve" smooth="yes"/>
      <point x="182" y="402"/>
      <point x="140" y="436"/>
      <point x="140" y="504" type="curve" smooth="yes"/>
      <point x="140" y="592"/>
      <point x="211" y="644"/>
      <point x="312" y="644" type="curve" smooth="yes"/>
      <point x="370" y="644"/>
      <point x="418" y="626"/>
      <point x="462" y="581" type="curve"/>
      <point x="484" y="600" type="line"/>
      <point x="438" y="643"/>
      <point x="388" y="671"/>
      <point x="312" y="671" type="curve" smooth="yes"/>
    </contour>
  </outline>
</glyph>
<glyph name="percent" format="1">
  <advance width="766"/>
  <unicode hex="0025"/>
  <outline>
    <contour>
      <point x="107" y="-2" type="line"/>
      <point x="131" y="-18" type="line"/>
      <point x="692" y="681" type="line"/>
      <point x="668" y="697" type="line"/>
    </contour>
    <contour>
      <point x="321" y="648"/>
      <point x="346" y="604"/>
      <point x="346" y="548" type="curve" smooth="yes"/>
      <point x="346" y="493"/>
      <point x="318" y="385"/>
      <point x="215" y="385" type="curve"/>
      <point x="151" y="385"/>
      <point x="125" y="428"/>
      <point x="125" y="484" type="curve" smooth="yes"/>
      <point x="125" y="541"/>
      <point x="151" y="648"/>
      <point x="256" y="648" type="curve"/>
    </contour>
    <contour>
      <point x="136" y="674"/>
      <point x="94" y="562"/>
      <point x="94" y="487" type="curve" smooth="yes"/>
      <point x="94" y="408"/>
      <point x="140" y="359"/>
      <point x="215" y="359" type="curve"/>
      <point x="334" y="359"/>
      <point x="376" y="471"/>
      <point x="376" y="546" type="curve" smooth="yes"/>
      <point x="376" y="625"/>
      <point x="330" y="674"/>
      <point x="255" y="674" type="curve"/>
    </contour>
    <contour>
      <point x="637" y="279"/>
      <point x="662" y="235"/>
      <point x="662" y="179" type="curve" smooth="yes"/>
      <point x="662" y="124"/>
      <point x="634" y="16"/>
      <point x="531" y="16" type="curve"/>
      <point x="467" y="16"/>
      <point x="441" y="59"/>
      <point x="441" y="115" type="curve" smooth="yes"/>
      <point x="441" y="172"/>
      <point x="467" y="279"/>
      <point x="572" y="279" type="curve"/>
    </contour>
    <contour>
      <point x="452" y="305"/>
      <point x="410" y="193"/>
      <point x="410" y="118" type="curve" smooth="yes"/>
      <point x="410" y="39"/>
      <point x="456" y="-10"/>
      <point x="531" y="-10" type="curve"/>
      <point x="650" y="-10"/>
      <point x="692" y="102"/>
      <point x="692" y="177" type="curve" smooth="yes"/>
      <point x="692" y="256"/>
      <point x="646" y="305"/>
      <point x="571" y="305" type="curve"/>
    </contour>
  </outline>
</glyph>
<glyph name="ampersand" format="1">
  <advance width="727"/>
  <unicode hex="0026"/>
  <outline>
    <contour>
      <point x="254" y="692"/>
      <point x="181" y="629"/>
      <point x="181" y="528" type="curve" smooth="yes"/>
      <point x="181" y="475"/>
      <point x="209" y="426"/>
      <point x="260" y="368" type="curve"/>
      <point x="126" y="302"/>
      <point x="87" y="235"/>
      <point x="87" y="151" type="curve" smooth="yes"/>
      <point x="87" y="59"/>
      <point x="160" y="-10"/>
      <point x="260" y="-10" type="curve" smooth="yes"/>
      <point x="372" y="-10"/>
      <point x="442" y="40"/>
      <point x="501" y="106" type="curve"/>
      <point x="605" y="-9" type="line"/>
      <point x="632" y="8" type="line"/>
      <point x="520" y="129" type="line"/>
      <point x="564" y="193"/>
      <point x="596" y="258"/>
      <point x="626" y="326" type="curve"/>
      <point x="599" y="337" type="line"/>
      <point x="571" y="273"/>
      <point x="543" y="215"/>
      <point x="502" y="149" type="curve"/>
      <point x="304" y="361" type="line"/>
      <point x="459" y="440"/>
      <point x="498" y="489"/>
      <point x="498" y="566" type="curve" smooth="yes"/>
      <point x="498" y="638"/>
      <point x="438" y="692"/>
      <point x="351" y="692" type="curve" smooth="yes"/>
    </contour>
    <contour>
      <point x="482" y="126" type="line"/>
      <point x="425" y="61"/>
      <point x="360" y="18"/>
      <point x="260" y="18" type="curve" smooth="yes"/>
      <point x="174" y="18"/>
      <point x="118" y="78"/>
      <point x="118" y="150" type="curve" smooth="yes"/>
      <point x="118" y="219"/>
      <point x="153" y="288"/>
      <point x="278" y="349" type="curve"/>
    </contour>
    <contour>
      <point x="415" y="665"/>
      <point x="467" y="628"/>
      <point x="467" y="566" type="curve" smooth="yes"/>
      <point x="467" y="499"/>
      <point x="435" y="454"/>
      <point x="286" y="380" type="curve"/>
      <point x="225" y="448"/>
      <point x="211" y="490"/>
      <point x="211" y="528" type="curve" smooth="yes"/>
      <point x="211" y="589"/>
      <point x="246" y="665"/>
      <point x="351" y="665" type="curve" smooth="yes"/>
    </contour>
  </outline>
</glyph>
<glyph name="quotesingle" format="1">
  <advance width="192"/>
  <unicode hex="0027"/>
  <outline>
    <contour>
      <point x="133" y="439" type="line"/>
      <point x="171" y="682" type="line"/>
      <point x="139" y="682" type="line"/>
      <point x="109" y="439" type="line"/>
    </contour>
  </outline>
</glyph>
<glyph name="parenleft" format="1">
  <advance width="324"/>
  <unicode hex="0028"/>
  <outline>
    <contour>
      <point x="204" y="697"/>
      <point x="110" y="580"/>
      <point x="78" y="352" type="curve"/>
      <point x="46" y="122"/>
      <point x="107" y="5"/>
      <point x="184" y="-130" type="curve"/>
      <point x="206" y="-120" type="line"/>
      <point x="135" y="11"/>
      <point x="77" y="129"/>
      <point x="107" y="348" type="curve"/>
      <point x="138" y="569"/>
      <point x="230" y="687"/>
      <point x="337" y="818" type="curve"/>
      <point x="318" y="832" type="line"/>
    </contour>
  </outline>
</glyph>
<glyph name="parenright" format="1">
  <advance width="324"/>
  <unicode hex="0029"/>
  <outline>
    <contour>
      <point x="144" y="820" type="line"/>
      <point x="214" y="689"/>
      <point x="273" y="571"/>
      <point x="242" y="352" type="curve"/>
      <point x="211" y="131"/>
      <point x="119" y="13"/>
      <point x="12" y="-118" type="curve"/>
      <point x="31" y="-132" type="line"/>
      <point x="145" y="3"/>
      <point x="239" y="120"/>
      <point x="271" y="348" type="curve"/>
      <point x="304" y="578"/>
      <point x="242" y="695"/>
      <point x="165" y="830" type="curve"/>
    </contour>
  </outline>
</glyph>
<glyph name="asterisk" format="1">
  <advance width="433"/>
  <unicode hex="002A"/>
  <outline>
    <contour>
      <point x="255" y="542" type="line"/>
      <point x="329" y="408" type="line"/>
      <point x="355" y="426" type="line"/>
      <point x="276" y="557" type="line"/>
      <point x="259" y="559" type="line"/>
    </contour>
    <contour>
      <point x="269" y="734" type="line"/>
      <point x="248" y="570" type="line"/>
      <point x="259" y="559" type="line"/>
      <point x="273" y="569" type="line"/>
      <point x="299" y="734" type="line"/>
    </contour>
    <contour>
      <point x="269" y="573" type="line"/>
      <point x="259" y="559" type="line"/>
      <point x="273" y="552" type="line"/>
      <point x="436" y="599" type="line"/>
      <point x="430" y="627" type="line"/>
    </contour>
    <contour>
      <point x="93" y="599" type="line"/>
      <point x="243" y="551" type="line"/>
      <point x="259" y="559" type="line"/>
      <point x="251" y="572" type="line"/>
      <point x="104" y="625" type="line"/>
    </contour>
    <contour>
      <point x="241" y="555" type="line"/>
      <point x="124" y="426" type="line"/>
      <point x="148" y="408" type="line"/>
      <point x="260" y="542" type="line"/>
      <point x="259" y="559" type="line"/>
    </contour>
  </outline>
</glyph>
<glyph name="plus" format="1">
  <advance width="488"/>
  <unicode hex="002B"/>
  <outline>
    <contour>
      <point x="263" y="499" type="line"/>
      <point x="241" y="345" type="line"/>
      <point x="87" y="345" type="line"/>
      <point x="83" y="316" type="line"/>
      <point x="237" y="316" type="line"/>
      <point x="215" y="162" type="line"/>
      <point x="246" y="162" type="line"/>
      <point x="268" y="316" type="line"/>
      <point x="421" y="316" type="line"/>
      <point x="425" y="345" type="line"/>
      <point x="272" y="345" type="line"/>
      <point x="294" y="499" type="line"/>
    </contour>
  </outline>
</glyph>
<glyph name="comma" format="1">
  <advance width="180"/>
  <unicode hex="002C"/>
  <outline>
    <contour>
      <point x="38" y="49"/>
      <point x="24" y="35"/>
      <point x="24" y="18" type="curve" smooth="yes"/>
      <point x="24" y="6"/>
      <point x="29" y="-3"/>
      <point x="39" y="-7" type="curve"/>
      <point x="-20" y="-139" type="line"/>
      <point x="3" y="-139" type="line"/>
      <point x="67" y="-23" type="line" smooth="yes"/>
      <point x="78" y="-3"/>
      <point x="84" y="9"/>
      <point x="84" y="21" type="curve" smooth="yes"/>
      <point x="84" y="37"/>
      <point x="74" y="49"/>
      <point x="56" y="49" type="curve" smooth="yes"/>
    </contour>
  </outline>
</glyph>
<glyph name="hyphen" format="1">
  <advance width="399"/>
  <unicode hex="002D"/>
  <outline>
    <contour>
      <point x="329" y="299" type="line"/>
      <point x="333" y="327" type="line"/>
      <point x="84" y="327" type="line"/>
      <point x="80" y="299" type="line"/>
    </contour>
  </outline>
</glyph>
<glyph name="period" format="1">
  <advance width="180"/>
  <unicode hex="002E"/>
  <outline>
    <contour>
      <point x="38" y="49"/>
      <point x="24" y="36"/>
      <point x="24" y="17" type="curve" smooth="yes"/>
      <point x="24" y="2"/>
      <point x="35" y="-10"/>
      <point x="52" y="-10" type="curve" smooth="yes"/>
      <point x="71" y="-10"/>
      <point x="84" y="3"/>
      <point x="84" y="21" type="curve" smooth="yes"/>
      <point x="84" y="37"/>
      <point x="74" y="49"/>
      <point x="56" y="49" type="curve" smooth="yes"/>
    </contour>
  </outline>
</glyph>
<glyph name="slash" format="1">
  <advance width="520"/>
  <unicode hex="002F"/>
  <outline>
    <contour>
      <point x="81" y="-89" type="line"/>
      <point x="107" y="-96" type="line"/>
      <point x="464" y="792" type="line"/>
      <point x="438" y="799" type="line"/>
    </contour>
  </outline>
</glyph>
<glyph name="zero" format="1">
  <advance width="543"/>
  <unicode hex="0030"/>
  <outline>
    <contour>
      <point x="133" y="674"/>
      <point x="76" y="387"/>
      <point x="76" y="219" type="curve" smooth="yes"/>
      <point x="76" y="67"/>
      <point x="133" y="-10"/>
      <point x="236" y="-10" type="curve" smooth="yes"/>
      <point x="430" y="-10"/>
      <point x="487" y="273"/>
      <point x="487" y="445" type="curve" smooth="yes"/>
      <point x="487" y="598"/>
      <point x="431" y="674"/>
      <point x="328" y="674" type="curve" smooth="yes"/>
    </contour>
    <contour>
      <point x="412" y="646"/>
      <point x="456" y="581"/>
      <point x="456" y="450" type="curve" smooth="yes"/>
      <point x="456" y="415"/>
      <point x="453" y="376"/>
      <point x="447" y="332" type="curve" smooth="yes"/>
      <point x="417" y="120"/>
      <point x="343" y="18"/>
      <point x="236" y="18" type="curve" smooth="yes"/>
      <point x="152" y="18"/>
      <point x="107" y="83"/>
      <point x="107" y="215" type="curve" smooth="yes"/>
      <point x="107" y="249"/>
      <point x="110" y="287"/>
      <point x="116" y="330" type="curve" smooth="yes"/>
      <point x="146" y="543"/>
      <point x="222" y="646"/>
      <point x="328" y="646" type="curve" smooth="yes"/>
    </contour>
  </outline>
</glyph>
<glyph name="one" format="1">
  <advance width="396"/>
  <unicode hex="0031"/>
  <outline>
    <contour>
      <point x="298" y="662" type="line"/>
      <point x="89" y="542" type="line"/>
      <point x="102" y="517" type="line"/>
      <point x="287" y="625" type="line"/>
      <point x="199" y="0" type="line"/>
      <point x="229" y="0" type="line"/>
      <point x="322" y="662" type="line"/>
    </contour>
  </outline>
</glyph>
<glyph name="two" format="1">
  <advance width="465"/>
  <unicode hex="0032"/>
  <outline>
    <contour>
      <point x="201" y="674"/>
      <point x="144" y="648"/>
      <point x="85" y="586" type="curve"/>
      <point x="107" y="567" type="line"/>
      <point x="152" y="614"/>
      <point x="202" y="646"/>
      <point x="272" y="646" type="curve" smooth="yes"/>
      <point x="350" y="646"/>
      <point x="398" y="602"/>
      <point x="398" y="525" type="curve" smooth="yes"/>
      <point x="398" y="425"/>
      <point x="355" y="352"/>
      <point x="13" y="30" type="curve"/>
      <point x="9" y="0" type="line"/>
      <point x="367" y="0" type="line"/>
      <point x="378" y="30" type="line"/>
      <point x="53" y="29" type="line"/>
      <point x="373" y="333"/>
      <point x="429" y="413"/>
      <point x="429" y="526" type="curve" smooth="yes"/>
      <point x="429" y="615"/>
      <point x="373" y="674"/>
      <point x="273" y="674" type="curve" smooth="yes"/>
    </contour>
  </outline>
</glyph>
<glyph name="three" format="1">
  <advance width="476"/>
  <unicode hex="0033"/>
  <outline>
    <contour>
      <point x="200" y="674"/>
      <point x="145" y="648"/>
      <point x="90" y="601" type="curve"/>
      <point x="107" y="580" type="line"/>
      <point x="164" y="627"/>
      <point x="212" y="648"/>
      <point x="272" y="648" type="curve" smooth="yes"/>
      <point x="348" y="648"/>
      <point x="395" y="605"/>
      <point x="395" y="536" type="curve" smooth="yes"/>
      <point x="395" y="457"/>
      <point x="339" y="365"/>
      <point x="223" y="365" type="curve" smooth="yes"/>
      <point x="192" y="365" type="line"/>
      <point x="184" y="338" type="line"/>
      <point x="224" y="338" type="line" smooth="yes"/>
      <point x="311" y="338"/>
      <point x="366" y="300"/>
      <point x="366" y="208" type="curve" smooth="yes"/>
      <point x="366" y="136"/>
      <point x="325" y="18"/>
      <point x="170" y="18" type="curve" smooth="yes"/>
      <point x="109" y="18"/>
      <point x="63" y="35"/>
      <point x="22" y="91" type="curve"/>
      <point x="-1" y="74" type="line"/>
      <point x="41" y="19"/>
      <point x="93" y="-10"/>
      <point x="171" y="-10" type="curve" smooth="yes"/>
      <point x="337" y="-10"/>
      <point x="397" y="117"/>
      <point x="397" y="206" type="curve" smooth="yes"/>
      <point x="397" y="303"/>
      <point x="341" y="352"/>
      <point x="267" y="353" type="curve"/>
      <point x="379" y="366"/>
      <point x="426" y="461"/>
      <point x="426" y="535" type="curve" smooth="yes"/>
      <point x="426" y="617"/>
      <point x="370" y="674"/>
      <point x="273" y="674" type="curve" smooth="yes"/>
    </contour>
  </outline>
</glyph>
<glyph name="four" format="1">
  <advance width="507"/>
  <unicode hex="0034"/>
  <outline>
    <contour>
      <point x="43" y="208" type="line"/>
      <point x="39" y="183" type="line"/>
      <point x="456" y="183" type="line"/>
      <point x="460" y="211" type="line"/>
      <point x="76" y="211" type="line"/>
      <point x="337" y="663" type="line"/>
      <point x="311" y="674" type="line"/>
    </contour>
    <contour>
      <point x="371" y="418" type="line"/>
      <point x="337" y="204" type="line"/>
      <point x="308" y="0" type="line"/>
      <point x="338" y="0" type="line"/>
      <point x="397" y="418" type="line"/>
    </contour>
  </outline>
</glyph>
<glyph name="five" format="1">
  <advance width="475"/>
  <unicode hex="0035"/>
  <outline>
    <contour>
      <point x="142" y="662" type="line"/>
      <point x="99" y="351" type="line"/>
      <point x="124" y="351" type="line"/>
      <point x="168" y="377"/>
      <point x="201" y="390"/>
      <point x="254" y="390" type="curve" smooth="yes"/>
      <point x="333" y="390"/>
      <point x="385" y="336"/>
      <point x="385" y="244" type="curve" smooth="yes"/>
      <point x="385" y="156"/>
      <point x="333" y="18"/>
      <point x="185" y="18" type="curve" smooth="yes"/>
      <point x="115" y="18"/>
      <point x="72" y="41"/>
      <point x="36" y="85" type="curve"/>
      <point x="13" y="67" type="line"/>
      <point x="53" y="19"/>
      <point x="105" y="-10"/>
      <point x="184" y="-10" type="curve" smooth="yes"/>
      <point x="355" y="-10"/>
      <point x="416" y="143"/>
      <point x="416" y="244" type="curve" smooth="yes"/>
      <point x="416" y="347"/>
      <point x="357" y="417"/>
      <point x="255" y="417" type="curve" smooth="yes"/>
      <point x="202" y="417"/>
      <point x="163" y="400"/>
      <point x="132" y="381" type="curve"/>
      <point x="169" y="634" type="line"/>
      <point x="446" y="634" type="line"/>
      <point x="455" y="662" type="line"/>
    </contour>
  </outline>
</glyph>
<glyph name="six" format="1">
  <advance width="514"/>
  <unicode hex="0036"/>
  <outline>
    <contour>
      <point x="218" y="674"/>
      <point x="111" y="532"/>
      <point x="77" y="291" type="curve" smooth="yes"/>
      <point x="73" y="261"/>
      <point x="70" y="232"/>
      <point x="70" y="204" type="curve" smooth="yes"/>
      <point x="70" y="82"/>
      <point x="115" y="-10"/>
      <point x="237" y="-10" type="curve" smooth="yes"/>
      <point x="393" y="-10"/>
      <point x="454" y="157"/>
      <point x="454" y="266" type="curve" smooth="yes"/>
      <point x="454" y="375"/>
      <point x="388" y="428"/>
      <point x="304" y="428" type="curve" smooth="yes"/>
      <point x="220" y="428"/>
      <point x="152" y="382"/>
      <point x="105" y="312" type="curve"/>
      <point x="99" y="264" type="line"/>
      <point x="155" y="347"/>
      <point x="222" y="401"/>
      <point x="303" y="401" type="curve" smooth="yes"/>
      <point x="372" y="401"/>
      <point x="423" y="357"/>
      <point x="423" y="265" type="curve" smooth="yes"/>
      <point x="423" y="179"/>
      <point x="376" y="18"/>
      <point x="237" y="18" type="curve" smooth="yes"/>
      <point x="138" y="18"/>
      <point x="101" y="91"/>
      <point x="101" y="201" type="curve" smooth="yes"/>
      <point x="101" y="229"/>
      <point x="103" y="259"/>
      <point x="107" y="291" type="curve"/>
      <point x="108" y="306" type="line"/>
      <point x="137" y="498"/>
      <point x="230" y="647"/>
      <point x="357" y="647" type="curve" smooth="yes"/>
      <point x="395" y="647"/>
      <point x="422" y="635"/>
      <point x="449" y="614" type="curve"/>
      <point x="467" y="636" type="line"/>
      <point x="437" y="659"/>
      <point x="407" y="674"/>
      <point x="358" y="674" type="curve"/>
    </contour>
  </outline>
</glyph>
<glyph name="seven" format="1">
  <advance width="431"/>
  <unicode hex="0037"/>
  <outline>
    <contour>
      <point x="91" y="662" type="line"/>
      <point x="88" y="634" type="line"/>
      <point x="408" y="634" type="line"/>
      <point x="54" y="4" type="line"/>
      <point x="83" y="-6" type="line"/>
      <point x="444" y="637" type="line"/>
      <point x="447" y="662" type="line"/>
    </contour>
  </outline>
</glyph>
<glyph name="nine" format="1">
  <advance width="512"/>
  <unicode hex="0039"/>
  <outline>
    <contour>
      <point x="437" y="402" type="line"/>
      <point x="377" y="325"/>
      <point x="317" y="281"/>
      <point x="241" y="281" type="curve" smooth="yes"/>
      <point x="163" y="281"/>
      <point x="116" y="336"/>
      <point x="116" y="426" type="curve" smooth="yes"/>
      <point x="116" y="513"/>
      <point x="162" y="647"/>
      <point x="309" y="647" type="curve" smooth="yes"/>
      <point x="400" y="647"/>
      <point x="437" y="583"/>
      <point x="437" y="478" type="curve" smooth="yes"/>
      <point x="437" y="451"/>
      <point x="436" y="424"/>
      <point x="432" y="391" type="curve"/>
      <point x="430" y="368" type="line"/>
      <point x="392" y="160"/>
      <point x="270" y="67"/>
      <point x="81" y="8" type="curve"/>
      <point x="88" y="-17" type="line"/>
      <point x="398" y="67"/>
      <point x="468" y="275"/>
      <point x="468" y="479" type="curve" smooth="yes"/>
      <point x="468" y="599"/>
      <point x="418" y="674"/>
      <point x="308" y="674" type="curve" smooth="yes"/>
      <point x="147" y="674"/>
      <point x="85" y="532"/>
      <point x="85" y="428" type="curve" smooth="yes"/>
      <point x="85" y="321"/>
      <point x="147" y="253"/>
      <point x="238" y="253" type="curve" smooth="yes"/>
      <point x="313" y="253"/>
      <point x="382" y="293"/>
      <point x="438" y="368" type="curve"/>
    </contour>
  </outline>
</glyph>
<glyph name="less" format="1">
  <advance width="494"/>
  <unicode hex="003C"/>
  <outline>
    <contour>
      <point x="87" y="344" type="line"/>
      <point x="84" y="322" type="line"/>
      <point x="392" y="152" type="line"/>
      <point x="407" y="178" type="line"/>
      <point x="119" y="333" type="line"/>
      <point x="450" y="484" type="line"/>
      <point x="442" y="510" type="line"/>
    </contour>
  </outline>
</glyph>
<glyph name="greater" format="1">
  <advance width="494"/>
  <unicode hex="003E"/>
  <outline>
    <contour>
      <point x="106" y="484" type="line"/>
      <point x="395" y="333" type="line"/>
      <point x="63" y="178" type="line"/>
      <point x="72" y="152" type="line"/>
      <point x="428" y="322" type="line"/>
      <point x="431" y="344" type="line"/>
      <point x="122" y="510" type="line"/>
    </contour>
  </outline>
</glyph>
<glyph name="question" format="1">
  <advance width="438"/>
  <unicode hex="003F"/>
  <outline>
    <contour>
      <point x="215" y="692"/>
      <point x="159" y="665"/>
      <point x="99" y="606" type="curve"/>
      <point x="119" y="587" type="line"/>
      <point x="174" y="639"/>
      <point x="220" y="665"/>
      <point x="290" y="665" type="curve" smooth="yes"/>
      <point x="358" y="665"/>
      <point x="399" y="628"/>
      <point x="399" y="573" type="curve" smooth="yes"/>
      <point x="399" y="422"/>
      <point x="174" y="421"/>
      <point x="174" y="272" type="curve" smooth="yes"/>
      <point x="174" y="253"/>
      <point x="178" y="233"/>
      <point x="184" y="214" type="curve"/>
      <point x="211" y="221" type="line"/>
      <point x="208" y="234"/>
      <point x="204" y="250"/>
      <point x="204" y="272" type="curve" smooth="yes"/>
      <point x="204" y="404"/>
      <point x="430" y="405"/>
      <point x="430" y="574" type="curve" smooth="yes"/>
      <point x="430" y="642"/>
      <point x="380" y="692"/>
      <point x="290" y="692" type="curve" smooth="yes"/>
    </contour>
    <component base="period" xOffset="129" yOffset="-1"/>
  </outline>
</glyph>
<glyph name="at" format="1">
  <advance width="1020"/>
  <unicode hex="0040"/>
  <outline>
    <contour>
      <point x="221" y="692"/>
      <point x="89" y="389"/>
      <point x="89" y="174" type="curve" smooth="yes"/>
      <point x="89" y="-56"/>
      <point x="249" y="-199"/>
      <point x="471" y="-199" type="curve" smooth="yes"/>
      <point x="558" y="-199"/>
      <point x="613" y="-184"/>
      <point x="670" y="-165" type="curve"/>
      <point x="664" y="-138" type="line"/>
      <point x="606" y="-159"/>
      <point x="549" y="-171"/>
      <point x="472" y="-171" type="curve" smooth="yes"/>
      <point x="264" y="-171"/>
      <point x="119" y="-39"/>
      <point x="119" y="175" type="curve" smooth="yes"/>
      <point x="119" y="377"/>
      <point x="245" y="664"/>
      <point x="575" y="664" type="curve" smooth="yes"/>
      <point x="788" y="664"/>
      <point x="903" y="535"/>
      <point x="903" y="357" type="curve" smooth="yes"/>
      <point x="903" y="220"/>
      <point x="852" y="41"/>
      <point x="722" y="41" type="curve" smooth="yes"/>
      <point x="645" y="41"/>
      <point x="642" y="121"/>
      <point x="650" y="186" type="curve" smooth="yes"/>
      <point x="685" y="444" type="line"/>
      <point x="650" y="462"/>
      <point x="605" y="478"/>
      <point x="553" y="478" type="curve" smooth="yes"/>
      <point x="381" y="478"/>
      <point x="315" y="305"/>
      <point x="315" y="185" type="curve" smooth="yes"/>
      <point x="315" y="73"/>
      <point x="377" y="17"/>
      <point x="455" y="17" type="curve" smooth="yes"/>
      <point x="524" y="17"/>
      <point x="578" y="56"/>
      <point x="620" y="129" type="curve"/>
      <point x="623" y="59"/>
      <point x="661" y="15"/>
      <point x="723" y="15" type="curve" smooth="yes"/>
      <point x="872" y="15"/>
      <point x="934" y="200"/>
      <point x="934" y="358" type="curve" smooth="yes"/>
      <point x="934" y="546"/>
      <point x="812" y="692"/>
      <point x="575" y="692" type="curve" smooth="yes"/>
    </contour>
    <contour>
      <point x="391" y="45"/>
      <point x="346" y="90"/>
      <point x="346" y="181" type="curve" smooth="yes"/>
      <point x="346" y="283"/>
      <point x="397" y="450"/>
      <point x="554" y="450" type="curve" smooth="yes"/>
      <point x="593" y="450"/>
      <point x="622" y="441"/>
      <point x="654" y="425" type="curve"/>
      <point x="617" y="170" type="line"/>
      <point x="588" y="103"/>
      <point x="527" y="45"/>
      <point x="457" y="45" type="curve" smooth="yes"/>
    </contour>
  </outline>
</glyph>
<glyph name="A" format="1">
  <advance width="558"/>
  <unicode hex="0041"/>
  <outline>
    <contour>
      <point x="319" y="682" type="line"/>
      <point x="-12" y="0" type="line"/>
      <point x="20" y="0" type="line"/>
      <point x="335" y="657" type="line"/>
      <point x="464" y="0" type="line"/>
      <point x="496" y="0" type="line"/>
      <point x="357" y="682" type="line"/>
    </contour>
    <contour>
      <point x="119" y="228" type="line"/>
      <point x="103" y="199" type="line"/>
      <point x="435" y="199" type="line"/>
      <point x="430" y="228" type="line"/>
    </contour>
    <contour>
      <point x="506" y="0" type="move" name="ogonek"/>
    </contour>
    <contour>
      <point x="338" y="682" type="move" name="top"/>
    </contour>
    <contour>
      <point x="229" y="682" type="move" name="topleft"/>
    </contour>
    <contour>
      <point x="242" y="0" type="move" name="bottom"/>
    </contour>
  </outline>
</glyph>
<glyph name="B" format="1">
  <advance width="589"/>
  <unicode hex="0042"/>
  <outline>
    <contour>
      <point x="179" y="682" type="line"/>
      <point x="83" y="0" type="line"/>
      <point x="268" y="0" type="line" smooth="yes"/>
      <point x="466" y="0"/>
      <point x="521" y="121"/>
      <point x="521" y="216" type="curve" smooth="yes"/>
      <point x="521" y="311"/>
      <point x="460" y="353"/>
      <point x="379" y="361" type="curve"/>
      <point x="474" y="374"/>
      <point x="532" y="440"/>
      <point x="532" y="534" type="curve" smooth="yes"/>
      <point x="532" y="634"/>
      <point x="455" y="682"/>
      <point x="332" y="682" type="curve" smooth="yes"/>
    </contour>
    <contour>
      <point x="438" y="653"/>
      <point x="501" y="617"/>
      <point x="501" y="533" type="curve" smooth="yes"/>
      <point x="501" y="453"/>
      <point x="449" y="374"/>
      <point x="324" y="374" type="curve" smooth="yes"/>
      <point x="160" y="374" type="line"/>
      <point x="156" y="346" type="line"/>
      <point x="331" y="346" type="line" smooth="yes"/>
      <point x="427" y="346"/>
      <point x="489" y="305"/>
      <point x="489" y="217" type="curve" smooth="yes"/>
      <point x="489" y="132"/>
      <point x="444" y="29"/>
      <point x="272" y="29" type="curve" smooth="yes"/>
      <point x="119" y="29" type="line"/>
      <point x="206" y="653" type="line"/>
      <point x="334" y="653" type="line" smooth="yes"/>
    </contour>
    <contour>
      <point x="338" y="682" type="move" name="top"/>
    </contour>
  </outline>
</glyph>
<glyph name="C" format="1">
  <advance width="541"/>
  <unicode hex="0043"/>
  <outline>
    <contour>
      <point x="166" y="692"/>
      <point x="80" y="440"/>
      <point x="80" y="259" type="curve" smooth="yes"/>
      <point x="80" y="83"/>
      <point x="173" y="-10"/>
      <point x="305" y="-10" type="curve" smooth="yes"/>
      <point x="382" y="-10"/>
      <point x="439" y="16"/>
      <point x="488" y="54" type="curve"/>
      <point x="470" y="78" type="line"/>
      <point x="425" y="44"/>
      <point x="382" y="20"/>
      <point x="306" y="20" type="curve" smooth="yes"/>
      <point x="192" y="20"/>
      <point x="111" y="99"/>
      <point x="111" y="260" type="curve" smooth="yes"/>
      <point x="111" y="425"/>
      <point x="187" y="663"/>
      <point x="404" y="663" type="curve" smooth="yes"/>
      <point x="464" y="663"/>
      <point x="499" y="648"/>
      <point x="541" y="611" type="curve"/>
      <point x="560" y="633" type="line"/>
      <point x="520" y="669"/>
      <point x="477" y="692"/>
      <point x="403" y="692" type="curve" smooth="yes"/>
    </contour>
    <contour>
      <point x="400" y="682" type="move" name="top"/>
    </contour>
    <contour>
      <point x="303" y="0" type="move" name="bottom"/>
    </contour>
  </outline>
</glyph>
<glyph name="D" format="1">
  <advance width="622"/>
  <unicode hex="0044"/>
  <outline>
    <contour>
      <point x="179" y="682" type="line"/>
      <point x="83" y="0" type="line"/>
      <point x="216" y="0" type="line" smooth="yes"/>
      <point x="476" y="0"/>
      <point x="565" y="222"/>
      <point x="565" y="429" type="curve" smooth="yes"/>
      <point x="565" y="638"/>
      <point x="437" y="682"/>
      <point x="307" y="682" type="curve" smooth="yes"/>
    </contour>
    <contour>
      <point x="416" y="653"/>
      <point x="534" y="623"/>
      <point x="534" y="430" type="curve" smooth="yes"/>
      <point x="534" y="240"/>
      <point x="457" y="29"/>
      <point x="220" y="29" type="curve" smooth="yes"/>
      <point x="119" y="29" type="line"/>
      <point x="206" y="653" type="line"/>
      <point x="302" y="653" type="line" smooth="yes"/>
    </contour>
    <contour>
      <point x="328" y="341" type="move" name="center"/>
    </contour>
    <contour>
      <point x="252" y="0" type="move" name="bottom"/>
    </contour>
    <contour>
      <point x="356" y="682" type="move" name="top"/>
    </contour>
  </outline>
</glyph>
<glyph name="E" format="1">
  <advance width="493"/>
  <unicode hex="0045"/>
  <outline>
    <contour>
      <point x="179" y="682" type="line"/>
      <point x="83" y="0" type="line"/>
      <point x="416" y="0" type="line"/>
      <point x="421" y="29" type="line"/>
      <point x="119" y="29" type="line"/>
      <point x="163" y="345" type="line"/>
      <point x="415" y="345" type="line"/>
      <point x="419" y="373" type="line"/>
      <point x="167" y="373" type="line"/>
      <point x="206" y="653" type="line"/>
      <point x="498" y="653" type="line"/>
      <point x="506" y="682" type="line"/>
    </contour>
    <contour>
      <point x="401" y="0" type="move" name="ogonek"/>
    </contour>
    <contour>
      <point x="347" y="682" type="move" name="top"/>
    </contour>
    <contour>
      <point x="149" y="682" type="move" name="topleft"/>
    </contour>
    <contour>
      <point x="246" y="0" type="move" name="bottom"/>
    </contour>
  </outline>
</glyph>
<glyph name="F" format="1">
  <advance width="472"/>
  <unicode hex="0046"/>
  <outline>
    <contour>
      <point x="179" y="682" type="line"/>
      <point x="83" y="0" type="line"/>
      <point x="114" y="0" type="line"/>
      <point x="161" y="331" type="line"/>
      <point x="409" y="331" type="line"/>
      <point x="413" y="359" type="line"/>
      <point x="165" y="359" type="line"/>
      <point x="206" y="653" type="line"/>
      <point x="493" y="653" type="line"/>
      <point x="501" y="682" type="line"/>
    </contour>
    <contour>
      <point x="340" y="682" type="move" name="top"/>
    </contour>
    <contour>
      <point x="199" y="0" type="move" name="bottom"/>
    </contour>
  </outline>
</glyph>
<glyph name="G" format="1">
  <advance width="607"/>
  <unicode hex="0047"/>
  <outline>
    <contour>
      <point x="189" y="692"/>
      <point x="80" y="464"/>
      <point x="80" y="260" type="curve" smooth="yes"/>
      <point x="80" y="81"/>
      <point x="172" y="-10"/>
      <point x="316" y="-10" type="curve" smooth="yes"/>
      <point x="378" y="-10"/>
      <point x="446" y="8"/>
      <point x="507" y="41" type="curve"/>
      <point x="551" y="359" type="line"/>
      <point x="373" y="359" type="line"/>
      <point x="374" y="330" type="line"/>
      <point x="516" y="330" type="line"/>
      <point x="477" y="58" type="line"/>
      <point x="428" y="33"/>
      <point x="381" y="19"/>
      <point x="316" y="19" type="curve" smooth="yes"/>
      <point x="191" y="19"/>
      <point x="112" y="97"/>
      <point x="112" y="258" type="curve" smooth="yes"/>
      <point x="112" y="451"/>
      <point x="206" y="663"/>
      <point x="406" y="663" type="curve" smooth="yes"/>
      <point x="468" y="663"/>
      <point x="512" y="647"/>
      <point x="553" y="610" type="curve"/>
      <point x="574" y="631" type="line"/>
      <point x="526" y="672"/>
      <point x="474" y="692"/>
      <point x="406" y="692" type="curve" smooth="yes"/>
    </contour>
    <contour>
      <point x="407" y="682" type="move" name="top"/>
    </contour>
    <contour>
      <point x="299" y="0" type="move" name="bottom"/>
    </contour>
  </outline>
</glyph>
<glyph name="H" format="1">
  <advance width="662"/>
  <unicode hex="0048"/>
  <outline>
    <contour>
      <point x="505" y="0" type="line"/>
      <point x="601" y="682" type="line"/>
      <point x="570" y="682" type="line"/>
      <point x="527" y="374" type="line"/>
      <point x="167" y="374" type="line"/>
      <point x="210" y="682" type="line"/>
      <point x="179" y="682" type="line"/>
      <point x="83" y="0" type="line"/>
      <point x="114" y="0" type="line"/>
      <point x="163" y="345" type="line"/>
      <point x="523" y="345" type="line"/>
      <point x="474" y="0" type="line"/>
    </contour>
    <contour>
      <point x="388" y="682" type="move" name="top"/>
    </contour>
    <contour>
      <point x="88" y="520" type="move" name="topleft"/>
    </contour>
    <contour>
      <point x="515" y="0" type="move" name="bottomright"/>
    </contour>
    <contour>
      <point x="340" y="341" type="move" name="center"/>
    </contour>
  </outline>
</glyph>
<glyph name="I" format="1">
  <advance width="271"/>
  <unicode hex="0049"/>
  <outline>
    <contour>
      <point x="179" y="682" type="line"/>
      <point x="83" y="0" type="line"/>
      <point x="114" y="0" type="line"/>
      <point x="210" y="682" type="line"/>
    </contour>
    <contour>
      <point x="114" y="0" type="move" name="ogonek"/>
    </contour>
    <contour>
      <point x="195" y="682" type="move" name="top"/>
    </contour>
    <contour>
      <point x="149" y="682" type="move" name="topleft"/>
    </contour>
    <contour>
      <point x="99" y="0" type="move" name="bottom"/>
    </contour>
  </outline>
</glyph>
<glyph name="J" format="1">
  <advance width="279"/>
  <unicode hex="004A"/>
  <outline>
    <contour>
      <point x="193" y="682" type="line"/>
      <point x="110" y="92" type="line" smooth="yes"/>
      <point x="97" y="-2"/>
      <point x="68" y="-36"/>
      <point x="-29" y="-80" type="curve"/>
      <point x="-21" y="-104" type="line"/>
      <point x="98" y="-54"/>
      <point x="126" y="-16"/>
      <point x="141" y="88" type="curve" smooth="yes"/>
      <point x="224" y="682" type="line"/>
    </contour>
    <contour>
      <point x="206" y="682" type="move" name="top"/>
    </contour>
  </outline>
</glyph>
<glyph name="K" format="1">
  <advance width="513"/>
  <unicode hex="004B"/>
  <outline>
    <contour>
      <point x="517" y="682" type="line"/>
      <point x="169" y="367" type="line"/>
      <point x="439" y="0" type="line"/>
      <point x="476" y="0" type="line"/>
      <point x="207" y="365" type="line"/>
      <point x="556" y="682" type="line"/>
    </contour>
    <contour>
      <point x="179" y="682" type="line"/>
      <point x="83" y="0" type="line"/>
      <point x="114" y="0" type="line"/>
      <point x="210" y="682" type="line"/>
    </contour>
    <contour>
      <point x="349" y="682" type="move" name="top"/>
    </contour>
    <contour>
      <point x="263" y="0" type="move" name="bottom"/>
    </contour>
  </outline>
</glyph>
<glyph name="L" format="1">
  <advance width="455"/>
  <unicode hex="004C"/>
  <outline>
    <contour>
      <point x="179" y="682" type="line"/>
      <point x="83" y="0" type="line"/>
      <point x="397" y="0" type="line"/>
      <point x="408" y="30" type="line"/>
      <point x="119" y="30" type="line"/>
      <point x="210" y="682" type="line"/>
    </contour>
    <contour>
      <point x="240" y="0" type="move" name="bottom"/>
    </contour>
    <contour>
      <point x="195" y="682" type="move" name="top"/>
    </contour>
    <contour>
      <point x="250" y="682" type="move" name="topright"/>
    </contour>
    <contour>
      <point x="365" y="354" type="move" name="center"/>
    </contour>
  </outline>
</glyph>
<glyph name="M" format="1">
  <advance width="764"/>
  <unicode hex="004D"/>
  <outline>
    <contour>
      <point x="627" y="682" type="line"/>
      <point x="361" y="119" type="line"/>
      <point x="250" y="682" type="line"/>
      <point x="205" y="682" type="line"/>
      <point x="38" y="0" type="line"/>
      <point x="68" y="0" type="line"/>
      <point x="153" y="350" type="line"/>
      <point x="179" y="458"/>
      <point x="214" y="596"/>
      <point x="226" y="656" type="curve"/>
      <point x="342" y="83" type="line"/>
      <point x="372" y="83" type="line"/>
      <point x="646" y="658" type="line"/>
      <point x="641" y="589"/>
      <point x="636" y="455"/>
      <point x="633" y="343" type="curve" smooth="yes"/>
      <point x="622" y="0" type="line"/>
      <point x="652" y="0" type="line"/>
      <point x="675" y="682" type="line"/>
    </contour>
    <contour>
      <point x="439" y="682" type="move" name="top"/>
    </contour>
    <contour>
      <point x="662" y="0" type="move" name="bottomright"/>
    </contour>
  </outline>
</glyph>
<glyph name="N" format="1">
  <advance width="664"/>
  <unicode hex="004E"/>
  <outline>
    <contour>
      <point x="573" y="682" type="line"/>
      <point x="510" y="233" type="line"/>
      <point x="497" y="141"/>
      <point x="490" y="76"/>
      <point x="487" y="34" type="curve"/>
      <point x="218" y="682" type="line"/>
      <point x="179" y="682" type="line"/>
      <point x="83" y="0" type="line"/>
      <point x="113" y="0" type="line"/>
      <point x="175" y="437" type="line"/>
      <point x="192" y="556"/>
      <point x="198" y="607"/>
      <point x="200" y="651" type="curve"/>
      <point x="469" y="0" type="line"/>
      <point x="507" y="0" type="line"/>
      <point x="603" y="682" type="line"/>
    </contour>
    <contour>
      <point x="398" y="682" type="move" name="top"/>
    </contour>
    <contour>
      <point x="295" y="0" type="move" name="bottom"/>
    </contour>
  </outline>
</glyph>
<glyph name="O" format="1">
  <advance width="690"/>
  <unicode hex="004F"/>
  <outline>
    <contour>
      <point x="163" y="692"/>
      <point x="80" y="430"/>
      <point x="80" y="259" type="curve" smooth="yes"/>
      <point x="80" y="85"/>
      <point x="169" y="-10"/>
      <point x="309" y="-10" type="curve" smooth="yes"/>
      <point x="554" y="-10"/>
      <point x="633" y="250"/>
      <point x="633" y="426" type="curve" smooth="yes"/>
      <point x="633" y="601"/>
      <point x="544" y="692"/>
      <point x="405" y="692" type="curve" smooth="yes"/>
    </contour>
    <contour>
      <point x="526" y="664"/>
      <point x="601" y="585"/>
      <point x="601" y="426" type="curve" smooth="yes"/>
      <point x="601" y="270"/>
      <point x="538" y="19"/>
      <point x="309" y="19" type="curve" smooth="yes"/>
      <point x="189" y="19"/>
      <point x="112" y="100"/>
      <point x="112" y="258" type="curve" smooth="yes"/>
      <point x="112" y="415"/>
      <point x="182" y="664"/>
      <point x="404" y="664" type="curve"/>
    </contour>
    <contour>
      <point x="404" y="682" type="move" name="top"/>
    </contour>
    <contour>
      <point x="596" y="682" type="move" name="topright"/>
    </contour>
    <contour>
      <point x="163" y="682" type="move" name="topleft"/>
    </contour>
    <contour>
      <point x="309" y="0" type="move" name="bottom"/>
    </contour>
  </outline>
</glyph>
<glyph name="P" format="1">
  <advance width="561"/>
  <unicode hex="0050"/>
  <outline>
    <contour>
      <point x="206" y="653" type="line"/>
      <point x="320" y="653" type="line" smooth="yes"/>
      <point x="441" y="653"/>
      <point x="508" y="616"/>
      <point x="508" y="516" type="curve" smooth="yes"/>
      <point x="508" y="410"/>
      <point x="458" y="307"/>
      <point x="267" y="307" type="curve" smooth="yes"/>
      <point x="151" y="307" type="line"/>
      <point x="147" y="278" type="line"/>
      <point x="263" y="278" type="line" smooth="yes"/>
      <point x="479" y="278"/>
      <point x="540" y="397"/>
      <point x="540" y="516" type="curve" smooth="yes"/>
      <point x="540" y="631"/>
      <point x="461" y="682"/>
      <point x="322" y="682" type="curve" smooth="yes"/>
      <point x="179" y="682" type="line"/>
      <point x="83" y="0" type="line"/>
      <point x="114" y="0" type="line"/>
    </contour>
    <contour>
      <point x="340" y="682" type="move" name="top"/>
    </contour>
    <contour>
      <point x="244" y="0" type="move" name="bottom"/>
    </contour>
    <contour>
      <point x="149" y="682" type="move" name="topleft"/>
    </contour>
  </outline>
</glyph>
<glyph name="Q" format="1">
  <advance width="674"/>
  <unicode hex="0051"/>
  <outline>
    <contour>
      <point x="309" y="-10" type="line"/>
      <point x="429" y="-10"/>
      <point x="505" y="-23"/>
      <point x="568" y="-85" type="curve"/>
      <point x="591" y="-61" type="line"/>
      <point x="541" y="-10"/>
      <point x="466" y="7"/>
      <point x="394" y="9" type="curve"/>
    </contour>
    <contour>
      <point x="163" y="692"/>
      <point x="80" y="430"/>
      <point x="80" y="259" type="curve" smooth="yes"/>
      <point x="80" y="85"/>
      <point x="169" y="-10"/>
      <point x="309" y="-10" type="curve" smooth="yes"/>
      <point x="331" y="-10"/>
      <point x="352" y="-8"/>
      <point x="366" y="-4" type="curve"/>
      <point x="392" y="6" type="line"/>
      <point x="572" y="51"/>
      <point x="633" y="271"/>
      <point x="633" y="426" type="curve" smooth="yes"/>
      <point x="633" y="601"/>
      <point x="544" y="692"/>
      <point x="405" y="692" type="curve" smooth="yes"/>
    </contour>
    <contour>
      <point x="526" y="664"/>
      <point x="601" y="585"/>
      <point x="601" y="427" type="curve" smooth="yes"/>
      <point x="601" y="270"/>
      <point x="538" y="19"/>
      <point x="309" y="19" type="curve" smooth="yes"/>
      <point x="189" y="19"/>
      <point x="112" y="100"/>
      <point x="112" y="256" type="curve" smooth="yes"/>
      <point x="112" y="415"/>
      <point x="182" y="664"/>
      <point x="404" y="664" type="curve"/>
    </contour>
    <contour>
      <point x="396" y="682" type="move" name="top"/>
    </contour>
    <contour>
      <point x="300" y="0" type="move" name="bottom"/>
    </contour>
  </outline>
</glyph>
<glyph name="R" format="1">
  <advance width="577"/>
  <unicode hex="0052"/>
  <outline>
    <contour>
      <point x="179" y="682" type="line"/>
      <point x="83" y="0" type="line"/>
      <point x="114" y="0" type="line"/>
      <point x="206" y="653" type="line"/>
      <point x="336" y="653" type="line" smooth="yes"/>
      <point x="459" y="653"/>
      <point x="506" y="611"/>
      <point x="506" y="532" type="curve" smooth="yes"/>
      <point x="506" y="451"/>
      <point x="458" y="349"/>
      <point x="296" y="349" type="curve" smooth="yes"/>
      <point x="157" y="349" type="line"/>
      <point x="152" y="320" type="line"/>
      <point x="325" y="320" type="line"/>
      <point x="489" y="342"/>
      <point x="538" y="439"/>
      <point x="538" y="531" type="curve" smooth="yes"/>
      <point x="538" y="631"/>
      <point x="475" y="682"/>
      <point x="332" y="682" type="curve" smooth="yes"/>
    </contour>
    <contour>
      <point x="319" y="327" type="line"/>
      <point x="466" y="0" type="line"/>
      <point x="500" y="0" type="line"/>
      <point x="349" y="332" type="line"/>
    </contour>
    <contour>
      <point x="349" y="682" type="move" name="top"/>
    </contour>
    <contour>
      <point x="268" y="0" type="move" name="bottom"/>
    </contour>
  </outline>
</glyph>
<glyph name="S" format="1">
  <advance width="534"/>
  <unicode hex="0053"/>
  <outline>
    <contour>
      <point x="180" y="692"/>
      <point x="114" y="600"/>
      <point x="114" y="521" type="curve" smooth="yes"/>
      <point x="114" y="440"/>
      <point x="161" y="394"/>
      <point x="280" y="356" type="curve" smooth="yes"/>
      <point x="385" y="322"/>
      <point x="430" y="276"/>
      <point x="430" y="200" type="curve" smooth="yes"/>
      <point x="430" y="124"/>
      <point x="380" y="19"/>
      <point x="220" y="19" type="curve" smooth="yes"/>
      <point x="138" y="19"/>
      <point x="88" y="49"/>
      <point x="46" y="94" type="curve"/>
      <point x="24" y="74" type="line"/>
      <point x="73" y="24"/>
      <point x="131" y="-10"/>
      <point x="221" y="-10" type="curve" smooth="yes"/>
      <point x="392" y="-10"/>
      <point x="461" y="106"/>
      <point x="461" y="200" type="curve" smooth="yes"/>
      <point x="461" y="292"/>
      <point x="406" y="346"/>
      <point x="291" y="382" type="curve" smooth="yes"/>
      <point x="188" y="415"/>
      <point x="145" y="451"/>
      <point x="145" y="522" type="curve" smooth="yes"/>
      <point x="145" y="603"/>
      <point x="217" y="664"/>
      <point x="324" y="664" type="curve" smooth="yes"/>
      <point x="389" y="664"/>
      <point x="433" y="645"/>
      <point x="477" y="599" type="curve"/>
      <point x="498" y="619" type="line"/>
      <point x="454" y="663"/>
      <point x="402" y="692"/>
      <point x="324" y="692" type="curve" smooth="yes"/>
    </contour>
    <contour>
      <point x="327" y="682" type="move" name="top"/>
    </contour>
    <contour>
      <point x="224" y="0" type="move" name="bottom"/>
    </contour>
  </outline>
</glyph>
<glyph name="T" format="1">
  <advance width="477"/>
  <unicode hex="0054"/>
  <outline>
    <contour>
      <point x="74" y="682" type="line"/>
      <point x="70" y="652" type="line"/>
      <point x="278" y="652" type="line"/>
      <point x="186" y="0" type="line"/>
      <point x="217" y="0" type="line"/>
      <point x="309" y="652" type="line"/>
      <point x="517" y="652" type="line"/>
      <point x="526" y="682" type="line"/>
    </contour>
    <contour>
      <point x="202" y="0" type="move" name="bottom"/>
    </contour>
    <contour>
      <point x="298" y="682" type="move" name="top"/>
    </contour>
    <contour>
      <point x="227" y="0" type="move" name="bottomright"/>
    </contour>
    <contour>
      <point x="251" y="348" type="move" name="center"/>
    </contour>
  </outline>
</glyph>
<glyph name="U" format="1">
  <advance width="644"/>
  <unicode hex="0055"/>
  <outline>
    <contour>
      <point x="561" y="682" type="line"/>
      <point x="495" y="212" type="line" smooth="yes"/>
      <point x="480" y="101"/>
      <point x="416" y="19"/>
      <point x="286" y="19" type="curve" smooth="yes"/>
      <point x="159" y="19"/>
      <point x="118" y="96"/>
      <point x="134" y="210" type="curve" smooth="yes"/>
      <point x="200" y="682" type="line"/>
      <point x="169" y="682" type="line"/>
      <point x="103" y="209" type="line" smooth="yes"/>
      <point x="85" y="82"/>
      <point x="136" y="-10"/>
      <point x="286" y="-10" type="curve" smooth="yes"/>
      <point x="432" y="-10"/>
      <point x="508" y="80"/>
      <point x="526" y="207" type="curve" smooth="yes"/>
      <point x="592" y="682" type="line"/>
    </contour>
    <contour>
      <point x="370" y="0" type="move" name="ogonek"/>
    </contour>
    <contour>
      <point x="381" y="682" type="move" name="top"/>
    </contour>
    <contour>
      <point x="602" y="682" type="move" name="topright"/>
    </contour>
    <contour>
      <point x="286" y="0" type="move" name="bottom"/>
    </contour>
  </outline>
</glyph>
<glyph name="V" format="1">
  <advance width="538"/>
  <unicode hex="0056"/>
  <outline>
    <contour>
      <point x="539" y="682" type="line"/>
      <point x="235" y="29" type="line"/>
      <point x="116" y="682" type="line"/>
      <point x="84" y="682" type="line"/>
      <point x="212" y="0" type="line"/>
      <point x="251" y="0" type="line"/>
      <point x="572" y="682" type="line"/>
    </contour>
  </outline>
</glyph>
<glyph name="W" format="1">
  <advance width="796"/>
  <unicode hex="0057"/>
  <outline>
    <contour>
      <point x="788" y="682" type="line"/>
      <point x="551" y="33" type="line"/>
      <point x="476" y="682" type="line"/>
      <point x="437" y="682" type="line"/>
      <point x="181" y="35" type="line"/>
      <point x="126" y="682" type="line"/>
      <point x="94" y="682" type="line"/>
      <point x="157" y="0" type="line"/>
      <point x="193" y="0" type="line"/>
      <point x="453" y="651" type="line"/>
      <point x="529" y="0" type="line"/>
      <point x="565" y="0" type="line"/>
      <point x="820" y="682" type="line"/>
    </contour>
    <contour>
      <point x="457" y="682" type="move" name="top"/>
    </contour>
    <contour>
      <point x="361" y="0" type="move" name="bottom"/>
    </contour>
  </outline>
</glyph>
<glyph name="X" format="1">
  <advance width="489"/>
  <unicode hex="0058"/>
  <outline>
    <contour>
      <point x="96" y="682" type="line"/>
      <point x="241" y="370" type="line"/>
      <point x="255" y="345" type="line"/>
      <point x="408" y="0" type="line"/>
      <point x="441" y="0" type="line"/>
      <point x="275" y="370" type="line"/>
      <point x="260" y="393" type="line"/>
      <point x="130" y="682" type="line"/>
    </contour>
    <contour>
      <point x="470" y="682" type="line"/>
      <point x="260" y="393" type="line"/>
      <point x="239" y="370" type="line"/>
      <point x="-22" y="0" type="line"/>
      <point x="12" y="0" type="line"/>
      <point x="255" y="345" type="line"/>
      <point x="277" y="370" type="line"/>
      <point x="505" y="682" type="line"/>
    </contour>
    <contour>
      <point x="416" y="0" type="move" name="bottomright"/>
    </contour>
  </outline>
</glyph>
<glyph name="Y" format="1">
  <advance width="500"/>
  <unicode hex="0059"/>
  <outline>
    <contour>
      <point x="503" y="682" type="line"/>
      <point x="255" y="301" type="line"/>
      <point x="113" y="682" type="line"/>
      <point x="79" y="682" type="line"/>
      <point x="237" y="270" type="line"/>
      <point x="199" y="0" type="line"/>
      <point x="230" y="0" type="line"/>
      <point x="269" y="271" type="line"/>
      <point x="539" y="682" type="line"/>
    </contour>
    <contour>
      <point x="305" y="682" type="move" name="top"/>
    </contour>
    <contour>
      <point x="215" y="0" type="move" name="bottom"/>
    </contour>
    <contour>
      <point x="73" y="682" type="move" name="topleft"/>
    </contour>
  </outline>
</glyph>
<glyph name="Z" format="1">
  <advance width="511"/>
  <unicode hex="005A"/>
  <outline>
    <contour>
      <point x="408" y="0" type="line"/>
      <point x="417" y="30" type="line"/>
      <point x="46" y="30" type="line"/>
      <point x="517" y="655" type="line"/>
      <point x="520" y="682" type="line"/>
      <point x="137" y="682" type="line"/>
      <point x="133" y="653" type="line"/>
      <point x="478" y="653" type="line"/>
      <point x="7" y="28" type="line"/>
      <point x="3" y="0" type="line"/>
    </contour>
    <contour>
      <point x="315" y="682" type="move" name="top"/>
    </contour>
    <contour>
      <point x="206" y="0" type="move" name="bottom"/>
    </contour>
  </outline>
</glyph>
<glyph name="bracketleft" format="1">
  <advance width="313"/>
  <unicode hex="005B"/>
  <outline>
    <contour>
      <point x="176" y="799" type="line"/>
      <point x="48" y="-109" type="line"/>
      <point x="181" y="-109" type="line"/>
      <point x="184" y="-86" type="line"/>
      <point x="78" y="-86" type="line"/>
      <point x="200" y="776" type="line"/>
      <point x="306" y="776" type="line"/>
      <point x="309" y="799" type="line"/>
    </contour>
  </outline>
</glyph>
<glyph name="backslash" format="1">
  <advance width="520"/>
  <unicode hex="005C"/>
  <outline>
    <contour>
      <point x="205" y="792" type="line"/>
      <point x="312" y="-96" type="line"/>
      <point x="340" y="-89" type="line"/>
      <point x="233" y="799" type="line"/>
    </contour>
  </outline>
</glyph>
<glyph name="bracketright" format="1">
  <advance width="313"/>
  <unicode hex="005D"/>
  <outline>
    <contour>
      <point x="156" y="799" type="line"/>
      <point x="153" y="776" type="line"/>
      <point x="259" y="776" type="line"/>
      <point x="137" y="-86" type="line"/>
      <point x="31" y="-86" type="line"/>
      <point x="28" y="-109" type="line"/>
      <point x="161" y="-109" type="line"/>
      <point x="289" y="799" type="line"/>
    </contour>
  </outline>
</glyph>
<glyph name="asciicircum" format="1">
  <advance width="523"/>
  <unicode hex="005E"/>
  <outline>
    <contour>
      <point x="331" y="826" type="line"/>
      <point x="108" y="527" type="line"/>
      <point x="147" y="527" type="line"/>
      <point x="337" y="788" type="line"/>
      <point x="453" y="527" type="line"/>
      <point x="491" y="527" type="line"/>
      <point x="352" y="826" type="line"/>
    </contour>
  </outline>
</glyph>
<glyph name="underscore" format="1">
  <advance width="520"/>
  <unicode hex="005F"/>
  <outline>
    <contour>
      <point x="432" y="-105" type="line"/>
      <point x="436" y="-77" type="line"/>
      <point x="-9" y="-77" type="line"/>
      <point x="-13" y="-105" type="line"/>
    </contour>
  </outline>
</glyph>
<glyph name="grave" format="1">
  <advance width="253"/>
  <unicode hex="0060"/>
  <outline>
    <contour>
      <point x="97" y="735" type="line"/>
      <point x="267" y="651" type="line"/>
      <point x="279" y="671" type="line"/>
      <point x="115" y="767" type="line"/>
    </contour>
  </outline>
</glyph>
<glyph name="a" format="1">
  <advance width="551"/>
  <unicode hex="0061"/>
  <outline>
    <contour>
      <point x="133" y="530"/>
      <point x="64" y="332"/>
      <point x="64" y="193" type="curve" smooth="yes"/>
      <point x="64" y="65"/>
      <point x="125" y="-10"/>
      <point x="226" y="-10" type="curve" smooth="yes"/>
      <point x="296" y="-10"/>
      <point x="353" y="31"/>
      <point x="391" y="90" type="curve"/>
      <point x="384" y="21"/>
      <point x="406" y="1"/>
      <point x="442" y="-10" type="curve"/>
      <point x="451" y="13" type="line"/>
      <point x="430" y="22"/>
      <point x="418" y="34"/>
      <point x="418" y="69" type="curve"/>
      <point x="418" y="80"/>
      <point x="419" y="93"/>
      <point x="421" y="109" type="curve" smooth="yes"/>
      <point x="477" y="488" type="line"/>
      <point x="436" y="511"/>
      <point x="395" y="530"/>
      <point x="323" y="530" type="curve" smooth="yes"/>
    </contour>
    <contour>
      <point x="374" y="504"/>
      <point x="415" y="492"/>
      <point x="446" y="474" type="curve"/>
      <point x="397" y="140" type="line"/>
      <point x="351" y="61"/>
      <point x="297" y="18"/>
      <point x="227" y="18" type="curve" smooth="yes"/>
      <point x="143" y="18"/>
      <point x="95" y="81"/>
      <point x="95" y="194" type="curve" smooth="yes"/>
      <point x="95" y="318"/>
      <point x="155" y="504"/>
      <point x="324" y="504" type="curve" smooth="yes"/>
    </contour>
    <contour>
      <point x="451" y="-10" type="move" name="ogonek"/>
    </contour>
    <contour>
      <point x="266" y="0" type="move" name="bottom"/>
    </contour>
    <contour>
      <point x="337" y="520" type="move" name="top"/>
    </contour>
  </outline>
</glyph>
<glyph name="b" format="1">
  <advance width="566"/>
  <unicode hex="0062"/>
  <outline>
    <contour>
      <point x="183" y="734" type="line"/>
      <point x="82" y="23" type="line"/>
      <point x="143" y="-1"/>
      <point x="184" y="-10"/>
      <point x="242" y="-10" type="curve" smooth="yes"/>
      <point x="442" y="-10"/>
      <point x="502" y="200"/>
      <point x="502" y="339" type="curve" smooth="yes"/>
      <point x="502" y="463"/>
      <point x="448" y="530"/>
      <point x="346" y="530" type="curve" smooth="yes"/>
      <point x="275" y="530"/>
      <point x="217" y="494"/>
      <point x="172" y="443" type="curve"/>
      <point x="213" y="738" type="line"/>
    </contour>
    <contour>
      <point x="429" y="502"/>
      <point x="472" y="448"/>
      <point x="472" y="341" type="curve" smooth="yes"/>
      <point x="472" y="219"/>
      <point x="422" y="18"/>
      <point x="241" y="18" type="curve" smooth="yes"/>
      <point x="185" y="18"/>
      <point x="149" y="29"/>
      <point x="116" y="43" type="curve"/>
      <point x="166" y="404" type="line"/>
      <point x="218" y="462"/>
      <point x="269" y="502"/>
      <point x="346" y="502" type="curve" smooth="yes"/>
    </contour>
    <contour>
      <point x="358" y="734" type="move" name="top"/>
    </contour>
    <contour>
      <point x="246" y="0" type="move" name="bottom"/>
    </contour>
  </outline>
</glyph>
<glyph name="c" format="1">
  <advance width="461"/>
  <unicode hex="0063"/>
  <outline>
    <contour>
      <point x="132" y="530"/>
      <point x="65" y="332"/>
      <point x="65" y="198" type="curve" smooth="yes"/>
      <point x="65" y="63"/>
      <point x="138" y="-10"/>
      <point x="246" y="-10" type="curve" smooth="yes"/>
      <point x="305" y="-10"/>
      <point x="355" y="10"/>
      <point x="397" y="43" type="curve"/>
      <point x="381" y="65" type="line"/>
      <point x="343" y="37"/>
      <point x="300" y="18"/>
      <point x="247" y="18" type="curve" smooth="yes"/>
      <point x="155" y="18"/>
      <point x="96" y="77"/>
      <point x="96" y="198" type="curve" smooth="yes"/>
      <point x="96" y="319"/>
      <point x="153" y="503"/>
      <point x="318" y="503" type="curve" smooth="yes"/>
      <point x="369" y="503"/>
      <point x="404" y="486"/>
      <point x="432" y="460" type="curve"/>
      <point x="451" y="480" type="line"/>
      <point x="416" y="514"/>
      <point x="374" y="530"/>
      <point x="319" y="530" type="curve" smooth="yes"/>
    </contour>
    <contour>
      <point x="323" y="520" type="move" name="top"/>
    </contour>
    <contour>
      <point x="245" y="0" type="move" name="bottom"/>
    </contour>
  </outline>
</glyph>
<glyph name="d" format="1">
  <advance width="574"/>
  <unicode hex="0064"/>
  <outline>
    <contour>
      <point x="456" y="453" type="line"/>
      <point x="434" y="490"/>
      <point x="393" y="530"/>
      <point x="314" y="530" type="curve" smooth="yes"/>
      <point x="131" y="530"/>
      <point x="69" y="329"/>
      <point x="69" y="193" type="curve" smooth="yes"/>
      <point x="69" y="65"/>
      <point x="130" y="-10"/>
      <point x="225" y="-10" type="curve" smooth="yes"/>
      <point x="316" y="-10"/>
      <point x="373" y="56"/>
      <point x="410" y="122" type="curve"/>
      <point x="397" y="0" type="line"/>
      <point x="422" y="0" type="line"/>
      <point x="526" y="734" type="line"/>
      <point x="496" y="739" type="line"/>
    </contour>
    <contour>
      <point x="388" y="503"/>
      <point x="427" y="462"/>
      <point x="451" y="415" type="curve"/>
      <point x="418" y="179" type="line"/>
      <point x="366" y="86"/>
      <point x="313" y="18"/>
      <point x="226" y="18" type="curve" smooth="yes"/>
      <point x="148" y="18"/>
      <point x="100" y="81"/>
      <point x="100" y="194" type="curve" smooth="yes"/>
      <point x="100" y="321"/>
      <point x="156" y="503"/>
      <point x="315" y="503" type="curve" smooth="yes"/>
    </contour>
    <contour>
      <point x="258" y="0" type="move" name="bottom"/>
    </contour>
    <contour>
      <point x="343" y="734" type="move" name="top"/>
    </contour>
    <contour>
      <point x="556" y="734" type="move" name="topright"/>
    </contour>
    <contour>
      <point x="292" y="260" type="move" name="center"/>
    </contour>
  </outline>
</glyph>
<glyph name="e" format="1">
  <advance width="516"/>
  <unicode hex="0065"/>
  <outline>
    <contour>
      <point x="143" y="530"/>
      <point x="64" y="344"/>
      <point x="64" y="197" type="curve" smooth="yes"/>
      <point x="64" y="62"/>
      <point x="132" y="-10"/>
      <point x="245" y="-10" type="curve" smooth="yes"/>
      <point x="311" y="-10"/>
      <point x="362" y="12"/>
      <point x="414" y="51" type="curve"/>
      <point x="398" y="73" type="line"/>
      <point x="348" y="38"/>
      <point x="307" y="18"/>
      <point x="245" y="18" type="curve" smooth="yes"/>
      <point x="156" y="18"/>
      <point x="95" y="73"/>
      <point x="95" y="198" type="curve" smooth="yes"/>
      <point x="95" y="330"/>
      <point x="162" y="503"/>
      <point x="320" y="503" type="curve" smooth="yes"/>
      <point x="401" y="503"/>
      <point x="442" y="464"/>
      <point x="442" y="409" type="curve" smooth="yes"/>
      <point x="442" y="309"/>
      <point x="324" y="253"/>
      <point x="91" y="239" type="curve"/>
      <point x="88" y="213" type="line"/>
      <point x="329" y="226"/>
      <point x="473" y="287"/>
      <point x="473" y="410" type="curve" smooth="yes"/>
      <point x="473" y="482"/>
      <point x="414" y="530"/>
      <point x="320" y="530" type="curve" smooth="yes"/>
    </contour>
    <contour>
      <point x="340" y="5" type="move" name="ogonek"/>
    </contour>
    <contour>
      <point x="240" y="0" type="move" name="bottom"/>
    </contour>
    <contour>
      <point x="310" y="520" type="move" name="top"/>
    </contour>
  </outline>
</glyph>
<glyph name="f" format="1">
  <advance width="310"/>
  <unicode hex="0066"/>
  <outline>
    <contour>
      <point x="236" y="738"/>
      <point x="179" y="695"/>
      <point x="168" y="617" type="curve" smooth="yes"/>
      <point x="84" y="10" type="line" smooth="yes"/>
      <point x="67" y="-107"/>
      <point x="32" y="-136"/>
      <point x="-42" y="-172" type="curve"/>
      <point x="-32" y="-196" type="line"/>
      <point x="54" y="-156"/>
      <point x="95" y="-125"/>
      <point x="113" y="7" type="curve" smooth="yes"/>
      <point x="197" y="613" type="line" smooth="yes"/>
      <point x="207" y="683"/>
      <point x="252" y="711"/>
      <point x="313" y="711" type="curve" smooth="yes"/>
      <point x="351" y="711"/>
      <point x="377" y="702"/>
      <point x="414" y="682" type="curve"/>
      <point x="428" y="704" type="line"/>
      <point x="391" y="726"/>
      <point x="355" y="738"/>
      <point x="315" y="738" type="curve" smooth="yes"/>
    </contour>
    <contour>
      <point x="66" y="520" type="line"/>
      <point x="62" y="493" type="line"/>
      <point x="322" y="493" type="line"/>
      <point x="330" y="520" type="line"/>
    </contour>
    <contour>
      <point x="305" y="734" type="move" name="top"/>
    </contour>
    <contour>
      <point x="70" y="-193" type="move" name="bottom"/>
    </contour>
  </outline>
</glyph>
<glyph name="g" format="1">
  <advance width="556"/>
  <unicode hex="0067"/>
  <outline>
    <contour>
      <point x="134" y="530"/>
      <point x="64" y="332"/>
      <point x="65" y="202" type="curve" smooth="yes"/>
      <point x="66" y="78"/>
      <point x="127" y="0"/>
      <point x="228" y="0" type="curve" smooth="yes"/>
      <point x="298" y="0"/>
      <point x="355" y="40"/>
      <point x="393" y="99" type="curve"/>
      <point x="378" y="-6" type="line" smooth="yes"/>
      <point x="361" y="-128"/>
      <point x="290" y="-173"/>
      <point x="209" y="-173" type="curve" smooth="yes"/>
      <point x="144" y="-173"/>
      <point x="99" y="-153"/>
      <point x="55" y="-130" type="curve"/>
      <point x="42" y="-152" type="line"/>
      <point x="85" y="-176"/>
      <point x="140" y="-199"/>
      <point x="208" y="-199" type="curve" smooth="yes"/>
      <point x="304" y="-199"/>
      <point x="387" y="-150"/>
      <point x="408" y="-2" type="curve" smooth="yes"/>
      <point x="478" y="488" type="line"/>
      <point x="437" y="511"/>
      <point x="396" y="530"/>
      <point x="324" y="530" type="curve" smooth="yes"/>
    </contour>
    <contour>
      <point x="375" y="504"/>
      <point x="415" y="492"/>
      <point x="446" y="474" type="curve"/>
      <point x="400" y="147" type="line"/>
      <point x="354" y="70"/>
      <point x="299" y="28"/>
      <point x="229" y="28" type="curve" smooth="yes"/>
      <point x="145" y="28"/>
      <point x="97" y="94"/>
      <point x="96" y="203" type="curve" smooth="yes"/>
      <point x="95" y="320"/>
      <point x="156" y="504"/>
      <point x="325" y="504" type="curve" smooth="yes"/>
    </contour>
    <contour>
      <point x="315" y="520" type="move" name="top"/>
    </contour>
    <contour>
      <point x="208" y="-193" type="move" name="bottom"/>
    </contour>
  </outline>
</glyph>
<glyph name="h" format="1">
  <advance width="582"/>
  <unicode hex="0068"/>
  <outline>
    <contour>
      <point x="290" y="530"/>
      <point x="213" y="471"/>
      <point x="160" y="368" type="curve"/>
      <point x="212" y="739" type="line"/>
      <point x="182" y="734" type="line"/>
      <point x="78" y="0" type="line"/>
      <point x="108" y="0" type="line"/>
      <point x="152" y="310" type="line"/>
      <point x="212" y="424"/>
      <point x="281" y="504"/>
      <point x="367" y="504" type="curve" smooth="yes"/>
      <point x="440" y="504"/>
      <point x="470" y="460"/>
      <point x="457" y="367" type="curve" smooth="yes"/>
      <point x="405" y="0" type="line"/>
      <point x="435" y="0" type="line"/>
      <point x="487" y="369" type="line" smooth="yes"/>
      <point x="502" y="471"/>
      <point x="462" y="530"/>
      <point x="370" y="530" type="curve" smooth="yes"/>
    </contour>
    <contour>
      <point x="296" y="260" type="move" name="center"/>
    </contour>
    <contour>
      <point x="257" y="0" type="move" name="bottom"/>
    </contour>
    <contour>
      <point x="363" y="734" type="move" name="top"/>
    </contour>
  </outline>
</glyph>
<glyph name="k" format="1">
  <advance width="504"/>
  <unicode hex="006B"/>
  <outline>
    <contour>
      <point x="182" y="734" type="line"/>
      <point x="78" y="0" type="line"/>
      <point x="108" y="0" type="line"/>
      <point x="150" y="296" type="line"/>
      <point x="209" y="421"/>
      <point x="279" y="504"/>
      <point x="365" y="504" type="curve" smooth="yes"/>
      <point x="427" y="504"/>
      <point x="449" y="470"/>
      <point x="449" y="424" type="curve" smooth="yes"/>
      <point x="449" y="343"/>
      <point x="382" y="284"/>
      <point x="262" y="252" type="curve"/>
      <point x="386" y="0" type="line"/>
      <point x="419" y="0" type="line"/>
      <point x="300" y="239" type="line"/>
      <point x="415" y="275"/>
      <point x="480" y="338"/>
      <point x="480" y="424" type="curve" smooth="yes"/>
      <point x="480" y="492"/>
      <point x="435" y="530"/>
      <point x="367" y="530" type="curve" smooth="yes"/>
      <point x="293" y="530"/>
      <point x="220" y="483"/>
      <point x="159" y="362" type="curve"/>
      <point x="212" y="738" type="line"/>
    </contour>
    <contour>
      <point x="348" y="734" type="move" name="top"/>
    </contour>
    <contour>
      <point x="241" y="0" type="move" name="bottom"/>
    </contour>
  </outline>
</glyph>
<glyph name="l" format="1">
  <advance width="277"/>
  <unicode hex="006C"/>
  <outline>
    <contour>
      <point x="177" y="734" type="line"/>
      <point x="85" y="79" type="line" smooth="yes"/>
      <point x="76" y="17"/>
      <point x="103" y="-10"/>
      <point x="152" y="-10" type="curve" smooth="yes"/>
      <point x="169" y="-10"/>
      <point x="188" y="-5"/>
      <point x="202" y="1" type="curve"/>
      <point x="194" y="26" type="line"/>
      <point x="183" y="22"/>
      <point x="168" y="18"/>
      <point x="154" y="18" type="curve" smooth="yes"/>
      <point x="119" y="18"/>
      <point x="109" y="38"/>
      <point x="114" y="76" type="curve" smooth="yes"/>
      <point x="207" y="738" type="line"/>
    </contour>
    <contour>
      <point x="145" y="0" type="move" name="bottom"/>
    </contour>
    <contour>
      <point x="192" y="734" type="move" name="top"/>
    </contour>
    <contour>
      <point x="237" y="734" type="move" name="topright"/>
    </contour>
    <contour>
      <point x="278" y="375" type="move" name="center"/>
    </contour>
  </outline>
</glyph>
<glyph name="m" format="1">
  <advance width="849"/>
  <unicode hex="006D"/>
  <outline>
    <contour>
      <point x="280" y="530"/>
      <point x="213" y="470"/>
      <point x="159" y="367" type="curve"/>
      <point x="177" y="520" type="line"/>
      <point x="152" y="520" type="line"/>
      <point x="78" y="0" type="line"/>
      <point x="108" y="0" type="line"/>
      <point x="152" y="310" type="line"/>
      <point x="212" y="424"/>
      <point x="275" y="504"/>
      <point x="352" y="504" type="curve" smooth="yes"/>
      <point x="410" y="504"/>
      <point x="440" y="460"/>
      <point x="427" y="367" type="curve" smooth="yes"/>
      <point x="375" y="0" type="line"/>
      <point x="405" y="0" type="line"/>
      <point x="457" y="369" type="line" smooth="yes"/>
      <point x="472" y="471"/>
      <point x="433" y="530"/>
      <point x="355" y="530" type="curve" smooth="yes"/>
    </contour>
    <contour>
      <point x="577" y="530"/>
      <point x="507" y="469"/>
      <point x="453" y="366" type="curve"/>
      <point x="448" y="310" type="line"/>
      <point x="508" y="424"/>
      <point x="572" y="504"/>
      <point x="649" y="504" type="curve" smooth="yes"/>
      <point x="707" y="504"/>
      <point x="737" y="460"/>
      <point x="724" y="367" type="curve" smooth="yes"/>
      <point x="672" y="0" type="line"/>
      <point x="702" y="0" type="line"/>
      <point x="754" y="369" type="line" smooth="yes"/>
      <point x="769" y="471"/>
      <point x="730" y="530"/>
      <point x="652" y="530" type="curve" smooth="yes"/>
    </contour>
    <contour>
      <point x="469" y="520" type="move" name="top"/>
    </contour>
    <contour>
      <point x="388" y="0" type="move" name="bottom"/>
    </contour>
  </outline>
</glyph>
<glyph name="n" format="1">
  <advance width="582"/>
  <unicode hex="006E"/>
  <outline>
    <contour>
      <point x="289" y="530"/>
      <point x="214" y="470"/>
      <point x="159" y="367" type="curve"/>
      <point x="177" y="520" type="line"/>
      <point x="152" y="520" type="line"/>
      <point x="78" y="0" type="line"/>
      <point x="108" y="0" type="line"/>
      <point x="152" y="310" type="line"/>
      <point x="212" y="424"/>
      <point x="283" y="504"/>
      <point x="368" y="504" type="curve" smooth="yes"/>
      <point x="438" y="504"/>
      <point x="470" y="460"/>
      <point x="457" y="367" type="curve" smooth="yes"/>
      <point x="405" y="0" type="line"/>
      <point x="435" y="0" type="line"/>
      <point x="487" y="369" type="line" smooth="yes"/>
      <point x="502" y="471"/>
      <point x="460" y="530"/>
      <point x="370" y="530" type="curve" smooth="yes"/>
    </contour>
    <contour>
      <point x="329" y="520" type="move" name="top"/>
    </contour>
    <contour>
      <point x="257" y="0" type="move" name="bottom"/>
    </contour>
    <contour>
      <point x="142" y="520" type="move" name="topleft"/>
    </contour>
  </outline>
</glyph>
<glyph name="o" format="1">
  <advance width="561"/>
  <unicode hex="006F"/>
  <outline>
    <contour>
      <point x="128" y="530"/>
      <point x="65" y="331"/>
      <point x="65" y="197" type="curve" smooth="yes"/>
      <point x="65" y="66"/>
      <point x="131" y="-10"/>
      <point x="244" y="-10" type="curve" smooth="yes"/>
      <point x="436" y="-10"/>
      <point x="496" y="196"/>
      <point x="496" y="327" type="curve" smooth="yes"/>
      <point x="496" y="459"/>
      <point x="429" y="530"/>
      <point x="317" y="530" type="curve" smooth="yes"/>
    </contour>
    <contour>
      <point x="412" y="503"/>
      <point x="465" y="441"/>
      <point x="465" y="326" type="curve" smooth="yes"/>
      <point x="465" y="204"/>
      <point x="411" y="18"/>
      <point x="244" y="18" type="curve" smooth="yes"/>
      <point x="150" y="18"/>
      <point x="96" y="81"/>
      <point x="96" y="196" type="curve" smooth="yes"/>
      <point x="96" y="312"/>
      <point x="147" y="503"/>
      <point x="317" y="503" type="curve" smooth="yes"/>
    </contour>
    <contour>
      <point x="318" y="520" type="move" name="top"/>
    </contour>
    <contour>
      <point x="244" y="0" type="move" name="bottom"/>
    </contour>
    <contour>
      <point x="492" y="520" type="move" name="topright"/>
    </contour>
  </outline>
</glyph>
<glyph name="p" format="1">
  <advance width="570"/>
  <unicode hex="0070"/>
  <outline>
    <contour>
      <point x="275" y="530"/>
      <point x="218" y="495"/>
      <point x="170" y="443" type="curve"/>
      <point x="178" y="520" type="line"/>
      <point x="152" y="520" type="line"/>
      <point x="50" y="-199" type="line"/>
      <point x="81" y="-195" type="line"/>
      <point x="111" y="14" type="line"/>
      <point x="155" y="-3"/>
      <point x="192" y="-10"/>
      <point x="241" y="-10" type="curve" smooth="yes"/>
      <point x="441" y="-10"/>
      <point x="501" y="200"/>
      <point x="501" y="339" type="curve" smooth="yes"/>
      <point x="501" y="463"/>
      <point x="446" y="530"/>
      <point x="345" y="530" type="curve" smooth="yes"/>
    </contour>
    <contour>
      <point x="428" y="502"/>
      <point x="471" y="448"/>
      <point x="471" y="339" type="curve" smooth="yes"/>
      <point x="471" y="219"/>
      <point x="421" y="18"/>
      <point x="240" y="18" type="curve" smooth="yes"/>
      <point x="184" y="18"/>
      <point x="148" y="29"/>
      <point x="115" y="43" type="curve"/>
      <point x="166" y="404" type="line"/>
      <point x="217" y="462"/>
      <point x="268" y="502"/>
      <point x="345" y="502" type="curve" smooth="yes"/>
    </contour>
    <contour>
      <point x="322" y="520" type="move" name="top"/>
    </contour>
    <contour>
      <point x="228" y="-193" type="move" name="bottom"/>
    </contour>
  </outline>
</glyph>
<glyph name="q" format="1">
  <advance width="558"/>
  <unicode hex="0071"/>
  <outline>
    <contour>
      <point x="133" y="530"/>
      <point x="64" y="332"/>
      <point x="64" y="193" type="curve" smooth="yes"/>
      <point x="64" y="65"/>
      <point x="125" y="-10"/>
      <point x="226" y="-10" type="curve" smooth="yes"/>
      <point x="296" y="-10"/>
      <point x="356" y="31"/>
      <point x="394" y="89" type="curve"/>
      <point x="353" y="-199" type="line"/>
      <point x="384" y="-195" type="line"/>
      <point x="477" y="488" type="line"/>
      <point x="436" y="511"/>
      <point x="395" y="530"/>
      <point x="323" y="530" type="curve" smooth="yes"/>
    </contour>
    <contour>
      <point x="374" y="504"/>
      <point x="415" y="492"/>
      <point x="446" y="474" type="curve"/>
      <point x="401" y="140" type="line"/>
      <point x="355" y="61"/>
      <point x="297" y="18"/>
      <point x="227" y="18" type="curve" smooth="yes"/>
      <point x="143" y="18"/>
      <point x="95" y="81"/>
      <point x="95" y="194" type="curve" smooth="yes"/>
      <point x="95" y="318"/>
      <point x="155" y="504"/>
      <point x="324" y="504" type="curve" smooth="yes"/>
    </contour>
    <contour>
      <point x="322" y="520" type="move" name="top"/>
    </contour>
    <contour>
      <point x="205" y="-193" type="move" name="bottom"/>
    </contour>
  </outline>
</glyph>
<glyph name="r" format="1">
  <advance width="363"/>
  <unicode hex="0072"/>
  <outline>
    <contour>
      <point x="250" y="530"/>
      <point x="197" y="470"/>
      <point x="158" y="377" type="curve"/>
      <point x="178" y="520" type="line"/>
      <point x="152" y="520" type="line"/>
      <point x="78" y="0" type="line"/>
      <point x="108" y="0" type="line"/>
      <point x="153" y="314" type="line"/>
      <point x="202" y="430"/>
      <point x="251" y="503"/>
      <point x="336" y="503" type="curve" smooth="yes"/>
      <point x="351" y="503"/>
      <point x="367" y="500"/>
      <point x="376" y="497" type="curve"/>
      <point x="384" y="523" type="line"/>
      <point x="374" y="526"/>
      <point x="356" y="530"/>
      <point x="336" y="530" type="curve" smooth="yes"/>
    </contour>
    <contour>
      <point x="266" y="520" type="move" name="top"/>
    </contour>
    <contour>
      <point x="92" y="0" type="move" name="bottom"/>
    </contour>
  </outline>
</glyph>
<glyph name="s" format="1">
  <advance width="461"/>
  <unicode hex="0073"/>
  <outline>
    <contour>
      <point x="160" y="530"/>
      <point x="88" y="476"/>
      <point x="88" y="399" type="curve" smooth="yes"/>
      <point x="88" y="339"/>
      <point x="118" y="298"/>
      <point x="227" y="264" type="curve" smooth="yes"/>
      <point x="328" y="232"/>
      <point x="354" y="197"/>
      <point x="354" y="140" type="curve" smooth="yes"/>
      <point x="354" y="54"/>
      <point x="282" y="18"/>
      <point x="192" y="18" type="curve" smooth="yes"/>
      <point x="122" y="18"/>
      <point x="79" y="40"/>
      <point x="37" y="77" type="curve"/>
      <point x="18" y="56" type="line"/>
      <point x="59" y="19"/>
      <point x="111" y="-10"/>
      <point x="194" y="-10" type="curve" smooth="yes"/>
      <point x="332" y="-10"/>
      <point x="385" y="65"/>
      <point x="385" y="141" type="curve" smooth="yes"/>
      <point x="385" y="212"/>
      <point x="346" y="256"/>
      <point x="240" y="289" type="curve" smooth="yes"/>
      <point x="142" y="319"/>
      <point x="119" y="351"/>
      <point x="119" y="399" type="curve" smooth="yes"/>
      <point x="119" y="463"/>
      <point x="175" y="502"/>
      <point x="258" y="502" type="curve" smooth="yes"/>
      <point x="313" y="502"/>
      <point x="350" y="487"/>
      <point x="388" y="455" type="curve"/>
      <point x="408" y="476" type="line"/>
      <point x="365" y="513"/>
      <point x="318" y="530"/>
      <point x="258" y="530" type="curve" smooth="yes"/>
    </contour>
    <contour>
      <point x="266" y="520" type="move" name="top"/>
    </contour>
    <contour>
      <point x="193" y="0" type="move" name="bottom"/>
    </contour>
  </outline>
</glyph>
<glyph name="t" format="1">
  <advance width="325"/>
  <unicode hex="0074"/>
  <outline>
    <contour>
      <point x="172" y="650" type="line"/>
      <point x="145" y="510" type="line"/>
      <point x="90" y="118" type="line" smooth="yes"/>
      <point x="78" y="34"/>
      <point x="120" y="-10"/>
      <point x="189" y="-10" type="curve" smooth="yes"/>
      <point x="230" y="-10"/>
      <point x="265" y="2"/>
      <point x="297" y="20" type="curve"/>
      <point x="285" y="44" type="line"/>
      <point x="257" y="29"/>
      <point x="226" y="17"/>
      <point x="192" y="17" type="curve" smooth="yes"/>
      <point x="132" y="17"/>
      <point x="111" y="53"/>
      <point x="120" y="120" type="curve" smooth="yes"/>
      <point x="195" y="653" type="line"/>
    </contour>
    <contour>
      <point x="61" y="520" type="line"/>
      <point x="57" y="493" type="line"/>
      <point x="311" y="493" type="line"/>
      <point x="319" y="520" type="line"/>
    </contour>
    <contour>
      <point x="185" y="0" type="move" name="bottom"/>
    </contour>
    <contour>
      <point x="183" y="649" type="move" name="top"/>
    </contour>
    <contour>
      <point x="246" y="735" type="move" name="topright"/>
    </contour>
    <contour>
      <point x="157" y="260" type="move" name="center"/>
    </contour>
  </outline>
</glyph>
<glyph name="u" format="1">
  <advance width="577"/>
  <unicode hex="0075"/>
  <outline>
    <contour>
      <point x="469" y="520" type="line"/>
      <point x="427" y="218" type="line"/>
      <point x="376" y="102"/>
      <point x="304" y="18"/>
      <point x="216" y="18" type="curve" smooth="yes"/>
      <point x="148" y="18"/>
      <point x="112" y="58"/>
      <point x="125" y="150" type="curve" smooth="yes"/>
      <point x="177" y="520" type="line"/>
      <point x="147" y="520" type="line"/>
      <point x="95" y="150" type="line" smooth="yes"/>
      <point x="80" y="47"/>
      <point x="126" y="-10"/>
      <point x="213" y="-10" type="curve" smooth="yes"/>
      <point x="305" y="-10"/>
      <point x="379" y="64"/>
      <point x="422" y="163" type="curve"/>
      <point x="402" y="0" type="line"/>
      <point x="425" y="0" type="line"/>
      <point x="499" y="520" type="line"/>
    </contour>
    <contour>
      <point x="435" y="0" type="move" name="ogonek"/>
    </contour>
    <contour>
      <point x="323" y="520" type="move" name="top"/>
    </contour>
    <contour>
      <point x="509" y="520" type="move" name="topright"/>
    </contour>
    <contour>
      <point x="435" y="0" type="move" name="bottomright"/>
    </contour>
    <contour>
      <point x="251" y="0" type="move" name="bottom"/>
    </contour>
  </outline>
</glyph>
<glyph name="v" format="1">
  <advance width="452"/>
  <unicode hex="0076"/>
  <outline>
    <contour>
      <point x="434" y="520" type="line"/>
      <point x="196" y="26" type="line"/>
      <point x="89" y="520" type="line"/>
      <point x="57" y="520" type="line"/>
      <point x="173" y="0" type="line"/>
      <point x="213" y="0" type="line"/>
      <point x="469" y="520" type="line"/>
    </contour>
    <contour>
      <point x="262" y="520" type="move" name="top"/>
    </contour>
    <contour>
      <point x="193" y="0" type="move" name="bottom"/>
    </contour>
  </outline>
</glyph>
<glyph name="w" format="1">
  <advance width="683"/>
  <unicode hex="0077"/>
  <outline>
    <contour>
      <point x="659" y="520" type="line"/>
      <point x="466" y="28" type="line"/>
      <point x="399" y="520" type="line"/>
      <point x="361" y="520" type="line"/>
      <point x="156" y="29" type="line"/>
      <point x="97" y="520" type="line"/>
      <point x="67" y="520" type="line"/>
      <point x="131" y="0" type="line"/>
      <point x="172" y="0" type="line"/>
      <point x="376" y="490" type="line"/>
      <point x="443" y="0" type="line"/>
      <point x="482" y="0" type="line"/>
      <point x="690" y="520" type="line"/>
    </contour>
    <contour>
      <point x="380" y="520" type="move" name="top"/>
    </contour>
    <contour>
      <point x="308" y="0" type="move" name="bottom"/>
    </contour>
  </outline>
</glyph>
<glyph name="x" format="1">
  <advance width="437"/>
  <unicode hex="0078"/>
  <outline>
    <contour>
      <point x="77" y="520" type="line"/>
      <point x="202" y="280" type="line"/>
      <point x="217" y="258" type="line"/>
      <point x="351" y="0" type="line"/>
      <point x="385" y="0" type="line"/>
      <point x="239" y="277" type="line"/>
      <point x="223" y="299" type="line"/>
      <point x="110" y="520" type="line"/>
    </contour>
    <contour>
      <point x="399" y="520" type="line"/>
      <point x="223" y="299" type="line"/>
      <point x="202" y="280" type="line"/>
      <point x="-22" y="0" type="line"/>
      <point x="13" y="0" type="line"/>
      <point x="217" y="258" type="line"/>
      <point x="239" y="277" type="line"/>
      <point x="434" y="520" type="line"/>
    </contour>
    <contour>
      <point x="255" y="520" type="move" name="top"/>
    </contour>
    <contour>
      <point x="182" y="0" type="move" name="bottom"/>
    </contour>
    <contour>
      <point x="375" y="0" type="move" name="bottomright"/>
    </contour>
  </outline>
</glyph>
<glyph name="z" format="1">
  <advance width="410"/>
  <unicode hex="007A"/>
  <outline>
    <contour>
      <point x="92" y="520" type="line"/>
      <point x="88" y="492" type="line"/>
      <point x="369" y="492" type="line"/>
      <point x="-3" y="25" type="line"/>
      <point x="-7" y="0" type="line"/>
      <point x="329" y="0" type="line"/>
      <point x="336" y="28" type="line"/>
      <point x="37" y="28" type="line"/>
      <point x="408" y="495" type="line"/>
      <point x="412" y="520" type="line"/>
    </contour>
    <contour>
      <point x="252" y="520" type="move" name="top"/>
    </contour>
    <contour>
      <point x="161" y="0" type="move" name="bottom"/>
    </contour>
  </outline>
</glyph>
<glyph name="braceleft" format="1">
  <advance width="329"/>
  <unicode hex="007B"/>
  <outline>
    <contour>
      <point x="261" y="822"/>
      <point x="216" y="791"/>
      <point x="205" y="717" type="curve" smooth="yes"/>
      <point x="166" y="435" type="line" smooth="yes"/>
      <point x="158" y="382"/>
      <point x="120" y="363"/>
      <point x="73" y="363" type="curve"/>
      <point x="70" y="335" type="line"/>
      <point x="119" y="335"/>
      <point x="149" y="318"/>
      <point x="142" y="265" type="curve" smooth="yes"/>
      <point x="102" y="-17" type="line" smooth="yes"/>
      <point x="92" y="-91"/>
      <point x="134" y="-124"/>
      <point x="196" y="-124" type="curve"/>
      <point x="197" y="-101" type="line"/>
      <point x="137" y="-101"/>
      <point x="121" y="-73"/>
      <point x="129" y="-14" type="curve" smooth="yes"/>
      <point x="167" y="251" type="line" smooth="yes"/>
      <point x="177" y="319"/>
      <point x="154" y="339"/>
      <point x="106" y="349" type="curve"/>
      <point x="159" y="359"/>
      <point x="185" y="379"/>
      <point x="194" y="445" type="curve" smooth="yes"/>
      <point x="231" y="710" type="line" smooth="yes"/>
      <point x="240" y="769"/>
      <point x="266" y="799"/>
      <point x="326" y="799" type="curve"/>
      <point x="327" y="822" type="line"/>
    </contour>
  </outline>
</glyph>
<glyph name="bar" format="1">
  <advance width="410"/>
  <unicode hex="007C"/>
  <outline>
    <contour>
      <point x="266" y="802" type="line"/>
      <point x="140" y="-99" type="line"/>
      <point x="170" y="-99" type="line"/>
      <point x="296" y="802" type="line"/>
    </contour>
  </outline>
</glyph>
<glyph name="braceright" format="1">
  <advance width="329"/>
  <unicode hex="007D"/>
  <outline>
    <contour>
      <point x="93" y="-124"/>
      <point x="138" y="-93"/>
      <point x="149" y="-19" type="curve" smooth="yes"/>
      <point x="188" y="263" type="line" smooth="yes"/>
      <point x="196" y="316"/>
      <point x="234" y="335"/>
      <point x="281" y="335" type="curve"/>
      <point x="284" y="363" type="line"/>
      <point x="235" y="363"/>
      <point x="205" y="380"/>
      <point x="212" y="433" type="curve" smooth="yes"/>
      <point x="252" y="715" type="line" smooth="yes"/>
      <point x="262" y="789"/>
      <point x="220" y="822"/>
      <point x="158" y="822" type="curve"/>
      <point x="157" y="799" type="line"/>
      <point x="217" y="799"/>
      <point x="233" y="771"/>
      <point x="225" y="712" type="curve" smooth="yes"/>
      <point x="187" y="447" type="line" smooth="yes"/>
      <point x="177" y="379"/>
      <point x="200" y="359"/>
      <point x="248" y="349" type="curve"/>
      <point x="195" y="339"/>
      <point x="169" y="319"/>
      <point x="160" y="253" type="curve" smooth="yes"/>
      <point x="123" y="-12" type="line" smooth="yes"/>
      <point x="114" y="-71"/>
      <point x="88" y="-101"/>
      <point x="28" y="-101" type="curve"/>
      <point x="27" y="-124" type="line"/>
    </contour>
  </outline>
</glyph>
<glyph name="asciitilde" format="1">
  <advance width="458"/>
  <unicode hex="007E"/>
  <outline>
    <contour>
      <point x="350" y="275"/>
      <point x="373" y="297"/>
      <point x="403" y="333" type="curve"/>
      <point x="384" y="347" type="line"/>
      <point x="360" y="322"/>
      <point x="344" y="305"/>
      <point x="311" y="305" type="curve" smooth="yes"/>
      <point x="264" y="305"/>
      <point x="225" y="360"/>
      <point x="166" y="360" type="curve"/>
      <point x="125" y="360"/>
      <point x="101" y="338"/>
      <point x="71" y="302" type="curve"/>
      <point x="90" y="288" type="line"/>
      <point x="114" y="313"/>
      <point x="131" y="330"/>
      <point x="166" y="330" type="curve"/>
      <point x="212" y="330"/>
      <point x="256" y="275"/>
      <point x="311" y="275" type="curve" smooth="yes"/>
    </contour>
  </outline>
</glyph>
<glyph name="exclamdown" format="1">
  <advance width="240"/>
  <unicode hex="00A1"/>
  <outline>
    <contour>
      <point x="108" y="251" type="line"/>
      <point x="45" y="-193" type="line"/>
      <point x="74" y="-193" type="line"/>
      <point x="137" y="251" type="line"/>
    </contour>
    <component base="period" xOffset="92" yOffset="409"/>
  </outline>
</glyph>
<glyph name="cent" format="1">
  <advance width="461"/>
  <unicode hex="00A2"/>
  <outline>
    <contour>
      <point x="318" y="677" type="line"/>
      <point x="297" y="527" type="line"/>
      <point x="323" y="527" type="line"/>
      <point x="344" y="677" type="line"/>
    </contour>
    <contour>
      <point x="201" y="-147" type="line"/>
      <point x="228" y="-147" type="line"/>
      <point x="248" y="-6" type="line"/>
      <point x="220" y="-7" type="line"/>
    </contour>
    <component base="c"/>
  </outline>
</glyph>
<glyph name="sterling" format="1">
  <advance width="505"/>
  <unicode hex="00A3"/>
  <outline>
    <contour>
      <point x="253" y="674"/>
      <point x="192" y="599"/>
      <point x="179" y="506" type="curve" smooth="yes"/>
      <point x="159" y="367" type="line"/>
      <point x="94" y="367" type="line"/>
      <point x="90" y="339" type="line"/>
      <point x="156" y="339" type="line"/>
      <point x="128" y="143" type="line" smooth="yes"/>
      <point x="119" y="82"/>
      <point x="90" y="58"/>
      <point x="26" y="28" type="curve"/>
      <point x="23" y="0" type="line"/>
      <point x="397" y="0" type="line"/>
      <point x="406" y="29" type="line"/>
      <point x="72" y="29" type="line"/>
      <point x="123" y="53"/>
      <point x="148" y="76"/>
      <point x="158" y="143" type="curve" smooth="yes"/>
      <point x="185" y="339" type="line"/>
      <point x="404" y="339" type="line"/>
      <point x="408" y="367" type="line"/>
      <point x="189" y="367" type="line"/>
      <point x="208" y="503" type="line" smooth="yes"/>
      <point x="220" y="584"/>
      <point x="271" y="646"/>
      <point x="358" y="646" type="curve" smooth="yes"/>
      <point x="415" y="646"/>
      <point x="447" y="626"/>
      <point x="476" y="587" type="curve"/>
      <point x="498" y="604" type="line"/>
      <point x="464" y="650"/>
      <point x="423" y="674"/>
      <point x="358" y="674" type="curve" smooth="yes"/>
    </contour>
  </outline>
</glyph>
<glyph name="yen" format="1">
  <advance width="492"/>
  <unicode hex="00A5"/>
  <outline>
    <contour>
      <point x="493" y="662" type="line"/>
      <point x="257" y="333" type="line"/>
      <point x="112" y="662" type="line"/>
      <point x="76" y="662" type="line"/>
      <point x="239" y="310" type="line"/>
      <point x="195" y="0" type="line"/>
      <point x="226" y="0" type="line"/>
      <point x="270" y="309" type="line"/>
      <point x="528" y="662" type="line"/>
    </contour>
    <contour>
      <point x="89" y="191" type="line"/>
      <point x="85" y="162" type="line"/>
      <point x="382" y="162" type="line"/>
      <point x="386" y="191" type="line"/>
    </contour>
    <contour>
      <point x="109" y="332" type="line"/>
      <point x="105" y="304" type="line"/>
      <point x="402" y="304" type="line"/>
      <point x="406" y="332" type="line"/>
    </contour>
  </outline>
</glyph>
<glyph name="brokenbar" format="1">
  <advance width="410"/>
  <unicode hex="00A6"/>
  <outline>
    <contour>
      <point x="190" y="262" type="line"/>
      <point x="140" y="-99" type="line"/>
      <point x="170" y="-99" type="line"/>
      <point x="220" y="262" type="line"/>
    </contour>
    <contour>
      <point x="266" y="802" type="line"/>
      <point x="216" y="443" type="line"/>
      <point x="246" y="443" type="line"/>
      <point x="296" y="802" type="line"/>
    </contour>
  </outline>
</glyph>
<glyph name="section" format="1">
  <advance width="532"/>
  <unicode hex="00A7"/>
  <outline>
    <contour>
      <point x="238" y="673"/>
      <point x="161" y="626"/>
      <point x="161" y="543" type="curve" smooth="yes"/>
      <point x="161" y="484"/>
      <point x="197" y="444"/>
      <point x="303" y="407" type="curve" smooth="yes"/>
      <point x="390" y="375"/>
      <point x="412" y="338"/>
      <point x="412" y="298" type="curve" smooth="yes"/>
      <point x="412" y="255"/>
      <point x="396" y="212"/>
      <point x="309" y="165" type="curve"/>
      <point x="327" y="150" type="line"/>
      <point x="413" y="196"/>
      <point x="442" y="236"/>
      <point x="442" y="298" type="curve" smooth="yes"/>
      <point x="442" y="359"/>
      <point x="404" y="400"/>
      <point x="311" y="432" type="curve" smooth="yes"/>
      <point x="219" y="466"/>
      <point x="191" y="496"/>
      <point x="191" y="542" type="curve" smooth="yes"/>
      <point x="191" y="590"/>
      <point x="226" y="646"/>
      <point x="326" y="646" type="curve" smooth="yes"/>
      <point x="379" y="646"/>
      <point x="414" y="632"/>
      <point x="453" y="605" type="curve"/>
      <point x="472" y="628" type="line"/>
      <point x="432" y="654"/>
      <point x="393" y="673"/>
      <point x="327" y="673" type="curve" smooth="yes"/>
    </contour>
    <contour>
      <point x="138" y="414"/>
      <point x="102" y="374"/>
      <point x="102" y="311" type="curve" smooth="yes"/>
      <point x="102" y="249"/>
      <point x="149" y="209"/>
      <point x="243" y="176" type="curve" smooth="yes"/>
      <point x="328" y="143"/>
      <point x="356" y="115"/>
      <point x="356" y="68" type="curve" smooth="yes"/>
      <point x="356" y="22"/>
      <point x="324" y="-38"/>
      <point x="212" y="-38" type="curve" smooth="yes"/>
      <point x="159" y="-38"/>
      <point x="116" y="-25"/>
      <point x="76" y="3" type="curve"/>
      <point x="58" y="-21" type="line"/>
      <point x="104" y="-49"/>
      <point x="147" y="-66"/>
      <point x="212" y="-66" type="curve" smooth="yes"/>
      <point x="309" y="-66"/>
      <point x="387" y="-20"/>
      <point x="387" y="68" type="curve" smooth="yes"/>
      <point x="387" y="132"/>
      <point x="344" y="168"/>
      <point x="254" y="199" type="curve" smooth="yes"/>
      <point x="162" y="235"/>
      <point x="133" y="269"/>
      <point x="133" y="311" type="curve" smooth="yes"/>
      <point x="133" y="368"/>
      <point x="163" y="402"/>
      <point x="236" y="444" type="curve"/>
      <point x="218" y="459" type="line"/>
    </contour>
  </outline>
</glyph>
<glyph name="ordfeminine" format="1">
  <advance width="500"/>
  <unicode hex="00AA"/>
  <outline>
    <contour>
      <point x="259" y="682"/>
      <point x="221" y="672"/>
      <point x="178" y="657" type="curve"/>
      <point x="185" y="631" type="line"/>
      <point x="226" y="645"/>
      <point x="264" y="654"/>
      <point x="301" y="654" type="curve" smooth="yes"/>
      <point x="367" y="654"/>
      <point x="390" y="633"/>
      <point x="390" y="587" type="curve" smooth="yes"/>
      <point x="390" y="579"/>
      <point x="389" y="571"/>
      <point x="388" y="561" type="curve"/>
      <point x="382" y="518" type="line"/>
      <point x="290" y="518" type="line" smooth="yes"/>
      <point x="184" y="518"/>
      <point x="108" y="467"/>
      <point x="108" y="382" type="curve" smooth="yes"/>
      <point x="108" y="321"/>
      <point x="149" y="276"/>
      <point x="222" y="276" type="curve" smooth="yes"/>
      <point x="278" y="276"/>
      <point x="324" y="298"/>
      <point x="361" y="342" type="curve"/>
      <point x="361" y="299"/>
      <point x="376" y="286"/>
      <point x="406" y="276" type="curve"/>
      <point x="414" y="297" type="line"/>
      <point x="385" y="310"/>
      <point x="386" y="334"/>
      <point x="391" y="367" type="curve" smooth="yes"/>
      <point x="418" y="562" type="line"/>
      <point x="419" y="572"/>
      <point x="420" y="581"/>
      <point x="420" y="590" type="curve" smooth="yes"/>
      <point x="420" y="651"/>
      <point x="383" y="682"/>
      <point x="301" y="682" type="curve" smooth="yes"/>
    </contour>
    <contour>
      <point x="363" y="382" type="line"/>
      <point x="330" y="335"/>
      <point x="283" y="304"/>
      <point x="222" y="304" type="curve" smooth="yes"/>
      <point x="171" y="304"/>
      <point x="139" y="336"/>
      <point x="139" y="382" type="curve" smooth="yes"/>
      <point x="139" y="435"/>
      <point x="174" y="490"/>
      <point x="294" y="490" type="curve" smooth="yes"/>
      <point x="378" y="490" type="line"/>
    </contour>
    <component base="minus" xOffset="-34" yOffset="-316"/>
  </outline>
</glyph>
<glyph name="logicalnot" format="1">
  <advance width="499"/>
  <unicode hex="00AC"/>
  <outline>
    <contour>
      <point x="85" y="333" type="line"/>
      <point x="82" y="305" type="line"/>
      <point x="398" y="305" type="line"/>
      <point x="382" y="191" type="line"/>
      <point x="414" y="191" type="line"/>
      <point x="433" y="333" type="line"/>
    </contour>
  </outline>
</glyph>
<glyph name="macron" format="1">
  <advance width="274"/>
  <unicode hex="00AF"/>
  <outline>
    <contour>
      <point x="308" y="712" type="line"/>
      <point x="94" y="712" type="line"/>
      <point x="89" y="683" type="line"/>
      <point x="303" y="683" type="line"/>
    </contour>
  </outline>
</glyph>
<glyph name="degree" format="1">
  <advance width="519"/>
  <unicode hex="00B0"/>
  <outline>
    <contour>
      <point x="182" y="435"/>
      <point x="142" y="483"/>
      <point x="151" y="548" type="curve" smooth="yes"/>
      <point x="161" y="616"/>
      <point x="216" y="664"/>
      <point x="278" y="664" type="curve" smooth="yes"/>
      <point x="345" y="664"/>
      <point x="378" y="618"/>
      <point x="369" y="551" type="curve" smooth="yes"/>
      <point x="360" y="485"/>
      <point x="311" y="435"/>
      <point x="242" y="435" type="curve" smooth="yes"/>
    </contour>
    <contour>
      <point x="319" y="407"/>
      <point x="388" y="463"/>
      <point x="399" y="547" type="curve" smooth="yes"/>
      <point x="412" y="636"/>
      <point x="357" y="692"/>
      <point x="278" y="692" type="curve" smooth="yes"/>
      <point x="208" y="692"/>
      <point x="133" y="637"/>
      <point x="121" y="552" type="curve" smooth="yes"/>
      <point x="108" y="461"/>
      <point x="170" y="407"/>
      <point x="242" y="407" type="curve" smooth="yes"/>
    </contour>
  </outline>
</glyph>
<glyph name="acute" format="1">
  <advance width="255"/>
  <unicode hex="00B4"/>
  <outline>
    <contour>
      <point x="88" y="672" type="line"/>
      <point x="96" y="651" type="line"/>
      <point x="290" y="735" type="line"/>
      <point x="280" y="767" type="line"/>
    </contour>
  </outline>
</glyph>
<glyph name="paragraph" format="1">
  <advance width="687"/>
  <unicode hex="00B6"/>
  <outline>
    <contour>
      <point x="389" y="681" type="line"/>
      <point x="382" y="648" type="line"/>
      <point x="262" y="-199" type="line"/>
      <point x="293" y="-193" type="line"/>
      <point x="412" y="654" type="line"/>
      <point x="552" y="654" type="line"/>
      <point x="432" y="-199" type="line"/>
      <point x="463" y="-193" type="line"/>
      <point x="586" y="682" type="line"/>
    </contour>
    <contour>
      <point x="247" y="681"/>
      <point x="160" y="614"/>
      <point x="143" y="495" type="curve" smooth="yes"/>
      <point x="128" y="391"/>
      <point x="173" y="304"/>
      <point x="348" y="304" type="curve"/>
      <point x="388" y="681" type="line"/>
    </contour>
  </outline>
</glyph>
<glyph name="ordmasculine" format="1">
  <advance width="500"/>
  <unicode hex="00BA"/>
  <outline>
    <contour>
      <point x="156" y="682"/>
      <point x="105" y="536"/>
      <point x="105" y="435" type="curve" smooth="yes"/>
      <point x="105" y="335"/>
      <point x="158" y="276"/>
      <point x="251" y="276" type="curve" smooth="yes"/>
      <point x="401" y="276"/>
      <point x="453" y="421"/>
      <point x="453" y="525" type="curve" smooth="yes"/>
      <point x="453" y="628"/>
      <point x="398" y="682"/>
      <point x="305" y="682" type="curve" smooth="yes"/>
    </contour>
    <contour>
      <point x="381" y="655"/>
      <point x="422" y="611"/>
      <point x="422" y="527" type="curve" smooth="yes"/>
      <point x="422" y="441"/>
      <point x="385" y="304"/>
      <point x="252" y="304" type="curve" smooth="yes"/>
      <point x="178" y="304"/>
      <point x="136" y="350"/>
      <point x="136" y="435" type="curve" smooth="yes"/>
      <point x="136" y="521"/>
      <point x="174" y="655"/>
      <point x="306" y="655" type="curve" smooth="yes"/>
    </contour>
    <component base="minus" xOffset="-37" yOffset="-316"/>
  </outline>
</glyph>
<glyph name="questiondown" format="1">
  <advance width="437"/>
  <unicode hex="00BF"/>
  <outline>
    <contour>
      <point x="219" y="-199"/>
      <point x="275" y="-172"/>
      <point x="335" y="-113" type="curve"/>
      <point x="315" y="-94" type="line"/>
      <point x="260" y="-146"/>
      <point x="214" y="-172"/>
      <point x="144" y="-172" type="curve" smooth="yes"/>
      <point x="76" y="-172"/>
      <point x="35" y="-135"/>
      <point x="35" y="-80" type="curve" smooth="yes"/>
      <point x="35" y="71"/>
      <point x="260" y="72"/>
      <point x="260" y="221" type="curve" smooth="yes"/>
      <point x="260" y="240"/>
      <point x="256" y="260"/>
      <point x="250" y="279" type="curve"/>
      <point x="223" y="272" type="line"/>
      <point x="226" y="259"/>
      <point x="230" y="243"/>
      <point x="230" y="221" type="curve" smooth="yes"/>
      <point x="230" y="89"/>
      <point x="4" y="88"/>
      <point x="4" y="-81" type="curve" smooth="yes"/>
      <point x="4" y="-149"/>
      <point x="54" y="-199"/>
      <point x="144" y="-199" type="curve" smooth="yes"/>
    </contour>
    <component base="period" xOffset="305" yOffset="494" xScale="-1" yScale="-1"/>
  </outline>
</glyph>
<glyph name="AE" format="1">
  <advance width="757"/>
  <unicode hex="00C6"/>
  <outline>
    <contour>
      <point x="331" y="682" type="line"/>
      <point x="-28" y="0" type="line"/>
      <point x="5" y="0" type="line"/>
      <point x="349" y="657" type="line"/>
      <point x="428" y="0" type="line"/>
      <point x="680" y="0" type="line"/>
      <point x="685" y="29" type="line"/>
      <point x="455" y="29" type="line"/>
      <point x="378" y="653" type="line"/>
      <point x="715" y="653" type="line"/>
      <point x="723" y="682" type="line"/>
    </contour>
    <contour>
      <point x="114" y="221" type="line"/>
      <point x="97" y="193" type="line"/>
      <point x="411" y="193" type="line"/>
      <point x="408" y="221" type="line"/>
    </contour>
    <contour>
      <point x="404" y="373" type="line"/>
      <point x="408" y="345" type="line"/>
      <point x="669" y="345" type="line"/>
      <point x="673" y="373" type="line"/>
    </contour>
    <contour>
      <point x="501" y="682" type="move" name="top"/>
    </contour>
    <contour>
      <point x="342" y="0" type="move" name="bottom"/>
    </contour>
  </outline>
</glyph>
<glyph name="Eth" format="1">
  <advance width="613"/>
  <unicode hex="00D0"/>
  <outline>
    <contour>
      <point x="131" y="367" type="line"/>
      <point x="40" y="367" type="line"/>
      <point x="36" y="339" type="line"/>
      <point x="348" y="339" type="line"/>
      <point x="352" y="367" type="line"/>
    </contour>
    <component base="D" xOffset="-9"/>
  </outline>
</glyph>
<glyph name="multiply" format="1">
  <advance width="488"/>
  <unicode hex="00D7"/>
  <outline>
    <contour>
      <point x="251" y="327" type="line"/>
      <point x="144" y="459" type="line"/>
      <point x="120" y="439" type="line"/>
      <point x="230" y="307" type="line"/>
      <point x="83" y="176" type="line"/>
      <point x="103" y="156" type="line"/>
      <point x="248" y="287" type="line"/>
      <point x="357" y="156" type="line"/>
      <point x="381" y="176" type="line"/>
      <point x="270" y="307" type="line"/>
      <point x="418" y="439" type="line"/>
      <point x="398" y="459" type="line"/>
    </contour>
  </outline>
</glyph>
<glyph name="Oslash" format="1">
  <advance width="690"/>
  <unicode hex="00D8"/>
  <outline>
    <contour>
      <point x="487" y="675" type="line"/>
      <point x="480" y="656" type="line"/>
      <point x="209" y="34" type="line"/>
      <point x="201" y="20" type="line"/>
      <point x="145" y="-105" type="line"/>
      <point x="172" y="-114" type="line"/>
      <point x="225" y="9" type="line"/>
      <point x="231" y="27" type="line"/>
      <point x="501" y="648" type="line"/>
      <point x="510" y="664" type="line"/>
      <point x="568" y="794" type="line"/>
      <point x="540" y="803" type="line"/>
    </contour>
    <contour>
      <point x="163" y="692"/>
      <point x="80" y="430"/>
      <point x="80" y="259" type="curve" smooth="yes"/>
      <point x="80" y="85"/>
      <point x="169" y="-10"/>
      <point x="309" y="-10" type="curve" smooth="yes"/>
      <point x="554" y="-10"/>
      <point x="633" y="250"/>
      <point x="633" y="426" type="curve" smooth="yes"/>
      <point x="633" y="601"/>
      <point x="544" y="692"/>
      <point x="405" y="692" type="curve" smooth="yes"/>
    </contour>
    <contour>
      <point x="526" y="664"/>
      <point x="601" y="585"/>
      <point x="601" y="427" type="curve" smooth="yes"/>
      <point x="601" y="270"/>
      <point x="538" y="19"/>
      <point x="309" y="19" type="curve" smooth="yes"/>
      <point x="189" y="19"/>
      <point x="112" y="100"/>
      <point x="112" y="256" type="curve" smooth="yes"/>
      <point x="112" y="415"/>
      <point x="182" y="664"/>
      <point x="404" y="664" type="curve"/>
    </contour>
    <contour>
      <point x="398" y="692" type="move" name="top"/>
    </contour>
    <contour>
      <point x="308" y="0" type="move" name="bottom"/>
    </contour>
  </outline>
</glyph>
<glyph name="Thorn" format="1">
  <advance width="561"/>
  <unicode hex="00DE"/>
  <outline>
    <contour>
      <point x="172" y="556" type="line"/>
      <point x="179" y="527" type="line"/>
      <point x="303" y="527" type="line" smooth="yes"/>
      <point x="424" y="527"/>
      <point x="491" y="492"/>
      <point x="491" y="384" type="curve" smooth="yes"/>
      <point x="491" y="280"/>
      <point x="435" y="173"/>
      <point x="249" y="173" type="curve" smooth="yes"/>
      <point x="132" y="173" type="line"/>
      <point x="128" y="144" type="line"/>
      <point x="244" y="144" type="line" smooth="yes"/>
      <point x="463" y="144"/>
      <point x="522" y="273"/>
      <point x="522" y="385" type="curve" smooth="yes"/>
      <point x="522" y="508"/>
      <point x="443" y="556"/>
      <point x="305" y="556" type="curve" smooth="yes"/>
    </contour>
    <contour>
      <point x="179" y="682" type="line"/>
      <point x="83" y="0" type="line"/>
      <point x="114" y="0" type="line"/>
      <point x="210" y="682" type="line"/>
    </contour>
    <contour>
      <point x="340" y="682" type="move" name="top"/>
    </contour>
    <contour>
      <point x="244" y="0" type="move" name="bottom"/>
    </contour>
  </outline>
</glyph>
<glyph name="germandbls" format="1">
  <advance width="575"/>
  <unicode hex="00DF"/>
  <outline>
    <contour>
      <point x="345" y="490"/>
      <point x="495" y="498"/>
      <point x="495" y="626" type="curve" smooth="yes"/>
      <point x="495" y="692"/>
      <point x="441" y="738"/>
      <point x="359" y="738" type="curve" smooth="yes"/>
      <point x="259" y="738"/>
      <point x="175" y="671"/>
      <point x="157" y="542" type="curve"/>
      <point x="82" y="10" type="line" smooth="yes"/>
      <point x="65" y="-107"/>
      <point x="30" y="-136"/>
      <point x="-44" y="-172" type="curve"/>
      <point x="-34" y="-196" type="line"/>
      <point x="52" y="-156"/>
      <point x="93" y="-125"/>
      <point x="111" y="7" type="curve" smooth="yes"/>
      <point x="186" y="536" type="line"/>
      <point x="203" y="657"/>
      <point x="275" y="711"/>
      <point x="359" y="711" type="curve" smooth="yes"/>
      <point x="424" y="711"/>
      <point x="464" y="679"/>
      <point x="464" y="626" type="curve" smooth="yes"/>
      <point x="464" y="505"/>
      <point x="316" y="509"/>
      <point x="316" y="411" type="curve" smooth="yes"/>
      <point x="316" y="318"/>
      <point x="476" y="308"/>
      <point x="476" y="164" type="curve" smooth="yes"/>
      <point x="476" y="112"/>
      <point x="437" y="18"/>
      <point x="327" y="18" type="curve" smooth="yes"/>
      <point x="290" y="18"/>
      <point x="265" y="26"/>
      <point x="236" y="39" type="curve"/>
      <point x="223" y="16" type="line"/>
      <point x="245" y="4"/>
      <point x="285" y="-10"/>
      <point x="328" y="-10" type="curve" smooth="yes"/>
      <point x="456" y="-10"/>
      <point x="506" y="96"/>
      <point x="506" y="164" type="curve" smooth="yes"/>
      <point x="506" y="318"/>
      <point x="345" y="337"/>
      <point x="345" y="411" type="curve" smooth="yes"/>
    </contour>
  </outline>
</glyph>
<glyph name="ae" format="1">
  <advance width="833"/>
  <unicode hex="00E6"/>
  <outline>
    <contour>
      <point x="240" y="530"/>
      <point x="191" y="517"/>
      <point x="136" y="496" type="curve"/>
      <point x="145" y="471" type="line"/>
      <point x="197" y="491"/>
      <point x="244" y="503"/>
      <point x="291" y="503" type="curve" smooth="yes"/>
      <point x="373" y="503"/>
      <point x="418" y="453"/>
      <point x="421" y="381" type="curve"/>
      <point x="415" y="369"/>
      <point x="404" y="339"/>
      <point x="394" y="300" type="curve"/>
      <point x="275" y="300" type="line" smooth="yes"/>
      <point x="106" y="300"/>
      <point x="46" y="212"/>
      <point x="46" y="124" type="curve" smooth="yes"/>
      <point x="46" y="44"/>
      <point x="100" y="-10"/>
      <point x="190" y="-10" type="curve" smooth="yes"/>
      <point x="259" y="-10"/>
      <point x="326" y="17"/>
      <point x="394" y="104" type="curve"/>
      <point x="419" y="29"/>
      <point x="478" y="-10"/>
      <point x="561" y="-10" type="curve" smooth="yes"/>
      <point x="627" y="-10"/>
      <point x="678" y="12"/>
      <point x="730" y="51" type="curve"/>
      <point x="714" y="73" type="line"/>
      <point x="664" y="38"/>
      <point x="623" y="18"/>
      <point x="561" y="18" type="curve" smooth="yes"/>
      <point x="472" y="18"/>
      <point x="411" y="67"/>
      <point x="411" y="213" type="curve"/>
      <point x="648" y="227"/>
      <point x="789" y="288"/>
      <point x="789" y="409" type="curve" smooth="yes"/>
      <point x="789" y="482"/>
      <point x="730" y="530"/>
      <point x="641" y="530" type="curve" smooth="yes"/>
      <point x="542" y="530"/>
      <point x="465" y="463"/>
      <point x="443" y="413" type="curve"/>
      <point x="433" y="478"/>
      <point x="388" y="530"/>
      <point x="291" y="530" type="curve" smooth="yes"/>
    </contour>
    <contour>
      <point x="379" y="227"/>
      <point x="378" y="176"/>
      <point x="387" y="134" type="curve"/>
      <point x="323" y="50"/>
      <point x="259" y="18"/>
      <point x="190" y="18" type="curve" smooth="yes"/>
      <point x="122" y="18"/>
      <point x="77" y="58"/>
      <point x="77" y="124" type="curve" smooth="yes"/>
      <point x="77" y="195"/>
      <point x="123" y="274"/>
      <point x="279" y="274" type="curve" smooth="yes"/>
      <point x="387" y="274" type="line"/>
    </contour>
    <contour>
      <point x="717" y="503"/>
      <point x="758" y="464"/>
      <point x="758" y="408" type="curve" smooth="yes"/>
      <point x="758" y="310"/>
      <point x="642" y="254"/>
      <point x="413" y="239" type="curve"/>
      <point x="426" y="363"/>
      <point x="495" y="503"/>
      <point x="641" y="503" type="curve" smooth="yes"/>
    </contour>
    <contour>
      <point x="450" y="520" type="move" name="top"/>
    </contour>
    <contour>
      <point x="380" y="0" type="move" name="bottom"/>
    </contour>
  </outline>
</glyph>
<glyph name="eth" format="1">
  <advance width="554"/>
  <unicode hex="00F0"/>
  <outline>
    <contour>
      <point x="444" y="733" type="line"/>
      <point x="426" y="750" type="line"/>
      <point x="347" y="678" type="line"/>
      <point x="306" y="709"/>
      <point x="260" y="729"/>
      <point x="214" y="739" type="curve"/>
      <point x="206" y="713" type="line"/>
      <point x="250" y="704"/>
      <point x="296" y="682"/>
      <point x="327" y="660" type="curve"/>
      <point x="231" y="572" type="line"/>
      <point x="254" y="563" type="line"/>
      <point x="346" y="645" type="line"/>
      <point x="421" y="576"/>
      <point x="452" y="501"/>
      <point x="451" y="373" type="curve"/>
      <point x="412" y="428"/>
      <point x="359" y="463"/>
      <point x="287" y="463" type="curve" smooth="yes"/>
      <point x="123" y="463"/>
      <point x="62" y="308"/>
      <point x="62" y="177" type="curve" smooth="yes"/>
      <point x="62" y="63"/>
      <point x="120" y="-10"/>
      <point x="233" y="-10" type="curve" smooth="yes"/>
      <point x="351" y="-10"/>
      <point x="444" y="83"/>
      <point x="473" y="290" type="curve" smooth="yes"/>
      <point x="478" y="326"/>
      <point x="481" y="360"/>
      <point x="481" y="391" type="curve" smooth="yes"/>
      <point x="481" y="520"/>
      <point x="436" y="602"/>
      <point x="367" y="663" type="curve"/>
    </contour>
    <contour>
      <point x="142" y="18"/>
      <point x="93" y="76"/>
      <point x="93" y="177" type="curve" smooth="yes"/>
      <point x="93" y="298"/>
      <point x="145" y="435"/>
      <point x="289" y="435" type="curve" smooth="yes"/>
      <point x="354" y="435"/>
      <point x="407" y="399"/>
      <point x="448" y="338" type="curve"/>
      <point x="447" y="329"/>
      <point x="446" y="313"/>
      <point x="443" y="294" type="curve" smooth="yes"/>
      <point x="417" y="111"/>
      <point x="341" y="18"/>
      <point x="233" y="18" type="curve" smooth="yes"/>
    </contour>
    <contour>
      <point x="346" y="734" type="move" name="top"/>
    </contour>
    <contour>
      <point x="233" y="0" type="move" name="bottom"/>
    </contour>
  </outline>
</glyph>
<glyph name="oslash" format="1">
  <advance width="561"/>
  <unicode hex="00F8"/>
  <outline>
    <contour>
      <point x="174" y="2" type="line"/>
      <point x="194" y="-6"/>
      <point x="218" y="-10"/>
      <point x="244" y="-10" type="curve" smooth="yes"/>
      <point x="436" y="-10"/>
      <point x="496" y="196"/>
      <point x="496" y="327" type="curve" smooth="yes"/>
      <point x="496" y="414"/>
      <point x="467" y="475"/>
      <point x="414" y="506" type="curve"/>
      <point x="473" y="634" type="line"/>
      <point x="447" y="642" type="line"/>
      <point x="389" y="518" type="line"/>
      <point x="368" y="526"/>
      <point x="344" y="530"/>
      <point x="317" y="530" type="curve" smooth="yes"/>
      <point x="128" y="530"/>
      <point x="65" y="331"/>
      <point x="65" y="197" type="curve" smooth="yes"/>
      <point x="65" y="109"/>
      <point x="95" y="46"/>
      <point x="149" y="14" type="curve"/>
      <point x="88" y="-113" type="line"/>
      <point x="113" y="-121" type="line"/>
    </contour>
    <contour>
      <point x="120" y="66"/>
      <point x="96" y="120"/>
      <point x="96" y="196" type="curve"/>
      <point x="96" y="312"/>
      <point x="147" y="503"/>
      <point x="317" y="503" type="curve" smooth="yes"/>
      <point x="340" y="503"/>
      <point x="360" y="499"/>
      <point x="378" y="492" type="curve"/>
      <point x="163" y="39" type="line"/>
    </contour>
    <contour>
      <point x="222" y="18"/>
      <point x="202" y="21"/>
      <point x="185" y="28" type="curve"/>
      <point x="400" y="481" type="line"/>
      <point x="442" y="454"/>
      <point x="465" y="401"/>
      <point x="465" y="326" type="curve" smooth="yes"/>
      <point x="465" y="204"/>
      <point x="411" y="18"/>
      <point x="244" y="18" type="curve" smooth="yes"/>
    </contour>
    <contour>
      <point x="318" y="520" type="move" name="top"/>
    </contour>
    <contour>
      <point x="241" y="0" type="move" name="bottom"/>
    </contour>
  </outline>
</glyph>
<glyph name="thorn" format="1">
  <advance width="570"/>
  <unicode hex="00FE"/>
  <outline>
    <contour>
      <point x="274" y="530"/>
      <point x="215" y="493"/>
      <point x="170" y="442" type="curve"/>
      <point x="212" y="738" type="line"/>
      <point x="182" y="734" type="line"/>
      <point x="50" y="-199" type="line"/>
      <point x="81" y="-195" type="line"/>
      <point x="110" y="16" type="line"/>
      <point x="155" y="-3"/>
      <point x="198" y="-10"/>
      <point x="243" y="-10" type="curve" smooth="yes"/>
      <point x="442" y="-10"/>
      <point x="501" y="200"/>
      <point x="501" y="339" type="curve" smooth="yes"/>
      <point x="501" y="463"/>
      <point x="447" y="530"/>
      <point x="345" y="530" type="curve" smooth="yes"/>
    </contour>
    <contour>
      <point x="186" y="18"/>
      <point x="150" y="30"/>
      <point x="115" y="43" type="curve"/>
      <point x="165" y="404" type="line"/>
      <point x="217" y="462"/>
      <point x="268" y="502"/>
      <point x="345" y="502" type="curve" smooth="yes"/>
      <point x="428" y="502"/>
      <point x="471" y="448"/>
      <point x="471" y="341" type="curve" smooth="yes"/>
      <point x="471" y="219"/>
      <point x="422" y="18"/>
      <point x="242" y="18" type="curve" smooth="yes"/>
    </contour>
    <contour>
      <point x="352" y="734" type="move" name="top"/>
    </contour>
  </outline>
</glyph>
<glyph name="dcroat" format="1">
  <advance width="581"/>
  <unicode hex="0111"/>
  <outline>
    <contour>
      <point x="312" y="652" type="line"/>
      <point x="312" y="625" type="line"/>
      <point x="509" y="625" type="line"/>
      <point x="584" y="625" type="line"/>
      <point x="588" y="652" type="line"/>
    </contour>
    <component base="d"/>
  </outline>
</glyph>
<glyph name="Hbar" format="1">
  <advance width="652"/>
  <unicode hex="0126"/>
  <outline>
    <contour>
      <point x="577" y="542" type="line"/>
      <point x="98" y="542" type="line"/>
      <point x="94" y="518" type="line"/>
      <point x="157" y="518" type="line"/>
      <point x="636" y="518" type="line"/>
      <point x="640" y="542" type="line"/>
    </contour>
    <component base="H"/>
  </outline>
</glyph>
<glyph name="hbar" format="1">
  <advance width="587"/>
  <unicode hex="0127"/>
  <outline>
    <contour>
      <point x="103" y="652" type="line"/>
      <point x="99" y="625" type="line"/>
      <point x="174" y="625" type="line"/>
      <point x="380" y="625" type="line"/>
      <point x="390" y="652" type="line"/>
    </contour>
    <component base="h" xOffset="5"/>
  </outline>
</glyph>
<glyph name="dotlessi" format="1">
  <advance width="260"/>
  <unicode hex="0131"/>
  <outline>
    <contour>
      <point x="152" y="520" type="line"/>
      <point x="78" y="0" type="line"/>
      <point x="108" y="0" type="line"/>
      <point x="182" y="520" type="line"/>
    </contour>
    <contour>
      <point x="108" y="0" type="move" name="ogonek"/>
    </contour>
    <contour>
      <point x="93" y="0" type="move" name="bottom"/>
    </contour>
    <contour>
      <point x="167" y="520" type="move" name="top"/>
    </contour>
  </outline>
</glyph>
<glyph name="kgreenlandic" format="1">
  <advance width="469"/>
  <unicode hex="0138"/>
  <outline>
    <contour>
      <point x="428" y="520" type="line"/>
      <point x="153" y="274" type="line"/>
      <point x="381" y="0" type="line"/>
      <point x="417" y="0" type="line"/>
      <point x="191" y="272" type="line"/>
      <point x="467" y="520" type="line"/>
    </contour>
    <contour>
      <point x="152" y="520" type="line"/>
      <point x="78" y="0" type="line"/>
      <point x="108" y="0" type="line"/>
      <point x="182" y="520" type="line"/>
    </contour>
    <contour>
      <point x="271" y="520" type="move" name="top"/>
    </contour>
    <contour>
      <point x="198" y="0" type="move" name="bottom"/>
    </contour>
  </outline>
</glyph>
<glyph name="Lslash" format="1">
  <advance width="466"/>
  <unicode hex="0141"/>
  <outline>
    <contour>
      <point x="130" y="30" type="line"/>
      <point x="171" y="320" type="line"/>
      <point x="400" y="453" type="line"/>
      <point x="389" y="475" type="line"/>
      <point x="175" y="351" type="line"/>
      <point x="221" y="682" type="line"/>
      <point x="190" y="682" type="line"/>
      <point x="141" y="331" type="line"/>
      <point x="50" y="279" type="line"/>
      <point x="61" y="257" type="line"/>
      <point x="137" y="301" type="line"/>
      <point x="94" y="0" type="line"/>
      <point x="408" y="0" type="line"/>
      <point x="419" y="30" type="line"/>
    </contour>
  </outline>
</glyph>
<glyph name="lslash" format="1">
  <advance width="283"/>
  <unicode hex="0142"/>
  <outline>
    <contour>
      <point x="49" y="333" type="line"/>
      <point x="61" y="311" type="line"/>
      <point x="288" y="440" type="line"/>
      <point x="277" y="463" type="line"/>
    </contour>
    <component base="l"/>
  </outline>
</glyph>
<glyph name="napostrophe" format="1">
  <advance width="582"/>
  <unicode hex="0149"/>
  <outline>
    <contour>
      <point x="54" y="738"/>
      <point x="41" y="723"/>
      <point x="41" y="705" type="curve" smooth="yes"/>
      <point x="41" y="692"/>
      <point x="48" y="682"/>
      <point x="61" y="677" type="curve"/>
      <point x="13" y="558" type="line"/>
      <point x="34" y="558" type="line"/>
      <point x="83" y="649" type="line" smooth="yes"/>
      <point x="100" y="681"/>
      <point x="106" y="691"/>
      <point x="106" y="710" type="curve" smooth="yes"/>
      <point x="106" y="723"/>
      <point x="97" y="738"/>
      <point x="75" y="738" type="curve" smooth="yes"/>
    </contour>
    <component base="n"/>
  </outline>
</glyph>
<glyph name="eng" format="1">
  <advance width="582"/>
  <unicode hex="014B"/>
  <outline>
    <component base="n"/>
    <component base="hookHELPER" xOffset="237"/>
    <contour>
      <point x="237" y="-193" type="move" name="bottom"/>
    </contour>
  </outline>
</glyph>
<glyph name="OE" format="1">
  <advance width="847"/>
  <unicode hex="0152"/>
  <outline>
    <contour>
      <point x="166" y="692"/>
      <point x="79" y="426"/>
      <point x="79" y="258" type="curve" smooth="yes"/>
      <point x="79" y="85"/>
      <point x="167" y="-10"/>
      <point x="298" y="-10" type="curve" smooth="yes"/>
      <point x="335" y="-10"/>
      <point x="373" y="-1"/>
      <point x="406" y="17" type="curve"/>
      <point x="560" y="83"/>
      <point x="612" y="288"/>
      <point x="612" y="429" type="curve" smooth="yes"/>
      <point x="612" y="548"/>
      <point x="569" y="627"/>
      <point x="495" y="665" type="curve"/>
      <point x="470" y="683"/>
      <point x="434" y="692"/>
      <point x="393" y="692" type="curve" smooth="yes"/>
    </contour>
    <contour>
      <point x="407" y="29" type="line"/>
      <point x="358" y="0" type="line"/>
      <point x="770" y="0" type="line"/>
      <point x="775" y="29" type="line"/>
    </contour>
    <contour>
      <point x="599" y="373" type="line"/>
      <point x="595" y="345" type="line"/>
      <point x="769" y="345" type="line"/>
      <point x="773" y="373" type="line"/>
    </contour>
    <contour>
      <point x="457" y="682" type="line"/>
      <point x="484" y="653" type="line"/>
      <point x="852" y="653" type="line"/>
      <point x="860" y="682" type="line"/>
    </contour>
    <contour>
      <point x="507" y="664"/>
      <point x="581" y="584"/>
      <point x="581" y="431" type="curve" smooth="yes"/>
      <point x="581" y="280"/>
      <point x="515" y="19"/>
      <point x="298" y="19" type="curve" smooth="yes"/>
      <point x="187" y="19"/>
      <point x="111" y="100"/>
      <point x="111" y="255" type="curve" smooth="yes"/>
      <point x="111" y="414"/>
      <point x="184" y="664"/>
      <point x="393" y="664" type="curve"/>
    </contour>
  </outline>
</glyph>
<glyph name="oe" format="1">
  <advance width="908"/>
  <unicode hex="0153"/>
  <outline>
    <contour>
      <point x="128" y="530"/>
      <point x="65" y="331"/>
      <point x="65" y="197" type="curve" smooth="yes"/>
      <point x="65" y="66"/>
      <point x="131" y="-10"/>
      <point x="244" y="-10" type="curve" smooth="yes"/>
      <point x="426" y="-10"/>
      <point x="496" y="196"/>
      <point x="496" y="327" type="curve"/>
      <point x="487" y="468"/>
      <point x="429" y="530"/>
      <point x="317" y="530" type="curve" smooth="yes"/>
    </contour>
    <contour>
      <point x="412" y="503"/>
      <point x="465" y="441"/>
      <point x="465" y="326" type="curve" smooth="yes"/>
      <point x="465" y="204"/>
      <point x="411" y="18"/>
      <point x="244" y="18" type="curve" smooth="yes"/>
      <point x="150" y="18"/>
      <point x="96" y="81"/>
      <point x="96" y="196" type="curve" smooth="yes"/>
      <point x="96" y="312"/>
      <point x="147" y="503"/>
      <point x="317" y="503" type="curve" smooth="yes"/>
    </contour>
    <contour>
      <point x="535" y="530"/>
      <point x="466" y="351"/>
      <point x="456" y="197" type="curve"/>
      <point x="465" y="63"/>
      <point x="524" y="-10"/>
      <point x="637" y="-10" type="curve" smooth="yes"/>
      <point x="703" y="-10"/>
      <point x="754" y="12"/>
      <point x="806" y="51" type="curve"/>
      <point x="790" y="73" type="line"/>
      <point x="740" y="38"/>
      <point x="699" y="18"/>
      <point x="637" y="18" type="curve" smooth="yes"/>
      <point x="548" y="18"/>
      <point x="487" y="73"/>
      <point x="487" y="198" type="curve" smooth="yes"/>
      <point x="487" y="330"/>
      <point x="554" y="503"/>
      <point x="712" y="503" type="curve" smooth="yes"/>
      <point x="793" y="503"/>
      <point x="834" y="464"/>
      <point x="834" y="409" type="curve" smooth="yes"/>
      <point x="834" y="309"/>
      <point x="716" y="253"/>
      <point x="483" y="239" type="curve"/>
      <point x="480" y="213" type="line"/>
      <point x="721" y="226"/>
      <point x="865" y="287"/>
      <point x="865" y="410" type="curve" smooth="yes"/>
      <point x="865" y="482"/>
      <point x="806" y="530"/>
      <point x="712" y="530" type="curve" smooth="yes"/>
    </contour>
    <contour>
      <point x="491" y="520" type="move" name="top"/>
    </contour>
    <contour>
      <point x="451" y="0" type="move" name="bottom"/>
    </contour>
  </outline>
</glyph>
<glyph name="Tbar" format="1">
  <advance width="485"/>
  <unicode hex="0166"/>
  <outline>
    <contour>
      <point x="517" y="652" type="line"/>
      <point x="526" y="682" type="line"/>
      <point x="74" y="682" type="line"/>
      <point x="70" y="652" type="line"/>
      <point x="278" y="652" type="line"/>
      <point x="240" y="382" type="line"/>
      <point x="118" y="382" type="line"/>
      <point x="114" y="354" type="line"/>
      <point x="236" y="354" type="line"/>
      <point x="186" y="0" type="line"/>
      <point x="217" y="0" type="line"/>
      <point x="267" y="354" type="line"/>
      <point x="393" y="354" type="line"/>
      <point x="397" y="382" type="line"/>
      <point x="271" y="382" type="line"/>
      <point x="309" y="652" type="line"/>
    </contour>
  </outline>
</glyph>
<glyph name="tbar" format="1">
  <advance width="325"/>
  <unicode hex="0167"/>
  <outline>
    <contour>
      <point x="124" y="344" type="line"/>
      <point x="41" y="344" type="line"/>
      <point x="37" y="317" type="line"/>
      <point x="278" y="317" type="line"/>
      <point x="287" y="344" type="line"/>
    </contour>
    <component base="t"/>
  </outline>
</glyph>
<glyph name="longs" format="1">
  <advance width="310"/>
  <unicode hex="017F"/>
  <outline>
    <contour>
      <point x="236" y="738"/>
      <point x="179" y="695"/>
      <point x="168" y="617" type="curve" smooth="yes"/>
      <point x="82" y="0" type="line"/>
      <point x="112" y="0" type="line"/>
      <point x="197" y="613" type="line" smooth="yes"/>
      <point x="207" y="683"/>
      <point x="252" y="711"/>
      <point x="313" y="711" type="curve" smooth="yes"/>
      <point x="351" y="711"/>
      <point x="377" y="702"/>
      <point x="414" y="682" type="curve"/>
      <point x="428" y="704" type="line"/>
      <point x="391" y="726"/>
      <point x="355" y="738"/>
      <point x="315" y="738" type="curve" smooth="yes"/>
    </contour>
    <contour>
      <point x="66" y="520" type="line"/>
      <point x="62" y="493" type="line"/>
      <point x="167" y="493" type="line"/>
      <point x="175" y="520" type="line"/>
    </contour>
  </outline>
</glyph>
<glyph name="uni0180" format="1">
  <advance width="571"/>
  <unicode hex="0180"/>
  <outline>
    <contour>
      <point x="103" y="652" type="line"/>
      <point x="99" y="625" type="line"/>
      <point x="174" y="625" type="line"/>
      <point x="380" y="625" type="line"/>
      <point x="390" y="652" type="line"/>
    </contour>
    <component base="b" xOffset="5"/>
  </outline>
</glyph>
<glyph name="uni0183" format="1">
  <advance width="566"/>
  <unicode hex="0183"/>
  <outline>
    <contour>
      <point x="448" y="706" type="line"/>
      <point x="458" y="734" type="line"/>
      <point x="192" y="734" type="line"/>
      <point x="208" y="706" type="line"/>
    </contour>
    <contour>
      <point x="183" y="734" type="line"/>
      <point x="82" y="23" type="line"/>
      <point x="143" y="-1"/>
      <point x="184" y="-10"/>
      <point x="242" y="-10" type="curve" smooth="yes"/>
      <point x="442" y="-10"/>
      <point x="502" y="200"/>
      <point x="502" y="339" type="curve" smooth="yes"/>
      <point x="502" y="463"/>
      <point x="448" y="530"/>
      <point x="346" y="530" type="curve" smooth="yes"/>
      <point x="275" y="530"/>
      <point x="217" y="494"/>
      <point x="172" y="443" type="curve"/>
      <point x="213" y="734" type="line"/>
    </contour>
    <contour>
      <point x="429" y="502"/>
      <point x="472" y="448"/>
      <point x="472" y="341" type="curve" smooth="yes"/>
      <point x="472" y="219"/>
      <point x="422" y="18"/>
      <point x="241" y="18" type="curve" smooth="yes"/>
      <point x="185" y="18"/>
      <point x="149" y="29"/>
      <point x="116" y="43" type="curve"/>
      <point x="166" y="404" type="line"/>
      <point x="218" y="462"/>
      <point x="269" y="502"/>
      <point x="346" y="502" type="curve" smooth="yes"/>
    </contour>
  </outline>
</glyph>
<glyph name="uni0184" format="1">
  <advance width="551"/>
  <unicode hex="0184"/>
  <outline>
    <contour>
      <point x="240" y="0" type="line" smooth="yes"/>
      <point x="437" y="0"/>
      <point x="502" y="129"/>
      <point x="502" y="240" type="curve" smooth="yes"/>
      <point x="502" y="358"/>
      <point x="426" y="412"/>
      <point x="296" y="412" type="curve" smooth="yes"/>
      <point x="165" y="412" type="line"/>
      <point x="161" y="383" type="line"/>
      <point x="297" y="383" type="line" smooth="yes"/>
      <point x="407" y="383"/>
      <point x="470" y="341"/>
      <point x="470" y="239" type="curve" smooth="yes"/>
      <point x="470" y="156"/>
      <point x="423" y="29"/>
      <point x="251" y="29" type="curve" smooth="yes"/>
      <point x="119" y="29" type="line"/>
      <point x="210" y="682" type="line"/>
      <point x="185" y="682" type="line"/>
      <point x="164" y="570" type="line"/>
      <point x="83" y="0" type="line"/>
    </contour>
    <contour>
      <point x="185" y="682" type="line"/>
      <point x="172" y="645"/>
      <point x="151" y="618"/>
      <point x="129" y="599" type="curve"/>
      <point x="164" y="570" type="line"/>
    </contour>
  </outline>
</glyph>
<glyph name="uni0185" format="1">
  <advance width="492"/>
  <unicode hex="0185"/>
  <outline>
    <contour>
      <point x="158" y="520" type="line"/>
      <point x="141" y="485"/>
      <point x="125" y="466"/>
      <point x="103" y="447" type="curve"/>
      <point x="139" y="418" type="line"/>
    </contour>
    <contour>
      <point x="157" y="338" type="line"/>
      <point x="183" y="520" type="line"/>
      <point x="158" y="520" type="line"/>
      <point x="139" y="418" type="line"/>
      <point x="81" y="17" type="line"/>
      <point x="128" y="1"/>
      <point x="177" y="-10"/>
      <point x="225" y="-10" type="curve"/>
      <point x="387" y="-10"/>
      <point x="442" y="100"/>
      <point x="442" y="196" type="curve" smooth="yes"/>
      <point x="442" y="279"/>
      <point x="390" y="338"/>
      <point x="267" y="338" type="curve" smooth="yes"/>
    </contour>
    <contour>
      <point x="190" y="18"/>
      <point x="152" y="25"/>
      <point x="114" y="37" type="curve"/>
      <point x="153" y="310" type="line"/>
      <point x="266" y="310" type="line" smooth="yes"/>
      <point x="371" y="310"/>
      <point x="411" y="263"/>
      <point x="411" y="197" type="curve" smooth="yes"/>
      <point x="411" y="116"/>
      <point x="369" y="18"/>
      <point x="224" y="18" type="curve" smooth="yes"/>
    </contour>
  </outline>
</glyph>
<glyph name="uni0186" format="1">
  <advance width="541"/>
  <unicode hex="0186"/>
  <outline>
    <contour>
      <point x="191" y="692"/>
      <point x="135" y="669"/>
      <point x="84" y="634" type="curve"/>
      <point x="100" y="611" type="line"/>
      <point x="155" y="646"/>
      <point x="200" y="663"/>
      <point x="272" y="663" type="curve" smooth="yes"/>
      <point x="376" y="663"/>
      <point x="453" y="594"/>
      <point x="453" y="428" type="curve" smooth="yes"/>
      <point x="453" y="227"/>
      <point x="353" y="20"/>
      <point x="168" y="20" type="curve" smooth="yes"/>
      <point x="94" y="20"/>
      <point x="58" y="44"/>
      <point x="16" y="78" type="curve"/>
      <point x="-4" y="56" type="line"/>
      <point x="41" y="18"/>
      <point x="90" y="-10"/>
      <point x="169" y="-10" type="curve" smooth="yes"/>
      <point x="372" y="-10"/>
      <point x="485" y="209"/>
      <point x="484" y="428" type="curve" smooth="yes"/>
      <point x="484" y="605"/>
      <point x="395" y="692"/>
      <point x="274" y="692" type="curve" smooth="yes"/>
    </contour>
  </outline>
</glyph>
<glyph name="uni0187" format="1">
  <advance width="542"/>
  <unicode hex="0187"/>
  <outline>
    <contour>
      <point x="560" y="633" type="line"/>
      <point x="570" y="699" type="line" smooth="yes"/>
      <point x="579" y="768"/>
      <point x="617" y="791"/>
      <point x="658" y="791" type="curve" smooth="yes"/>
      <point x="692" y="791"/>
      <point x="712" y="780"/>
      <point x="730" y="767" type="curve"/>
      <point x="747" y="786" type="line"/>
      <point x="728" y="801"/>
      <point x="701" y="818"/>
      <point x="657" y="818" type="curve" smooth="yes"/>
      <point x="597" y="818"/>
      <point x="551" y="781"/>
      <point x="540" y="702" type="curve" smooth="yes"/>
      <point x="531" y="638" type="line"/>
    </contour>
    <contour>
      <point x="166" y="692"/>
      <point x="80" y="440"/>
      <point x="80" y="259" type="curve" smooth="yes"/>
      <point x="80" y="83"/>
      <point x="172" y="-10"/>
      <point x="305" y="-10" type="curve" smooth="yes"/>
      <point x="382" y="-10"/>
      <point x="439" y="16"/>
      <point x="488" y="54" type="curve"/>
      <point x="470" y="78" type="line"/>
      <point x="425" y="44"/>
      <point x="382" y="20"/>
      <point x="306" y="20" type="curve" smooth="yes"/>
      <point x="192" y="20"/>
      <point x="111" y="99"/>
      <point x="111" y="260" type="curve" smooth="yes"/>
      <point x="111" y="425"/>
      <point x="187" y="663"/>
      <point x="403" y="663" type="curve" smooth="yes"/>
      <point x="463" y="663"/>
      <point x="499" y="648"/>
      <point x="543" y="614" type="curve"/>
      <point x="560" y="633" type="line"/>
      <point x="556" y="637"/>
      <point x="552" y="641"/>
      <point x="547" y="642" type="curve"/>
      <point x="513" y="672"/>
      <point x="469" y="692"/>
      <point x="403" y="692" type="curve" smooth="yes"/>
    </contour>
  </outline>
</glyph>
<glyph name="uni0188" format="1">
  <advance width="461"/>
  <unicode hex="0188"/>
  <outline>
    <contour>
      <point x="132" y="530"/>
      <point x="65" y="332"/>
      <point x="65" y="198" type="curve" smooth="yes"/>
      <point x="65" y="63"/>
      <point x="138" y="-10"/>
      <point x="246" y="-10" type="curve" smooth="yes"/>
      <point x="305" y="-10"/>
      <point x="355" y="10"/>
      <point x="397" y="43" type="curve"/>
      <point x="381" y="65" type="line"/>
      <point x="343" y="37"/>
      <point x="300" y="18"/>
      <point x="247" y="18" type="curve" smooth="yes"/>
      <point x="155" y="18"/>
      <point x="96" y="77"/>
      <point x="96" y="198" type="curve" smooth="yes"/>
      <point x="96" y="319"/>
      <point x="153" y="503"/>
      <point x="318" y="503" type="curve" smooth="yes"/>
      <point x="369" y="503"/>
      <point x="404" y="487"/>
      <point x="436" y="464" type="curve"/>
      <point x="451" y="480" type="line"/>
      <point x="444" y="487"/>
      <point x="437" y="493"/>
      <point x="430" y="498" type="curve"/>
      <point x="400" y="519"/>
      <point x="364" y="530"/>
      <point x="319" y="530" type="curve" smooth="yes"/>
    </contour>
    <contour>
      <point x="470" y="619" type="line" smooth="yes"/>
      <point x="479" y="688"/>
      <point x="517" y="711"/>
      <point x="558" y="711" type="curve" smooth="yes"/>
      <point x="592" y="711"/>
      <point x="613" y="700"/>
      <point x="631" y="687" type="curve"/>
      <point x="648" y="706" type="line"/>
      <point x="629" y="721"/>
      <point x="602" y="738"/>
      <point x="558" y="738" type="curve" smooth="yes"/>
      <point x="498" y="738"/>
      <point x="452" y="701"/>
      <point x="441" y="622" type="curve" smooth="yes"/>
      <point x="423" y="496" type="line"/>
      <point x="451" y="480" type="line"/>
    </contour>
  </outline>
</glyph>
<glyph name="uni018B" format="1">
  <advance width="561"/>
  <unicode hex="018B"/>
  <outline>
    <contour>
      <point x="378" y="29" type="line"/>
      <point x="244" y="29" type="line" smooth="yes"/>
      <point x="141" y="29"/>
      <point x="75" y="73"/>
      <point x="75" y="173" type="curve" smooth="yes"/>
      <point x="75" y="298"/>
      <point x="164" y="379"/>
      <point x="305" y="379" type="curve" smooth="yes"/>
      <point x="434" y="379" type="line"/>
      <point x="438" y="408" type="line"/>
      <point x="308" y="408" type="line" smooth="yes"/>
      <point x="151" y="408"/>
      <point x="44" y="318"/>
      <point x="44" y="173" type="curve" smooth="yes"/>
      <point x="44" y="57"/>
      <point x="125" y="0"/>
      <point x="239" y="0" type="curve" smooth="yes"/>
      <point x="404" y="0" type="line"/>
      <point x="500" y="682" type="line"/>
      <point x="468" y="672" type="line"/>
    </contour>
    <contour>
      <point x="176" y="653" type="line"/>
      <point x="476" y="653" type="line"/>
      <point x="500" y="682" type="line"/>
      <point x="180" y="682" type="line"/>
    </contour>
  </outline>
</glyph>
<glyph name="uni018C" format="1">
  <advance width="575"/>
  <unicode hex="018C"/>
  <outline>
    <contour>
      <point x="494" y="706" type="line"/>
      <point x="517" y="734" type="line"/>
      <point x="254" y="734" type="line"/>
      <point x="250" y="706" type="line"/>
    </contour>
    <contour>
      <point x="457" y="453" type="line"/>
      <point x="435" y="490"/>
      <point x="394" y="530"/>
      <point x="315" y="530" type="curve" smooth="yes"/>
      <point x="132" y="530"/>
      <point x="70" y="329"/>
      <point x="70" y="193" type="curve" smooth="yes"/>
      <point x="70" y="65"/>
      <point x="131" y="-10"/>
      <point x="226" y="-10" type="curve" smooth="yes"/>
      <point x="317" y="-10"/>
      <point x="374" y="56"/>
      <point x="411" y="122" type="curve"/>
      <point x="398" y="0" type="line"/>
      <point x="423" y="0" type="line"/>
      <point x="527" y="734" type="line"/>
      <point x="497" y="734" type="line"/>
    </contour>
    <contour>
      <point x="389" y="503"/>
      <point x="428" y="462"/>
      <point x="452" y="415" type="curve"/>
      <point x="419" y="179" type="line"/>
      <point x="367" y="86"/>
      <point x="314" y="18"/>
      <point x="227" y="18" type="curve" smooth="yes"/>
      <point x="149" y="18"/>
      <point x="101" y="81"/>
      <point x="101" y="194" type="curve" smooth="yes"/>
      <point x="101" y="321"/>
      <point x="157" y="503"/>
      <point x="316" y="503" type="curve" smooth="yes"/>
    </contour>
  </outline>
</glyph>
<glyph name="uni018D" format="1">
  <advance width="558"/>
  <unicode hex="018D"/>
  <outline>
    <contour>
      <point x="328" y="-199"/>
      <point x="385" y="-140"/>
      <point x="385" y="-79" type="curve" smooth="yes"/>
      <point x="385" y="-26"/>
      <point x="353" y="4"/>
      <point x="287" y="35" type="curve"/>
      <point x="446" y="94"/>
      <point x="494" y="205"/>
      <point x="494" y="331" type="curve" smooth="yes"/>
      <point x="494" y="453"/>
      <point x="427" y="530"/>
      <point x="313" y="530" type="curve" smooth="yes"/>
      <point x="122" y="530"/>
      <point x="69" y="345"/>
      <point x="69" y="233" type="curve" smooth="yes"/>
      <point x="69" y="129"/>
      <point x="121" y="73"/>
      <point x="235" y="28" type="curve" smooth="yes"/>
      <point x="324" y="-7"/>
      <point x="354" y="-34"/>
      <point x="354" y="-79" type="curve" smooth="yes"/>
      <point x="354" y="-125"/>
      <point x="314" y="-171"/>
      <point x="214" y="-171" type="curve" smooth="yes"/>
      <point x="159" y="-171"/>
      <point x="117" y="-155"/>
      <point x="79" y="-124" type="curve"/>
      <point x="59" y="-143" type="line"/>
      <point x="100" y="-179"/>
      <point x="156" y="-199"/>
      <point x="214" y="-199" type="curve" smooth="yes"/>
    </contour>
    <contour>
      <point x="143" y="93"/>
      <point x="99" y="140"/>
      <point x="99" y="233" type="curve" smooth="yes"/>
      <point x="99" y="325"/>
      <point x="140" y="502"/>
      <point x="312" y="502" type="curve" smooth="yes"/>
      <point x="408" y="502"/>
      <point x="464" y="436"/>
      <point x="464" y="331" type="curve" smooth="yes"/>
      <point x="464" y="214"/>
      <point x="423" y="108"/>
      <point x="258" y="47" type="curve"/>
    </contour>
  </outline>
</glyph>
<glyph name="uni018E" format="1">
  <advance width="493"/>
  <unicode hex="018E"/>
  <outline>
    <contour>
      <point x="102" y="653" type="line"/>
      <point x="397" y="653" type="line"/>
      <point x="358" y="373" type="line"/>
      <point x="106" y="373" type="line"/>
      <point x="102" y="345" type="line"/>
      <point x="354" y="345" type="line"/>
      <point x="310" y="29" type="line"/>
      <point x="8" y="29" type="line"/>
      <point x="3" y="0" type="line"/>
      <point x="336" y="0" type="line"/>
      <point x="432" y="682" type="line"/>
      <point x="106" y="682" type="line"/>
    </contour>
  </outline>
</glyph>
<glyph name="uni0190" format="1">
  <advance width="520"/>
  <unicode hex="0190"/>
  <outline>
    <contour>
      <point x="203" y="692"/>
      <point x="117" y="613"/>
      <point x="117" y="504" type="curve" smooth="yes"/>
      <point x="117" y="429"/>
      <point x="163" y="385"/>
      <point x="226" y="370" type="curve"/>
      <point x="129" y="359"/>
      <point x="49" y="288"/>
      <point x="49" y="169" type="curve" smooth="yes"/>
      <point x="49" y="56"/>
      <point x="128" y="-10"/>
      <point x="244" y="-10" type="curve" smooth="yes"/>
      <point x="324" y="-10"/>
      <point x="396" y="20"/>
      <point x="465" y="81" type="curve"/>
      <point x="445" y="102" type="line"/>
      <point x="388" y="52"/>
      <point x="323" y="19"/>
      <point x="244" y="19" type="curve" smooth="yes"/>
      <point x="146" y="19"/>
      <point x="81" y="71"/>
      <point x="81" y="169" type="curve" smooth="yes"/>
      <point x="81" y="281"/>
      <point x="163" y="357"/>
      <point x="292" y="355" type="curve" smooth="yes"/>
      <point x="347" y="354" type="line"/>
      <point x="355" y="383" type="line"/>
      <point x="299" y="383" type="line" smooth="yes"/>
      <point x="207" y="383"/>
      <point x="148" y="428"/>
      <point x="148" y="506" type="curve" smooth="yes"/>
      <point x="148" y="600"/>
      <point x="225" y="663"/>
      <point x="326" y="663" type="curve" smooth="yes"/>
      <point x="402" y="663"/>
      <point x="454" y="634"/>
      <point x="496" y="590" type="curve"/>
      <point x="517" y="608" type="line"/>
      <point x="466" y="661"/>
      <point x="412" y="692"/>
      <point x="325" y="692" type="curve" smooth="yes"/>
    </contour>
    <contour>
      <point x="339" y="682" type="move" name="top"/>
    </contour>
    <contour>
      <point x="243" y="0" type="move" name="bottom"/>
    </contour>
  </outline>
</glyph>
<glyph name="florin" format="1">
  <advance width="310"/>
  <unicode hex="0192"/>
  <outline>
    <contour>
      <point x="236" y="738"/>
      <point x="179" y="695"/>
      <point x="168" y="617" type="curve" smooth="yes"/>
      <point x="84" y="10" type="line" smooth="yes"/>
      <point x="67" y="-107"/>
      <point x="32" y="-136"/>
      <point x="-42" y="-172" type="curve"/>
      <point x="-32" y="-196" type="line"/>
      <point x="54" y="-156"/>
      <point x="95" y="-125"/>
      <point x="113" y="7" type="curve" smooth="yes"/>
      <point x="197" y="613" type="line" smooth="yes"/>
      <point x="207" y="683"/>
      <point x="252" y="711"/>
      <point x="313" y="711" type="curve" smooth="yes"/>
      <point x="351" y="711"/>
      <point x="377" y="702"/>
      <point x="414" y="682" type="curve"/>
      <point x="428" y="704" type="line"/>
      <point x="391" y="726"/>
      <point x="355" y="738"/>
      <point x="315" y="738" type="curve" smooth="yes"/>
    </contour>
    <contour>
      <point x="66" y="520" type="line"/>
      <point x="62" y="493" type="line"/>
      <point x="322" y="493" type="line"/>
      <point x="330" y="520" type="line"/>
    </contour>
  </outline>
</glyph>
<glyph name="uni0193" format="1">
  <advance width="556"/>
  <unicode hex="0193"/>
  <outline>
    <contour>
      <point x="189" y="692"/>
      <point x="80" y="464"/>
      <point x="80" y="260" type="curve" smooth="yes"/>
      <point x="80" y="81"/>
      <point x="172" y="-10"/>
      <point x="316" y="-10" type="curve" smooth="yes"/>
      <point x="378" y="-10"/>
      <point x="446" y="8"/>
      <point x="507" y="41" type="curve"/>
      <point x="551" y="359" type="line"/>
      <point x="373" y="359" type="line"/>
      <point x="374" y="330" type="line"/>
      <point x="516" y="330" type="line"/>
      <point x="477" y="58" type="line"/>
      <point x="428" y="33"/>
      <point x="381" y="19"/>
      <point x="316" y="19" type="curve" smooth="yes"/>
      <point x="191" y="19"/>
      <point x="112" y="97"/>
      <point x="112" y="258" type="curve" smooth="yes"/>
      <point x="112" y="451"/>
      <point x="206" y="663"/>
      <point x="406" y="663" type="curve" smooth="yes"/>
      <point x="468" y="663"/>
      <point x="512" y="647"/>
      <point x="557" y="614" type="curve"/>
      <point x="574" y="631" type="line"/>
      <point x="568" y="636"/>
      <point x="562" y="640"/>
      <point x="556" y="645" type="curve" smooth="yes"/>
      <point x="519" y="675"/>
      <point x="473" y="692"/>
      <point x="406" y="692" type="curve" smooth="yes"/>
    </contour>
    <contour>
      <point x="574" y="631" type="line"/>
      <point x="584" y="699" type="line" smooth="yes"/>
      <point x="594" y="768"/>
      <point x="631" y="791"/>
      <point x="672" y="791" type="curve" smooth="yes"/>
      <point x="706" y="791"/>
      <point x="726" y="780"/>
      <point x="744" y="767" type="curve"/>
      <point x="761" y="786" type="line"/>
      <point x="742" y="801"/>
      <point x="715" y="818"/>
      <point x="671" y="818" type="curve" smooth="yes"/>
      <point x="611" y="818"/>
      <point x="565" y="781"/>
      <point x="554" y="702" type="curve" smooth="yes"/>
      <point x="545" y="638" type="line"/>
    </contour>
  </outline>
</glyph>
<glyph name="uni0194" format="1">
  <advance width="538"/>
  <unicode hex="0194"/>
  <outline>
    <contour>
      <point x="258" y="-199"/>
      <point x="292" y="-159"/>
      <point x="292" y="-98" type="curve" smooth="yes"/>
      <point x="292" y="-58"/>
      <point x="279" y="-20"/>
      <point x="256" y="52" type="curve"/>
      <point x="242" y="81" type="line"/>
      <point x="116" y="682" type="line"/>
      <point x="84" y="682" type="line"/>
      <point x="221" y="57" type="line"/>
      <point x="235" y="30" type="line"/>
      <point x="252" y="-29"/>
      <point x="262" y="-61"/>
      <point x="262" y="-98" type="curve" smooth="yes"/>
      <point x="262" y="-141"/>
      <point x="243" y="-171"/>
      <point x="206" y="-171" type="curve" smooth="yes"/>
      <point x="182" y="-171"/>
      <point x="170" y="-157"/>
      <point x="170" y="-132" type="curve" smooth="yes"/>
      <point x="170" y="-86"/>
      <point x="199" y="-34"/>
      <point x="235" y="30" type="curve"/>
      <point x="256" y="52" type="line"/>
      <point x="572" y="682" type="line"/>
      <point x="539" y="682" type="line"/>
      <point x="242" y="81" type="line"/>
      <point x="221" y="57" type="line"/>
      <point x="172" y="-27"/>
      <point x="140" y="-80"/>
      <point x="140" y="-132" type="curve" smooth="yes"/>
      <point x="140" y="-173"/>
      <point x="165" y="-199"/>
      <point x="206" y="-199" type="curve" smooth="yes"/>
    </contour>
  </outline>
</glyph>
<glyph name="uni0195" format="1">
  <advance width="889"/>
  <unicode hex="0195"/>
  <outline>
    <contour>
      <point x="778" y="520" type="line"/>
      <point x="779" y="493"/>
      <point x="780" y="460"/>
      <point x="780" y="426" type="curve" smooth="yes"/>
      <point x="780" y="248"/>
      <point x="743" y="16"/>
      <point x="563" y="18" type="curve" smooth="yes"/>
      <point x="490" y="19"/>
      <point x="444" y="63"/>
      <point x="457" y="157" type="curve" smooth="yes"/>
      <point x="487" y="369" type="line" smooth="yes"/>
      <point x="501" y="471"/>
      <point x="462" y="530"/>
      <point x="370" y="530" type="curve" smooth="yes"/>
      <point x="290" y="530"/>
      <point x="213" y="471"/>
      <point x="160" y="368" type="curve"/>
      <point x="212" y="739" type="line"/>
      <point x="182" y="734" type="line"/>
      <point x="78" y="0" type="line"/>
      <point x="108" y="0" type="line"/>
      <point x="152" y="310" type="line"/>
      <point x="212" y="424"/>
      <point x="281" y="504"/>
      <point x="367" y="504" type="curve" smooth="yes"/>
      <point x="440" y="504"/>
      <point x="470" y="460"/>
      <point x="457" y="367" type="curve" smooth="yes"/>
      <point x="427" y="158" type="line" smooth="yes"/>
      <point x="412" y="53"/>
      <point x="468" y="-10"/>
      <point x="562" y="-10" type="curve" smooth="yes"/>
      <point x="770" y="-10"/>
      <point x="810" y="231"/>
      <point x="810" y="426" type="curve" smooth="yes"/>
      <point x="810" y="460"/>
      <point x="809" y="492"/>
      <point x="808" y="520" type="curve"/>
    </contour>
  </outline>
</glyph>
<glyph name="uni0196" format="1">
  <advance width="316"/>
  <unicode hex="0196"/>
  <outline>
    <contour>
      <point x="170" y="682" type="line"/>
      <point x="101" y="189" type="line"/>
      <point x="132" y="189" type="line"/>
      <point x="201" y="682" type="line"/>
    </contour>
    <component base="hookHELPERright.case" xOffset="98" yOffset="189"/>
    <contour>
      <point x="186" y="682" type="move" name="top"/>
    </contour>
    <contour>
      <point x="122" y="0" type="move" name="bottom"/>
    </contour>
  </outline>
</glyph>
<glyph name="uni0198" format="1">
  <advance width="551"/>
  <unicode hex="0198"/>
  <outline>
    <contour>
      <point x="179" y="682" type="line"/>
      <point x="83" y="0" type="line"/>
      <point x="114" y="0" type="line"/>
      <point x="210" y="682" type="line"/>
    </contour>
    <contour>
      <point x="471" y="657"/>
      <point x="489" y="664"/>
      <point x="520" y="664" type="curve" smooth="yes"/>
      <point x="550" y="664"/>
      <point x="565" y="651"/>
      <point x="586" y="635" type="curve"/>
      <point x="606" y="653" type="line"/>
      <point x="584" y="673"/>
      <point x="560" y="692"/>
      <point x="521" y="692" type="curve" smooth="yes"/>
      <point x="477" y="692"/>
      <point x="449" y="676"/>
      <point x="400" y="621" type="curve" smooth="yes"/>
      <point x="169" y="367" type="line"/>
      <point x="438" y="0" type="line"/>
      <point x="476" y="0" type="line"/>
      <point x="206" y="367" type="line"/>
      <point x="418" y="599" type="line" smooth="yes"/>
    </contour>
  </outline>
</glyph>
<glyph name="uni0199" format="1">
  <advance width="504"/>
  <unicode hex="0199"/>
  <outline>
    <contour>
      <point x="151" y="519" type="line"/>
      <point x="78" y="0" type="line"/>
      <point x="108" y="0" type="line"/>
      <point x="150" y="296" type="line"/>
      <point x="209" y="421"/>
      <point x="279" y="504"/>
      <point x="365" y="504" type="curve" smooth="yes"/>
      <point x="427" y="504"/>
      <point x="449" y="470"/>
      <point x="449" y="424" type="curve" smooth="yes"/>
      <point x="449" y="343"/>
      <point x="382" y="284"/>
      <point x="262" y="252" type="curve"/>
      <point x="386" y="0" type="line"/>
      <point x="419" y="0" type="line"/>
      <point x="300" y="239" type="line"/>
      <point x="415" y="275"/>
      <point x="480" y="338"/>
      <point x="480" y="424" type="curve" smooth="yes"/>
      <point x="480" y="492"/>
      <point x="435" y="530"/>
      <point x="367" y="530" type="curve" smooth="yes"/>
      <point x="293" y="530"/>
      <point x="220" y="483"/>
      <point x="159" y="362" type="curve"/>
      <point x="181" y="519" type="line"/>
    </contour>
    <component base="hookaboveHELPER" xOffset="76"/>
  </outline>
</glyph>
<glyph name="uni019B" format="1">
  <advance width="454"/>
  <unicode hex="019B"/>
  <outline>
    <contour>
      <point x="260" y="645" type="line"/>
      <point x="272" y="655" type="line"/>
      <point x="358" y="733" type="line"/>
      <point x="340" y="750" type="line"/>
      <point x="252" y="670" type="line"/>
      <point x="241" y="660" type="line"/>
      <point x="143" y="571" type="line"/>
      <point x="166" y="562" type="line"/>
    </contour>
    <contour>
      <point x="148" y="715" type="line"/>
      <point x="246" y="691"/>
      <point x="265" y="634"/>
      <point x="273" y="521" type="curve"/>
      <point x="262" y="523" type="line"/>
      <point x="4" y="1" type="line"/>
      <point x="32" y="-6" type="line"/>
      <point x="274" y="485" type="line"/>
      <point x="293" y="167"/>
      <point x="345" y="82"/>
      <point x="395" y="-6" type="curve"/>
      <point x="423" y="4" type="line"/>
      <point x="374" y="92"/>
      <point x="319" y="170"/>
      <point x="301" y="508" type="curve" smooth="yes"/>
      <point x="294" y="648"/>
      <point x="267" y="712"/>
      <point x="153" y="738" type="curve"/>
    </contour>
  </outline>
</glyph>
<glyph name="uni019C" format="1">
  <advance width="925"/>
  <unicode hex="019C"/>
  <outline>
    <contour>
      <point x="313" y="-10"/>
      <point x="386" y="49"/>
      <point x="436" y="121" type="curve"/>
      <point x="430" y="154" type="line"/>
      <point x="380" y="80"/>
      <point x="312" y="19"/>
      <point x="227" y="19" type="curve" smooth="yes"/>
      <point x="150" y="19"/>
      <point x="115" y="72"/>
      <point x="129" y="174" type="curve" smooth="yes"/>
      <point x="200" y="682" type="line"/>
      <point x="169" y="682" type="line"/>
      <point x="99" y="181" type="line" smooth="yes"/>
      <point x="82" y="59"/>
      <point x="129" y="-10"/>
      <point x="227" y="-10" type="curve" smooth="yes"/>
    </contour>
    <contour>
      <point x="645" y="-10"/>
      <point x="718" y="49"/>
      <point x="763" y="120" type="curve"/>
      <point x="758" y="150" type="line"/>
      <point x="712" y="80"/>
      <point x="644" y="19"/>
      <point x="559" y="19" type="curve" smooth="yes"/>
      <point x="482" y="19"/>
      <point x="447" y="72"/>
      <point x="461" y="174" type="curve" smooth="yes"/>
      <point x="532" y="682" type="line"/>
      <point x="501" y="682" type="line"/>
      <point x="431" y="181" type="line" smooth="yes"/>
      <point x="414" y="59"/>
      <point x="461" y="-10"/>
      <point x="559" y="-10" type="curve" smooth="yes"/>
    </contour>
    <contour>
      <point x="768" y="0" type="line"/>
      <point x="864" y="682" type="line"/>
      <point x="833" y="682" type="line"/>
      <point x="757" y="141" type="line"/>
      <point x="741" y="0" type="line"/>
    </contour>
  </outline>
</glyph>
<glyph name="uni019D" format="1">
  <advance width="664"/>
  <unicode hex="019D"/>
  <outline>
    <contour>
      <point x="42" y="-199"/>
      <point x="89" y="-163"/>
      <point x="101" y="-83" type="curve" smooth="yes"/>
      <point x="113" y="0" type="line"/>
      <point x="83" y="0" type="line"/>
      <point x="71" y="-79" type="line" smooth="yes"/>
      <point x="60" y="-150"/>
      <point x="23" y="-171"/>
      <point x="-17" y="-171" type="curve" smooth="yes"/>
      <point x="-51" y="-171"/>
      <point x="-71" y="-161"/>
      <point x="-88" y="-148" type="curve"/>
      <point x="-105" y="-167" type="line"/>
      <point x="-86" y="-182"/>
      <point x="-59" y="-199"/>
      <point x="-17" y="-199" type="curve" smooth="yes"/>
    </contour>
    <component base="N"/>
  </outline>
</glyph>
<glyph name="uni019E" format="1">
  <advance width="582"/>
  <unicode hex="019E"/>
  <outline>
    <contour>
      <point x="289" y="530"/>
      <point x="214" y="470"/>
      <point x="159" y="367" type="curve"/>
      <point x="177" y="520" type="line"/>
      <point x="152" y="520" type="line"/>
      <point x="78" y="0" type="line"/>
      <point x="108" y="0" type="line"/>
      <point x="152" y="310" type="line"/>
      <point x="212" y="424"/>
      <point x="283" y="504"/>
      <point x="368" y="504" type="curve" smooth="yes"/>
      <point x="438" y="504"/>
      <point x="470" y="460"/>
      <point x="457" y="367" type="curve" smooth="yes"/>
      <point x="377" y="-199" type="line"/>
      <point x="407" y="-195" type="line"/>
      <point x="487" y="369" type="line" smooth="yes"/>
      <point x="501" y="471"/>
      <point x="460" y="530"/>
      <point x="370" y="530" type="curve" smooth="yes"/>
    </contour>
  </outline>
</glyph>
<glyph name="uni01A2" format="1">
  <advance width="885"/>
  <unicode hex="01A2"/>
  <outline>
    <contour>
      <point x="637" y="692"/>
      <point x="585" y="667"/>
      <point x="541" y="641" type="curve"/>
      <point x="555" y="621" type="line"/>
      <point x="597" y="644"/>
      <point x="642" y="665"/>
      <point x="698" y="665" type="curve" smooth="yes"/>
      <point x="763" y="665"/>
      <point x="786" y="632"/>
      <point x="775" y="559" type="curve" smooth="yes"/>
      <point x="670" y="-193" type="line"/>
      <point x="701" y="-193" type="line"/>
      <point x="807" y="560" type="line" smooth="yes"/>
      <point x="818" y="640"/>
      <point x="786" y="692"/>
      <point x="698" y="692" type="curve" smooth="yes"/>
    </contour>
    <contour>
      <point x="163" y="692"/>
      <point x="80" y="430"/>
      <point x="80" y="259" type="curve" smooth="yes"/>
      <point x="80" y="85"/>
      <point x="169" y="-10"/>
      <point x="309" y="-10" type="curve" smooth="yes"/>
      <point x="554" y="-10"/>
      <point x="633" y="250"/>
      <point x="633" y="426" type="curve" smooth="yes"/>
      <point x="633" y="601"/>
      <point x="544" y="692"/>
      <point x="405" y="692" type="curve" smooth="yes"/>
    </contour>
    <contour>
      <point x="526" y="664"/>
      <point x="601" y="585"/>
      <point x="601" y="426" type="curve" smooth="yes"/>
      <point x="601" y="270"/>
      <point x="538" y="19"/>
      <point x="309" y="19" type="curve" smooth="yes"/>
      <point x="189" y="19"/>
      <point x="112" y="100"/>
      <point x="112" y="258" type="curve" smooth="yes"/>
      <point x="112" y="415"/>
      <point x="182" y="664"/>
      <point x="404" y="664" type="curve"/>
    </contour>
  </outline>
</glyph>
<glyph name="uni01A3" format="1">
  <advance width="740"/>
  <unicode hex="01A3"/>
  <outline>
    <contour>
      <point x="566" y="-195" type="line"/>
      <point x="649" y="396" type="line" smooth="yes"/>
      <point x="660" y="475"/>
      <point x="628" y="530"/>
      <point x="541" y="530" type="curve" smooth="yes"/>
      <point x="490" y="530"/>
      <point x="449" y="516"/>
      <point x="412" y="498" type="curve"/>
      <point x="436" y="482" type="line"/>
      <point x="466" y="494"/>
      <point x="497" y="503"/>
      <point x="540" y="503" type="curve" smooth="yes"/>
      <point x="607" y="503"/>
      <point x="629" y="467"/>
      <point x="619" y="397" type="curve" smooth="yes"/>
      <point x="535" y="-199" type="line"/>
    </contour>
    <contour>
      <point x="128" y="530"/>
      <point x="65" y="331"/>
      <point x="65" y="197" type="curve" smooth="yes"/>
      <point x="65" y="66"/>
      <point x="131" y="-10"/>
      <point x="244" y="-10" type="curve" smooth="yes"/>
      <point x="436" y="-10"/>
      <point x="496" y="196"/>
      <point x="496" y="327" type="curve" smooth="yes"/>
      <point x="496" y="459"/>
      <point x="427" y="530"/>
      <point x="317" y="530" type="curve" smooth="yes"/>
    </contour>
    <contour>
      <point x="412" y="503"/>
      <point x="465" y="441"/>
      <point x="465" y="326" type="curve" smooth="yes"/>
      <point x="465" y="204"/>
      <point x="411" y="18"/>
      <point x="244" y="18" type="curve" smooth="yes"/>
      <point x="150" y="18"/>
      <point x="96" y="81"/>
      <point x="96" y="196" type="curve" smooth="yes"/>
      <point x="96" y="312"/>
      <point x="147" y="503"/>
      <point x="317" y="503" type="curve" smooth="yes"/>
    </contour>
  </outline>
</glyph>
<glyph name="uni01A5" format="1">
  <advance width="570"/>
  <unicode hex="01A5"/>
  <outline>
    <contour>
      <point x="81" y="-195" type="line"/>
      <point x="111" y="14" type="line"/>
      <point x="155" y="-3"/>
      <point x="192" y="-10"/>
      <point x="241" y="-10" type="curve" smooth="yes"/>
      <point x="441" y="-10"/>
      <point x="501" y="200"/>
      <point x="501" y="339" type="curve" smooth="yes"/>
      <point x="501" y="463"/>
      <point x="447" y="530"/>
      <point x="345" y="530" type="curve" smooth="yes"/>
      <point x="275" y="530"/>
      <point x="218" y="495"/>
      <point x="172" y="445" type="curve"/>
      <point x="181" y="519" type="line"/>
      <point x="151" y="519" type="line"/>
      <point x="50" y="-199" type="line"/>
    </contour>
    <contour>
      <point x="184" y="18"/>
      <point x="148" y="29"/>
      <point x="115" y="43" type="curve"/>
      <point x="166" y="404" type="line"/>
      <point x="217" y="462"/>
      <point x="268" y="502"/>
      <point x="345" y="502" type="curve" smooth="yes"/>
      <point x="428" y="502"/>
      <point x="471" y="448"/>
      <point x="471" y="341" type="curve" smooth="yes"/>
      <point x="471" y="219"/>
      <point x="421" y="18"/>
      <point x="240" y="18" type="curve" smooth="yes"/>
    </contour>
    <component base="hookaboveHELPER" xOffset="76"/>
  </outline>
</glyph>
<glyph name="yr" format="1">
  <advance width="577"/>
  <unicode hex="01A6"/>
  <outline>
    <contour>
      <point x="114" y="0" type="line"/>
      <point x="210" y="682" type="line"/>
      <point x="179" y="682" type="line"/>
      <point x="83" y="0" type="line"/>
    </contour>
    <contour>
      <point x="307" y="190" type="line"/>
      <point x="471" y="212"/>
      <point x="520" y="309"/>
      <point x="520" y="401" type="curve" smooth="yes"/>
      <point x="520" y="501"/>
      <point x="457" y="552"/>
      <point x="314" y="552" type="curve" smooth="yes"/>
      <point x="181" y="552" type="line"/>
      <point x="177" y="523" type="line"/>
      <point x="318" y="523" type="line" smooth="yes"/>
      <point x="441" y="523"/>
      <point x="488" y="481"/>
      <point x="488" y="402" type="curve" smooth="yes"/>
      <point x="488" y="321"/>
      <point x="440" y="219"/>
      <point x="278" y="219" type="curve" smooth="yes"/>
      <point x="139" y="219" type="line"/>
      <point x="134" y="190" type="line"/>
    </contour>
    <contour>
      <point x="482" y="-130" type="line"/>
      <point x="331" y="202" type="line"/>
      <point x="301" y="197" type="line"/>
      <point x="448" y="-130" type="line"/>
    </contour>
  </outline>
</glyph>
<glyph name="uni01A7" format="1">
  <advance width="525"/>
  <unicode hex="01A7"/>
  <outline>
    <contour>
      <point x="252" y="692"/>
      <point x="197" y="665"/>
      <point x="135" y="621" type="curve"/>
      <point x="153" y="598" type="line"/>
      <point x="216" y="643"/>
      <point x="266" y="663"/>
      <point x="339" y="663" type="curve" smooth="yes"/>
      <point x="423" y="663"/>
      <point x="466" y="620"/>
      <point x="466" y="554" type="curve" smooth="yes"/>
      <point x="466" y="455"/>
      <point x="391" y="418"/>
      <point x="274" y="382" type="curve" smooth="yes"/>
      <point x="137" y="340"/>
      <point x="51" y="281"/>
      <point x="51" y="153" type="curve" smooth="yes"/>
      <point x="51" y="52"/>
      <point x="126" y="-10"/>
      <point x="229" y="-10" type="curve" smooth="yes"/>
      <point x="319" y="-10"/>
      <point x="387" y="22"/>
      <point x="449" y="72" type="curve"/>
      <point x="430" y="95" type="line"/>
      <point x="375" y="50"/>
      <point x="317" y="19"/>
      <point x="230" y="19" type="curve" smooth="yes"/>
      <point x="142" y="19"/>
      <point x="83" y="66"/>
      <point x="83" y="153" type="curve" smooth="yes"/>
      <point x="83" y="268"/>
      <point x="157" y="314"/>
      <point x="283" y="354" type="curve" smooth="yes"/>
      <point x="411" y="395"/>
      <point x="497" y="440"/>
      <point x="497" y="554" type="curve" smooth="yes"/>
      <point x="497" y="634"/>
      <point x="441" y="692"/>
      <point x="339" y="692" type="curve" smooth="yes"/>
    </contour>
  </outline>
</glyph>
<glyph name="uni01AA" format="1">
  <advance width="267"/>
  <unicode hex="01AA"/>
  <outline>
    <contour>
      <point x="57" y="738"/>
      <point x="5" y="681"/>
      <point x="5" y="607" type="curve" smooth="yes"/>
      <point x="5" y="552"/>
      <point x="41" y="519"/>
      <point x="93" y="519" type="curve" smooth="yes"/>
      <point x="128" y="519"/>
      <point x="159" y="530"/>
      <point x="182" y="549" type="curve"/>
      <point x="178" y="570" type="line"/>
      <point x="156" y="557"/>
      <point x="132" y="546"/>
      <point x="95" y="546" type="curve" smooth="yes"/>
      <point x="59" y="546"/>
      <point x="36" y="564"/>
      <point x="36" y="607" type="curve" smooth="yes"/>
      <point x="36" y="663"/>
      <point x="68" y="711"/>
      <point x="120" y="711" type="curve" smooth="yes"/>
      <point x="163" y="711"/>
      <point x="178" y="677"/>
      <point x="172" y="633" type="curve" smooth="yes"/>
      <point x="83" y="0" type="line"/>
      <point x="113" y="0" type="line"/>
      <point x="202" y="632" type="line" smooth="yes"/>
      <point x="211" y="695"/>
      <point x="179" y="738"/>
      <point x="122" y="738" type="curve" smooth="yes"/>
    </contour>
    <component base="hookHELPERright" xOffset="80"/>
  </outline>
</glyph>
<glyph name="uni01AB" format="1">
  <advance width="325"/>
  <unicode hex="01AB"/>
  <outline>
    <contour>
      <point x="222" y="-199"/>
      <point x="270" y="-163"/>
      <point x="282" y="-83" type="curve" smooth="yes"/>
      <point x="297" y="20" type="line"/>
      <point x="265" y="8" type="line"/>
      <point x="252" y="-80" type="line" smooth="yes"/>
      <point x="242" y="-150"/>
      <point x="204" y="-172"/>
      <point x="163" y="-172" type="curve" smooth="yes"/>
      <point x="130" y="-172"/>
      <point x="110" y="-161"/>
      <point x="92" y="-148" type="curve"/>
      <point x="75" y="-167" type="line"/>
      <point x="94" y="-182"/>
      <point x="121" y="-199"/>
      <point x="163" y="-199" type="curve" smooth="yes"/>
    </contour>
    <contour>
      <point x="172" y="650" type="line"/>
      <point x="145" y="510" type="line"/>
      <point x="90" y="118" type="line" smooth="yes"/>
      <point x="78" y="33"/>
      <point x="120" y="-10"/>
      <point x="189" y="-10" type="curve" smooth="yes"/>
      <point x="219" y="-10"/>
      <point x="245" y="-4"/>
      <point x="270" y="7" type="curve"/>
      <point x="297" y="20" type="line"/>
      <point x="287" y="40" type="line"/>
      <point x="257" y="27"/>
      <point x="226" y="17"/>
      <point x="192" y="17" type="curve" smooth="yes"/>
      <point x="132" y="17"/>
      <point x="111" y="53"/>
      <point x="120" y="120" type="curve" smooth="yes"/>
      <point x="195" y="653" type="line"/>
    </contour>
    <contour>
      <point x="61" y="520" type="line"/>
      <point x="57" y="493" type="line"/>
      <point x="311" y="493" type="line"/>
      <point x="319" y="520" type="line"/>
    </contour>
  </outline>
</glyph>
<glyph name="uni01AC" format="1">
  <advance width="497"/>
  <unicode hex="01AC"/>
  <outline>
    <contour>
      <point x="238" y="0" type="line"/>
      <point x="329" y="652" type="line"/>
      <point x="537" y="652" type="line"/>
      <point x="546" y="682" type="line"/>
      <point x="220" y="682" type="line"/>
      <point x="216" y="652" type="line"/>
      <point x="298" y="652" type="line"/>
      <point x="207" y="0" type="line"/>
    </contour>
    <contour>
      <point x="108" y="503" type="line"/>
      <point x="101" y="520"/>
      <point x="94" y="539"/>
      <point x="94" y="566" type="curve" smooth="yes"/>
      <point x="94" y="611"/>
      <point x="122" y="652"/>
      <point x="190" y="652" type="curve" smooth="yes"/>
      <point x="217" y="652" type="line"/>
      <point x="221" y="682" type="line"/>
      <point x="196" y="682" type="line" smooth="yes"/>
      <point x="109" y="682"/>
      <point x="63" y="631"/>
      <point x="63" y="566" type="curve" smooth="yes"/>
      <point x="63" y="534"/>
      <point x="73" y="511"/>
      <point x="84" y="491" type="curve"/>
    </contour>
  </outline>
</glyph>
<glyph name="uni01AD" format="1">
  <advance width="325"/>
  <unicode hex="01AD"/>
  <outline>
    <contour>
      <point x="178" y="529" type="line"/>
      <point x="189" y="609" type="line" smooth="yes"/>
      <point x="199" y="679"/>
      <point x="234" y="711"/>
      <point x="293" y="711" type="curve" smooth="yes"/>
      <point x="326" y="711"/>
      <point x="353" y="701"/>
      <point x="377" y="686" type="curve"/>
      <point x="393" y="708" type="line"/>
      <point x="365" y="726"/>
      <point x="333" y="738"/>
      <point x="292" y="738" type="curve" smooth="yes"/>
      <point x="223" y="738"/>
      <point x="171" y="698"/>
      <point x="159" y="611" type="curve" smooth="yes"/>
      <point x="148" y="529" type="line"/>
    </contour>
    <contour>
      <point x="148" y="529" type="line"/>
      <point x="145" y="510" type="line"/>
      <point x="90" y="118" type="line" smooth="yes"/>
      <point x="78" y="32"/>
      <point x="120" y="-10"/>
      <point x="189" y="-10" type="curve" smooth="yes"/>
      <point x="230" y="-10"/>
      <point x="265" y="2"/>
      <point x="297" y="20" type="curve"/>
      <point x="285" y="44" type="line"/>
      <point x="257" y="29"/>
      <point x="226" y="17"/>
      <point x="192" y="17" type="curve" smooth="yes"/>
      <point x="132" y="17"/>
      <point x="110" y="53"/>
      <point x="120" y="120" type="curve" smooth="yes"/>
      <point x="178" y="529" type="line"/>
    </contour>
    <contour>
      <point x="61" y="520" type="line"/>
      <point x="57" y="493" type="line"/>
      <point x="311" y="493" type="line"/>
      <point x="319" y="520" type="line"/>
    </contour>
  </outline>
</glyph>
<glyph name="uni01B1" format="1">
  <advance width="689"/>
  <unicode hex="01B1"/>
  <outline>
    <contour>
      <point x="514" y="-10"/>
      <point x="630" y="184"/>
      <point x="630" y="411" type="curve" smooth="yes"/>
      <point x="630" y="535"/>
      <point x="582" y="606"/>
      <point x="525" y="653" type="curve"/>
      <point x="649" y="653" type="line"/>
      <point x="653" y="682" type="line"/>
      <point x="483" y="682" type="line"/>
      <point x="480" y="654" type="line"/>
      <point x="545" y="608"/>
      <point x="598" y="532"/>
      <point x="598" y="407" type="curve" smooth="yes"/>
      <point x="598" y="206"/>
      <point x="499" y="19"/>
      <point x="309" y="19" type="curve" smooth="yes"/>
      <point x="187" y="19"/>
      <point x="110" y="100"/>
      <point x="110" y="249" type="curve" smooth="yes"/>
      <point x="110" y="411"/>
      <point x="182" y="570"/>
      <point x="324" y="654" type="curve"/>
      <point x="327" y="682" type="line"/>
      <point x="157" y="682" type="line"/>
      <point x="153" y="653" type="line"/>
      <point x="277" y="654" type="line"/>
      <point x="152" y="571"/>
      <point x="79" y="421"/>
      <point x="79" y="252" type="curve" smooth="yes"/>
      <point x="79" y="87"/>
      <point x="166" y="-10"/>
      <point x="309" y="-10" type="curve" smooth="yes"/>
    </contour>
  </outline>
</glyph>
<glyph name="uni01B2" format="1">
  <advance width="633"/>
  <unicode hex="01B2"/>
  <outline>
    <contour>
      <point x="488" y="692"/>
      <point x="468" y="685"/>
      <point x="452" y="676" type="curve"/>
      <point x="463" y="654" type="line"/>
      <point x="477" y="661"/>
      <point x="492" y="665"/>
      <point x="510" y="665" type="curve" smooth="yes"/>
      <point x="545" y="665"/>
      <point x="556" y="640"/>
      <point x="550" y="599" type="curve" smooth="yes"/>
      <point x="506" y="292" type="line" smooth="yes"/>
      <point x="481" y="110"/>
      <point x="379" y="19"/>
      <point x="259" y="19" type="curve" smooth="yes"/>
      <point x="167" y="19"/>
      <point x="115" y="75"/>
      <point x="130" y="180" type="curve" smooth="yes"/>
      <point x="200" y="682" type="line"/>
      <point x="169" y="682" type="line"/>
      <point x="99" y="179" type="line" smooth="yes"/>
      <point x="82" y="62"/>
      <point x="148" y="-10"/>
      <point x="259" y="-10" type="curve" smooth="yes"/>
      <point x="393" y="-10"/>
      <point x="509" y="89"/>
      <point x="537" y="287" type="curve" smooth="yes"/>
      <point x="581" y="599" type="line" smooth="yes"/>
      <point x="590" y="663"/>
      <point x="561" y="692"/>
      <point x="513" y="692" type="curve" smooth="yes"/>
    </contour>
    <contour>
      <point x="356" y="682" type="move" name="top"/>
    </contour>
    <contour>
      <point x="260" y="0" type="move" name="bottom"/>
    </contour>
  </outline>
</glyph>
<glyph name="uni01B3" format="1">
  <advance width="527"/>
  <unicode hex="01B3"/>
  <outline>
    <contour>
      <point x="256" y="301" type="line"/>
      <point x="114" y="682" type="line"/>
      <point x="79" y="682" type="line"/>
      <point x="237" y="270" type="line"/>
      <point x="199" y="0" type="line"/>
      <point x="230" y="0" type="line"/>
      <point x="269" y="270" type="line"/>
      <point x="474" y="607" type="line" smooth="yes"/>
      <point x="501" y="652"/>
      <point x="522" y="665"/>
      <point x="555" y="665" type="curve" smooth="yes"/>
      <point x="583" y="665"/>
      <point x="604" y="651"/>
      <point x="624" y="632" type="curve"/>
      <point x="642" y="650" type="line"/>
      <point x="621" y="672"/>
      <point x="592" y="692"/>
      <point x="555" y="692" type="curve" smooth="yes"/>
      <point x="511" y="692"/>
      <point x="482" y="673"/>
      <point x="450" y="620" type="curve" smooth="yes"/>
    </contour>
    <contour>
      <point x="317" y="682" type="move" name="top"/>
    </contour>
    <contour>
      <point x="227" y="0" type="move" name="bottom"/>
    </contour>
    <contour>
      <point x="73" y="682" type="move" name="topleft"/>
    </contour>
  </outline>
</glyph>
<glyph name="uni01B4" format="1">
  <advance width="448"/>
  <unicode hex="01B4"/>
  <outline>
    <contour>
      <point x="111" y="-165"/>
      <point x="157" y="-118"/>
      <point x="208" y="-3" type="curve" smooth="yes"/>
      <point x="424" y="480" type="line" smooth="yes"/>
      <point x="444" y="525"/>
      <point x="462" y="541"/>
      <point x="492" y="541" type="curve" smooth="yes"/>
      <point x="506" y="541"/>
      <point x="519" y="538"/>
      <point x="530" y="533" type="curve"/>
      <point x="541" y="557" type="line"/>
      <point x="528" y="563"/>
      <point x="513" y="568"/>
      <point x="493" y="568" type="curve" smooth="yes"/>
      <point x="450" y="568"/>
      <point x="423" y="548"/>
      <point x="396" y="487" type="curve" smooth="yes"/>
      <point x="192" y="23" type="line"/>
      <point x="89" y="520" type="line"/>
      <point x="57" y="520" type="line"/>
      <point x="168" y="0" type="line"/>
      <point x="181" y="1" type="line"/>
      <point x="135" y="-96"/>
      <point x="100" y="-142"/>
      <point x="-8" y="-173" type="curve"/>
      <point x="-5" y="-197" type="line"/>
    </contour>
  </outline>
</glyph>
<glyph name="uni01B5" format="1">
  <advance width="511"/>
  <unicode hex="01B5"/>
  <outline>
    <contour>
      <point x="408" y="0" type="line"/>
      <point x="417" y="30" type="line"/>
      <point x="46" y="30" type="line"/>
      <point x="517" y="655" type="line"/>
      <point x="520" y="682" type="line"/>
      <point x="137" y="682" type="line"/>
      <point x="133" y="653" type="line"/>
      <point x="478" y="653" type="line"/>
      <point x="7" y="28" type="line"/>
      <point x="3" y="0" type="line"/>
    </contour>
    <component base="hyphen" xOffset="33" yOffset="30" xScale="1.1"/>
  </outline>
</glyph>
<glyph name="uni01B6" format="1">
  <advance width="410"/>
  <unicode hex="01B6"/>
  <outline>
    <contour>
      <point x="92" y="520" type="line"/>
      <point x="88" y="492" type="line"/>
      <point x="369" y="492" type="line"/>
      <point x="-3" y="25" type="line"/>
      <point x="-7" y="0" type="line"/>
      <point x="329" y="0" type="line"/>
      <point x="336" y="28" type="line"/>
      <point x="37" y="28" type="line"/>
      <point x="408" y="495" type="line"/>
      <point x="412" y="520" type="line"/>
    </contour>
    <component base="hyphen" xOffset="6" yOffset="-43"/>
  </outline>
</glyph>
<glyph name="uni01B7" format="1">
  <advance width="476"/>
  <unicode hex="01B7"/>
  <outline>
    <contour>
      <point x="319" y="-10"/>
      <point x="418" y="84"/>
      <point x="418" y="218" type="curve" smooth="yes"/>
      <point x="418" y="319"/>
      <point x="351" y="377"/>
      <point x="222" y="377" type="curve" smooth="yes"/>
      <point x="175" y="377" type="line"/>
      <point x="140" y="348" type="line"/>
      <point x="222" y="348" type="line" smooth="yes"/>
      <point x="322" y="348"/>
      <point x="386" y="311"/>
      <point x="386" y="218" type="curve" smooth="yes"/>
      <point x="386" y="101"/>
      <point x="307" y="19"/>
      <point x="179" y="19" type="curve" smooth="yes"/>
      <point x="102" y="19"/>
      <point x="58" y="43"/>
      <point x="15" y="91" type="curve"/>
      <point x="-6" y="74" type="line"/>
      <point x="37" y="21"/>
      <point x="91" y="-10"/>
      <point x="180" y="-10" type="curve" smooth="yes"/>
    </contour>
    <contour>
      <point x="140" y="348" type="line"/>
      <point x="182" y="377" type="line"/>
      <point x="456" y="656" type="line"/>
      <point x="459" y="682" type="line"/>
      <point x="96" y="682" type="line"/>
      <point x="92" y="654" type="line"/>
      <point x="413" y="654" type="line"/>
      <point x="144" y="377" type="line"/>
    </contour>
  </outline>
</glyph>
<glyph name="uni01B8" format="1">
  <advance width="477"/>
  <unicode hex="01B8"/>
  <outline>
    <contour>
      <point x="312" y="-10"/>
      <point x="372" y="19"/>
      <point x="431" y="72" type="curve"/>
      <point x="412" y="92" type="line"/>
      <point x="353" y="40"/>
      <point x="300" y="19"/>
      <point x="220" y="19" type="curve" smooth="yes"/>
      <point x="125" y="19"/>
      <point x="69" y="71"/>
      <point x="69" y="159" type="curve" smooth="yes"/>
      <point x="69" y="274"/>
      <point x="147" y="348"/>
      <point x="281" y="348" type="curve" smooth="yes"/>
      <point x="361" y="348" type="line"/>
      <point x="335" y="377" type="line"/>
      <point x="285" y="377" type="line" smooth="yes"/>
      <point x="136" y="377"/>
      <point x="38" y="293"/>
      <point x="38" y="159" type="curve" smooth="yes"/>
      <point x="38" y="56"/>
      <point x="111" y="-10"/>
      <point x="219" y="-10" type="curve" smooth="yes"/>
    </contour>
    <contour>
      <point x="172" y="654" type="line"/>
      <point x="495" y="654" type="line"/>
      <point x="499" y="682" type="line"/>
      <point x="136" y="682" type="line"/>
      <point x="132" y="656" type="line"/>
      <point x="332" y="377" type="line"/>
      <point x="361" y="348" type="line"/>
      <point x="365" y="378" type="line"/>
    </contour>
  </outline>
</glyph>
<glyph name="uni01B9" format="1">
  <advance width="447"/>
  <unicode hex="01B9"/>
  <outline>
    <contour>
      <point x="257" y="-199"/>
      <point x="318" y="-170"/>
      <point x="374" y="-117" type="curve"/>
      <point x="354" y="-98" type="line"/>
      <point x="299" y="-150"/>
      <point x="245" y="-171"/>
      <point x="174" y="-171" type="curve" smooth="yes"/>
      <point x="77" y="-171"/>
      <point x="29" y="-113"/>
      <point x="29" y="-30" type="curve" smooth="yes"/>
      <point x="29" y="95"/>
      <point x="112" y="167"/>
      <point x="255" y="167" type="curve" smooth="yes"/>
      <point x="305" y="167" type="line"/>
      <point x="279" y="195" type="line"/>
      <point x="260" y="195" type="line" smooth="yes"/>
      <point x="100" y="195"/>
      <point x="-3" y="111"/>
      <point x="-3" y="-30" type="curve" smooth="yes"/>
      <point x="-3" y="-128"/>
      <point x="62" y="-199"/>
      <point x="174" y="-199" type="curve" smooth="yes"/>
    </contour>
    <contour>
      <point x="131" y="492" type="line"/>
      <point x="441" y="492" type="line"/>
      <point x="445" y="520" type="line"/>
      <point x="97" y="520" type="line"/>
      <point x="94" y="495" type="line"/>
      <point x="276" y="195" type="line"/>
      <point x="305" y="167" type="line"/>
      <point x="309" y="195" type="line"/>
    </contour>
  </outline>
</glyph>
<glyph name="uni01BA" format="1">
  <advance width="445"/>
  <unicode hex="01BA"/>
  <outline>
    <contour>
      <point x="85" y="-177" type="line"/>
      <point x="38" y="-152"/>
      <point x="17" y="-133"/>
      <point x="17" y="-98" type="curve" smooth="yes"/>
      <point x="17" y="-48"/>
      <point x="62" y="-21"/>
      <point x="181" y="-5" type="curve" smooth="yes"/>
      <point x="314" y="13"/>
      <point x="394" y="50"/>
      <point x="394" y="157" type="curve" smooth="yes"/>
      <point x="394" y="227"/>
      <point x="348" y="269"/>
      <point x="268" y="269" type="curve" smooth="yes"/>
      <point x="157" y="269" type="line"/>
      <point x="411" y="495" type="line"/>
      <point x="415" y="520" type="line"/>
      <point x="72" y="520" type="line"/>
      <point x="68" y="492" type="line"/>
      <point x="364" y="492" type="line"/>
      <point x="117" y="269" type="line"/>
      <point x="113" y="241" type="line"/>
      <point x="264" y="241" type="line" smooth="yes"/>
      <point x="326" y="241"/>
      <point x="363" y="216"/>
      <point x="363" y="156" type="curve" smooth="yes"/>
      <point x="363" y="62"/>
      <point x="291" y="38"/>
      <point x="175" y="22" type="curve" smooth="yes"/>
      <point x="48" y="5"/>
      <point x="-14" y="-30"/>
      <point x="-14" y="-97" type="curve" smooth="yes"/>
      <point x="-14" y="-145"/>
      <point x="20" y="-174"/>
      <point x="73" y="-199" type="curve"/>
    </contour>
  </outline>
</glyph>
<glyph name="uni01BD" format="1">
  <advance width="420"/>
  <unicode hex="01BD"/>
  <outline>
    <contour>
      <point x="122" y="520" type="line"/>
      <point x="87" y="272" type="line"/>
      <point x="111" y="272" type="line"/>
      <point x="148" y="291"/>
      <point x="175" y="300"/>
      <point x="220" y="300" type="curve" smooth="yes"/>
      <point x="283" y="300"/>
      <point x="323" y="267"/>
      <point x="323" y="196" type="curve" smooth="yes"/>
      <point x="323" y="96"/>
      <point x="259" y="18"/>
      <point x="162" y="18" type="curve" smooth="yes"/>
      <point x="104" y="18"/>
      <point x="71" y="35"/>
      <point x="36" y="69" type="curve"/>
      <point x="16" y="52" type="line"/>
      <point x="52" y="15"/>
      <point x="94" y="-10"/>
      <point x="161" y="-10" type="curve" smooth="yes"/>
      <point x="275" y="-10"/>
      <point x="354" y="80"/>
      <point x="354" y="196" type="curve" smooth="yes"/>
      <point x="354" y="279"/>
      <point x="307" y="328"/>
      <point x="222" y="328" type="curve" smooth="yes"/>
      <point x="178" y="328"/>
      <point x="146" y="315"/>
      <point x="121" y="301" type="curve"/>
      <point x="148" y="492" type="line"/>
      <point x="376" y="492" type="line"/>
      <point x="386" y="520" type="line"/>
    </contour>
  </outline>
</glyph>
<glyph name="uni01BE" format="1">
  <advance width="492"/>
  <unicode hex="01BE"/>
  <outline>
    <contour>
      <point x="143" y="568" type="line"/>
      <point x="211" y="568" type="line"/>
      <point x="361" y="568" type="line"/>
      <point x="365" y="595" type="line"/>
      <point x="147" y="595" type="line"/>
    </contour>
    <component base="uni0296"/>
  </outline>
</glyph>
<glyph name="uni01BF" format="1">
  <advance width="566"/>
  <unicode hex="01BF"/>
  <outline>
    <contour>
      <point x="152" y="520" type="line"/>
      <point x="50" y="-199" type="line"/>
      <point x="81" y="-193" type="line"/>
      <point x="166" y="412" type="line"/>
      <point x="167" y="421" type="line"/>
      <point x="178" y="520" type="line"/>
    </contour>
    <contour>
      <point x="161" y="400" type="line"/>
      <point x="219" y="459"/>
      <point x="282" y="502"/>
      <point x="362" y="502" type="curve" smooth="yes"/>
      <point x="435" y="502"/>
      <point x="480" y="463"/>
      <point x="480" y="385" type="curve" smooth="yes"/>
      <point x="480" y="225"/>
      <point x="340" y="134"/>
      <point x="167" y="46" type="curve" smooth="yes"/>
      <point x="110" y="17" type="line"/>
      <point x="106" y="-12" type="line"/>
      <point x="175" y="21" type="line" smooth="yes"/>
      <point x="356" y="109"/>
      <point x="511" y="210"/>
      <point x="511" y="385" type="curve" smooth="yes"/>
      <point x="511" y="478"/>
      <point x="454" y="530"/>
      <point x="364" y="530" type="curve" smooth="yes"/>
      <point x="281" y="530"/>
      <point x="218" y="490"/>
      <point x="160" y="431" type="curve"/>
    </contour>
  </outline>
</glyph>
<glyph name="uni01C0" format="1">
  <advance width="269"/>
  <unicode hex="01C0"/>
  <outline>
    <contour>
      <point x="188" y="734" type="line"/>
      <point x="83" y="0" type="line"/>
      <point x="112" y="0" type="line"/>
      <point x="216" y="738" type="line"/>
    </contour>
  </outline>
</glyph>
<glyph name="uni01C2" format="1">
  <advance width="320"/>
  <unicode hex="01C2"/>
  <outline>
    <contour>
      <point x="169" y="428" type="line"/>
      <point x="310" y="428" type="line"/>
      <point x="313" y="453" type="line"/>
      <point x="64" y="453" type="line"/>
      <point x="61" y="428" type="line"/>
    </contour>
    <contour>
      <point x="148" y="279" type="line"/>
      <point x="288" y="279" type="line"/>
      <point x="291" y="304" type="line"/>
      <point x="42" y="304" type="line"/>
      <point x="39" y="279" type="line"/>
    </contour>
    <component base="uni01C0" xOffset="25"/>
  </outline>
</glyph>
<glyph name="uni01C3" format="1">
  <advance width="300"/>
  <unicode hex="01C3"/>
  <outline>
    <contour>
      <point x="203" y="734" type="line"/>
      <point x="126" y="193" type="line"/>
      <point x="155" y="193" type="line"/>
      <point x="231" y="738" type="line"/>
    </contour>
    <component base="period" xOffset="62"/>
  </outline>
</glyph>
<glyph name="uni01E4" format="1">
  <advance width="623"/>
  <unicode hex="01E4"/>
  <outline>
    <contour>
      <point x="189" y="692"/>
      <point x="80" y="464"/>
      <point x="80" y="260" type="curve" smooth="yes"/>
      <point x="80" y="81"/>
      <point x="172" y="-10"/>
      <point x="316" y="-10" type="curve" smooth="yes"/>
      <point x="378" y="-10"/>
      <point x="446" y="8"/>
      <point x="507" y="41" type="curve"/>
      <point x="551" y="359" type="line"/>
      <point x="373" y="359" type="line"/>
      <point x="374" y="330" type="line"/>
      <point x="516" y="330" type="line"/>
      <point x="477" y="58" type="line"/>
      <point x="428" y="33"/>
      <point x="381" y="19"/>
      <point x="316" y="19" type="curve" smooth="yes"/>
      <point x="191" y="19"/>
      <point x="112" y="97"/>
      <point x="112" y="258" type="curve" smooth="yes"/>
      <point x="112" y="451"/>
      <point x="206" y="663"/>
      <point x="406" y="663" type="curve" smooth="yes"/>
      <point x="468" y="663"/>
      <point x="512" y="647"/>
      <point x="553" y="610" type="curve"/>
      <point x="574" y="631" type="line"/>
      <point x="526" y="672"/>
      <point x="474" y="692"/>
      <point x="406" y="692" type="curve" smooth="yes"/>
    </contour>
    <component base="hyphen" xOffset="283" yOffset="-90"/>
    <contour>
      <point x="371" y="682" type="move" name="top"/>
    </contour>
    <contour>
      <point x="275" y="0" type="move" name="bottom"/>
    </contour>
  </outline>
</glyph>
<glyph name="uni01E5" format="1">
  <advance width="489"/>
  <unicode hex="01E5"/>
  <outline>
    <contour>
      <point x="134" y="530"/>
      <point x="64" y="332"/>
      <point x="65" y="202" type="curve" smooth="yes"/>
      <point x="66" y="78"/>
      <point x="127" y="0"/>
      <point x="228" y="0" type="curve" smooth="yes"/>
      <point x="298" y="0"/>
      <point x="355" y="40"/>
      <point x="393" y="99" type="curve"/>
      <point x="378" y="-6" type="line" smooth="yes"/>
      <point x="361" y="-128"/>
      <point x="290" y="-173"/>
      <point x="209" y="-173" type="curve" smooth="yes"/>
      <point x="144" y="-173"/>
      <point x="99" y="-153"/>
      <point x="55" y="-130" type="curve"/>
      <point x="42" y="-152" type="line"/>
      <point x="85" y="-176"/>
      <point x="140" y="-199"/>
      <point x="208" y="-199" type="curve" smooth="yes"/>
      <point x="304" y="-199"/>
      <point x="387" y="-150"/>
      <point x="408" y="-2" type="curve" smooth="yes"/>
      <point x="478" y="488" type="line"/>
      <point x="437" y="511"/>
      <point x="396" y="530"/>
      <point x="324" y="530" type="curve" smooth="yes"/>
    </contour>
    <contour>
      <point x="375" y="504"/>
      <point x="415" y="492"/>
      <point x="446" y="474" type="curve"/>
      <point x="400" y="147" type="line"/>
      <point x="354" y="70"/>
      <point x="299" y="28"/>
      <point x="229" y="28" type="curve" smooth="yes"/>
      <point x="145" y="28"/>
      <point x="97" y="94"/>
      <point x="96" y="203" type="curve" smooth="yes"/>
      <point x="95" y="320"/>
      <point x="156" y="504"/>
      <point x="325" y="504" type="curve" smooth="yes"/>
    </contour>
    <contour>
      <point x="464" y="-82" type="line"/>
      <point x="468" y="-54" type="line"/>
      <point x="219" y="-54" type="line"/>
      <point x="215" y="-82" type="line"/>
    </contour>
    <contour>
      <point x="281" y="520" type="move" name="top"/>
    </contour>
  </outline>
</glyph>
